<svg width="277" height="46" fill="none" xmlns="http://www.w3.org/2000/svg"><path d="M108.714 28.336H58.032V13.168h48.608V8.882c0-3.8-3.193-6.881-7.131-6.881H57.873V0h50.841v28.336zm-42.822-2.004h34.962c3.193 0 5.786-2.499 5.786-5.584v-5.583H65.892c-3.193 0-5.787 2.499-5.787 5.584 0 3.084 2.594 5.583 5.787 5.583zm95.454-8.452v10.453h-47.014V.028h2.129v20.866c0 2.975 2.497 5.385 5.581 5.385h32.747c2.446 0 4.428-1.913 4.428-4.272V17.88h2.129zm7.743-10.413v5.228h41.359v2.05h-41.359v6.15c0 2.974 2.501 5.384 5.584 5.384h43.128v2.054H166.96V.028h50.841V2.08h-43.128c-3.083 0-5.584 2.413-5.584 5.388zM51.46 2.083L9.356 23.923c-1.149.596-.71 2.281.597 2.281h41.245v2.132H0v-2.008l42.1-21.84c1.15-.596.71-2.28-.597-2.28H2.14V.074h49.32v2.008zM277 28.336h-4.674l-22.117-12.748-.188-.107c-8.31 4.788-16.436 9.475-22.293 12.848h-4.7c.972-.561 18.661-10.754 24.639-14.205L223.212.032h4.671l22.186 12.784L272.02.17h4.571c-6.328 3.65-15.272 8.8-24.231 13.963l.185.107L277 28.336zM2.096 40.694v1.25c.667-.582 1.168-.955 1.503-1.122.331-.167.637-.253.92-.253.307 0 .59.1.855.299.262.199.395.348.395.451a.244.244 0 01-.078.185.263.263 0 01-.191.075.22.22 0 01-.104-.022.822.822 0 01-.158-.131 1.67 1.67 0 00-.372-.284.68.68 0 00-.313-.079c-.225 0-.494.086-.81.26-.317.174-.862.597-1.643 1.269v2.715h2.272c.126 0 .218.021.27.067a.235.235 0 01.08.182.221.221 0 01-.08.177c-.052.047-.144.072-.27.072H.342c-.121 0-.21-.022-.261-.068A.226.226 0 010 45.563c0-.068.026-.125.077-.167.052-.046.14-.068.266-.068h1.241v-4.13H.637c-.121 0-.21-.024-.261-.07a.237.237 0 01-.081-.185.23.23 0 01.077-.178c.052-.046.14-.071.265-.071h1.459zm15.729 2.673h-5.234c.088.64.368 1.158.836 1.549.468.391 1.042.586 1.735.586.383 0 .784-.06 1.204-.18.42-.122.763-.285 1.028-.484.077-.06.144-.089.203-.089.066 0 .121.025.169.075.048.05.074.106.074.174 0 .067-.033.131-.1.195-.195.196-.541.38-1.042.551a4.734 4.734 0 01-1.536.256c-.88 0-1.614-.277-2.203-.835-.59-.558-.884-1.23-.884-2.022 0-.718.276-1.337.829-1.852.552-.515 1.237-.775 2.052-.775.84 0 1.528.263 2.073.793.538.533.803 1.215.796 2.058zm-.52-.502a2.14 2.14 0 00-.802-1.332c-.435-.342-.95-.512-1.551-.512-.6 0-1.116.17-1.547.508-.431.338-.7.785-.807 1.34h4.708v-.004zm11.556 2.939v-.714c-.748.604-1.543.91-2.39.91-.616 0-1.098-.15-1.445-.451-.346-.303-.519-.669-.519-1.106 0-.48.228-.899.685-1.258.457-.359 1.124-.537 2-.537.236 0 .494.015.77.043.276.029.579.075.9.139v-.803c0-.27-.13-.509-.391-.708-.262-.199-.652-.302-1.175-.302-.398 0-.962.114-1.684.338-.129.039-.213.06-.25.06a.236.236 0 01-.17-.07.236.236 0 01-.07-.178.21.21 0 01.063-.16c.055-.06.287-.139.692-.242.638-.164 1.117-.249 1.444-.249.649 0 1.153.153 1.518.462.361.31.545.658.545 1.049v3.28h.685c.126 0 .218.021.27.067a.235.235 0 01.08.182.221.221 0 01-.08.177c-.052.047-.144.072-.27.072h-1.208zm0-2.466a4.964 4.964 0 00-.762-.15 7.217 7.217 0 00-.851-.045c-.748 0-1.33.156-1.75.465-.317.231-.475.508-.475.832 0 .298.121.55.364.753.244.206.597.306 1.061.306.446 0 .859-.085 1.238-.256.38-.17.774-.444 1.179-.817v-1.088h-.004zm11.117-4.94v6.909h2.019c.125 0 .217.021.269.067a.235.235 0 01.08.182.221.221 0 01-.08.177c-.052.047-.144.072-.27.072h-4.548c-.122 0-.21-.025-.262-.072a.233.233 0 01-.081-.177c0-.075.026-.135.081-.181.052-.047.14-.068.262-.068h2.018v-6.408h-1.48c-.122 0-.21-.025-.266-.071a.223.223 0 01-.08-.181c0-.071.025-.132.08-.178.052-.046.144-.071.27-.071h1.988zm27.192 4.969h-5.234c.089.64.369 1.158.836 1.549.468.391 1.043.586 1.735.586.383 0 .785-.06 1.205-.18.42-.122.762-.285 1.028-.484.077-.06.143-.089.202-.089.067 0 .122.025.17.075.048.05.073.106.073.174 0 .067-.033.131-.1.195-.194.196-.54.38-1.042.551-.5.17-1.013.256-1.536.256-.88 0-1.613-.277-2.202-.835-.59-.558-.885-1.23-.885-2.022 0-.718.277-1.337.83-1.852.552-.515 1.237-.775 2.051-.775.84 0 1.529.263 2.074.793.534.533.803 1.215.796 2.058zm-.519-.502a2.14 2.14 0 00-.803-1.332c-.434-.342-.95-.512-1.55-.512-.601 0-1.117.17-1.548.508-.43.338-.7.785-.806 1.34h4.707v-.004zm11.773-1.848c0-.114.026-.195.074-.248a.25.25 0 01.184-.079.24.24 0 01.188.079c.048.05.073.138.073.259v.85c0 .117-.025.202-.073.252a.252.252 0 01-.188.078.24.24 0 01-.173-.064c-.048-.043-.074-.114-.081-.213-.026-.235-.151-.43-.38-.583-.335-.22-.777-.33-1.326-.33-.574 0-1.02.113-1.337.337-.24.17-.36.359-.36.565 0 .234.143.433.426.59.196.11.568.195 1.113.252.714.075 1.208.16 1.484.253.394.138.69.327.884.572.196.245.291.508.291.792 0 .42-.21.797-.63 1.123-.42.327-1.035.494-1.845.494s-1.477-.199-1.993-.597c0 .135-.007.22-.026.26a.21.21 0 01-.088.1.26.26 0 01-.144.042.242.242 0 01-.184-.078c-.048-.05-.073-.135-.073-.252v-1.02c0-.118.022-.203.07-.253a.251.251 0 01.187-.078.26.26 0 01.265.274c0 .18.048.334.14.455.144.188.369.344.682.469.313.124.692.184 1.146.184.666 0 1.164-.12 1.491-.358.328-.242.49-.494.49-.761 0-.306-.165-.555-.497-.74-.335-.184-.821-.309-1.459-.373-.637-.064-1.094-.145-1.374-.248a1.414 1.414 0 01-.648-.459 1.08 1.08 0 01-.232-.66c0-.427.217-.761.648-1.014.431-.248.947-.373 1.547-.373.704 0 1.282.167 1.728.501zm9.581-.323h2.789c.121 0 .21.025.261.07a.235.235 0 01.081.182.221.221 0 01-.08.178c-.052.046-.14.07-.262.07h-2.789v3.3c0 .287.118.525.357.72.24.193.59.288 1.05.288.346 0 .722-.05 1.124-.149.405-.1.718-.213.943-.337a.423.423 0 01.202-.079c.067 0 .122.025.17.075.048.05.073.107.073.174a.22.22 0 01-.08.164c-.13.128-.446.27-.951.422a4.967 4.967 0 01-1.448.228c-.6 0-1.075-.135-1.429-.405-.354-.27-.53-.636-.53-1.098v-3.298h-.947c-.121 0-.21-.025-.261-.072a.237.237 0 01-.082-.184c0-.072.026-.132.082-.178.051-.046.14-.071.261-.071h.947v-1.465c0-.117.025-.202.073-.252a.25.25 0 01.185-.078.24.24 0 01.187.078c.048.05.074.135.074.253v1.464zm14.867 5.11v-.714c-.748.604-1.543.91-2.391.91-.615 0-1.097-.15-1.444-.451-.346-.303-.519-.669-.519-1.106 0-.48.228-.899.685-1.258.457-.359 1.124-.537 2-.537.236 0 .494.015.77.043.277.029.579.075.899.139v-.803c0-.27-.129-.509-.39-.708-.262-.199-.652-.302-1.175-.302-.398 0-.962.114-1.684.338a1.24 1.24 0 01-.25.06.236.236 0 01-.17-.07.236.236 0 01-.07-.178.21.21 0 01.063-.16c.055-.06.287-.139.692-.242.638-.164 1.117-.249 1.444-.249.649 0 1.153.153 1.518.462.361.31.545.658.545 1.049v3.28h.685c.126 0 .218.021.269.067a.233.233 0 01.081.182.219.219 0 01-.081.177c-.051.047-.143.072-.269.072h-1.208zm0-2.466a4.943 4.943 0 00-.762-.15 7.224 7.224 0 00-.851-.045c-.748 0-1.33.156-1.75.465-.317.231-.475.508-.475.832 0 .298.121.55.364.753.244.206.597.306 1.061.306.446 0 .859-.085 1.238-.256.379-.17.774-.444 1.179-.817v-1.088h-.004zm9.806-2.644h2.788c.122 0 .21.025.262.07a.233.233 0 01.081.182.222.222 0 01-.081.178c-.052.046-.14.07-.262.07h-2.788v3.3c0 .287.118.525.357.72.24.193.59.288 1.05.288.346 0 .722-.05 1.124-.149.405-.1.718-.213.943-.337a.421.421 0 01.202-.079c.066 0 .122.025.17.075.047.05.073.107.073.174a.22.22 0 01-.081.164c-.129.128-.445.27-.95.422a4.972 4.972 0 01-1.448.228c-.6 0-1.075-.135-1.429-.405-.354-.27-.53-.636-.53-1.098v-3.298h-.947c-.122 0-.21-.025-.262-.072a.239.239 0 01-.081-.184c0-.072.026-.132.081-.178.052-.046.14-.071.262-.071h.947v-1.465c0-.117.025-.202.073-.252a.25.25 0 01.184-.078.24.24 0 01.188.078c.048.05.074.135.074.253v1.464zm16.171 2.673h-5.234c.088.64.368 1.158.836 1.549.468.391 1.042.586 1.735.586.383 0 .784-.06 1.204-.18.42-.122.763-.285 1.028-.484.077-.06.144-.089.203-.089.066 0 .121.025.169.075.048.05.074.106.074.174 0 .067-.033.131-.1.195-.195.196-.541.38-1.042.551a4.734 4.734 0 01-1.536.256c-.881 0-1.614-.277-2.203-.835-.589-.558-.884-1.23-.884-2.022 0-.718.276-1.337.829-1.852.552-.515 1.237-.775 2.051-.775.84 0 1.529.263 2.074.793.534.533.803 1.215.796 2.058zm-.519-.502a2.147 2.147 0 00-.803-1.332c-.435-.342-.951-.512-1.551-.512-.601 0-1.116.17-1.547.508-.431.338-.7.785-.807 1.34h4.708v-.004zm22.683-2.171v4.613h2.019c.125 0 .217.021.269.067a.237.237 0 01.081.182.222.222 0 01-.081.177c-.052.047-.144.072-.269.072h-4.549c-.122 0-.21-.025-.262-.072a.231.231 0 01-.081-.177c0-.075.026-.135.081-.181.052-.047.14-.068.262-.068h2.018v-4.112h-1.499c-.122 0-.21-.025-.265-.071a.222.222 0 01-.081-.178c0-.075.026-.135.081-.181.051-.046.143-.071.269-.071h2.007zm-.018-2.541v1.28h-.759v-1.28h.759zm10.421 2.541v.75c.357-.349.681-.59.972-.725a2.29 2.29 0 01.98-.2c.391 0 .748.082 1.068.242.229.118.435.313.623.587.184.273.28.554.28.842v3.12h.434c.122 0 .21.022.262.068a.234.234 0 01.081.181.222.222 0 01-.081.178c-.052.046-.14.071-.262.071h-1.377c-.125 0-.218-.025-.269-.071a.231.231 0 01-.081-.178c0-.074.026-.135.081-.181.051-.046.144-.068.269-.068h.427v-3.038a1.16 1.16 0 00-.398-.889c-.265-.241-.619-.362-1.064-.362-.339 0-.634.067-.881.199-.246.131-.604.458-1.064.98v3.11h.582c.121 0 .21.022.261.068a.234.234 0 01.081.181.219.219 0 01-.081.178c-.051.046-.14.071-.261.071h-1.676c-.122 0-.21-.025-.262-.071a.235.235 0 01-.081-.178c0-.074.026-.135.081-.181.052-.046.14-.068.262-.068h.582V41.2h-.435c-.122 0-.21-.025-.261-.072a.236.236 0 01-.082-.184.22.22 0 01.082-.178c.051-.046.139-.071.261-.071h.947zm14.447 5.11h-.869l-2.111-4.605h-.527c-.122 0-.21-.025-.261-.072a.236.236 0 01-.082-.184.22.22 0 01.082-.178c.051-.046.139-.071.261-.071h1.927c.121 0 .21.025.261.07a.233.233 0 01.081.182.222.222 0 01-.081.178c-.051.046-.14.07-.261.07h-.851l1.882 4.113h.225l1.845-4.112h-.854c-.122 0-.21-.025-.262-.071a.236.236 0 01-.081-.185c0-.071.026-.132.081-.178.052-.046.14-.07.262-.07h1.933c.126 0 .214.024.266.07a.234.234 0 01.077.182.231.231 0 01-.077.177c-.052.047-.14.071-.266.071h-.519l-2.081 4.613zm14.664-2.437h-5.234c.088.64.368 1.158.836 1.549.468.391 1.043.586 1.735.586.383 0 .785-.06 1.205-.18a3.15 3.15 0 001.027-.484c.078-.06.144-.089.203-.089.066 0 .121.025.169.075.048.05.074.106.074.174 0 .067-.033.131-.099.195-.196.196-.542.38-1.043.551a4.734 4.734 0 01-1.536.256c-.88 0-1.613-.277-2.203-.835-.589-.558-.884-1.23-.884-2.022 0-.718.276-1.337.829-1.852.553-.515 1.238-.775 2.052-.775.84 0 1.528.263 2.074.793.537.533.803 1.215.795 2.058zm-.519-.502a2.138 2.138 0 00-.803-1.332c-.435-.342-.95-.512-1.551-.512-.6 0-1.116.17-1.547.508-.431.338-.7.785-.807 1.34h4.708v-.004zm11.773-1.848c0-.114.026-.195.073-.248a.25.25 0 01.185-.079c.077 0 .14.025.187.079.048.053.074.138.074.259v.85c0 .117-.026.202-.074.252a.249.249 0 01-.187.078.244.244 0 01-.174-.064c-.047-.043-.073-.114-.081-.213-.025-.235-.151-.43-.379-.583-.335-.22-.777-.33-1.326-.33-.575 0-1.02.113-1.337.337-.24.17-.361.359-.361.565 0 .234.143.433.427.59.195.11.567.195 1.112.252.715.075 1.209.16 1.485.253.394.138.689.327.884.572.195.245.291.508.291.792 0 .42-.21.797-.63 1.123-.42.327-1.035.494-1.845.494-.811 0-1.477-.199-1.993-.597a.77.77 0 01-.026.26.208.208 0 01-.088.1.262.262 0 01-.144.042.24.24 0 01-.184-.078c-.052-.053-.074-.135-.074-.252v-1.02c0-.118.022-.203.07-.253a.252.252 0 01.188-.078.26.26 0 01.265.274c0 .18.048.334.14.455.144.188.369.344.682.469.313.124.692.184 1.145.184.667 0 1.164-.12 1.492-.358.328-.242.49-.494.49-.761 0-.306-.166-.555-.497-.74-.335-.184-.822-.309-1.459-.373-.637-.064-1.094-.145-1.374-.248a1.411 1.411 0 01-.648-.459 1.08 1.08 0 01-.232-.66c0-.427.217-.761.648-1.014.431-.248.947-.373 1.547-.373.707 0 1.282.167 1.728.501zm9.584-.323h2.789c.122 0 .21.025.262.07a.237.237 0 01.081.182.222.222 0 01-.081.178c-.052.046-.14.07-.262.07h-2.789v3.3c0 .287.118.525.358.72.239.193.589.288 1.05.288.346 0 .722-.05 1.123-.149.405-.1.718-.213.943-.337a.42.42 0 01.203-.079c.066 0 .121.025.169.075.048.05.074.107.074.174a.22.22 0 01-.081.164c-.129.128-.446.27-.951.422a4.96 4.96 0 01-1.447.228c-.601 0-1.076-.135-1.429-.405-.354-.27-.531-.636-.531-1.098v-3.298h-.947c-.121 0-.21-.025-.261-.072a.236.236 0 01-.081-.184c0-.072.026-.132.081-.178.051-.046.14-.071.261-.071h.947v-1.465c0-.117.026-.202.074-.252a.248.248 0 01.184-.078.24.24 0 01.188.078c.048.054.073.135.073.253v1.464zm11.051.501c.435-.451.873-.679 1.315-.679.266 0 .498.068.697.203.198.135.368.34.501.618.228-.274.46-.48.692-.618.236-.135.472-.203.707-.203.372 0 .667.117.888.348.291.299.435.626.435.978v3.461h.434c.122 0 .21.022.262.068a.237.237 0 01.081.181.222.222 0 01-.081.178c-.052.046-.14.071-.262.071h-.946v-3.913a.869.869 0 00-.24-.625.747.747 0 00-.549-.25c-.187 0-.386.068-.593.203-.206.135-.445.402-.711.8v3.287h.428c.121 0 .21.022.261.068a.234.234 0 01.081.181.222.222 0 01-.081.178c-.051.046-.14.071-.261.071h-.947v-3.878a.936.936 0 00-.239-.653c-.163-.171-.343-.256-.542-.256a1.01 1.01 0 00-.545.17c-.251.16-.508.437-.781.832v3.287h.435c.121 0 .21.022.261.068a.234.234 0 01.081.181.222.222 0 01-.081.178c-.051.046-.14.071-.261.071h-1.382c-.121 0-.21-.025-.261-.071a.231.231 0 01-.081-.178c0-.074.026-.135.081-.181.051-.046.14-.068.261-.068h.435v-4.112h-.435c-.121 0-.21-.025-.261-.07a.236.236 0 01-.081-.186c0-.07.026-.131.081-.177.051-.046.14-.071.261-.071h.943v.508zm17.453 2.172h-5.234c.088.64.368 1.158.836 1.549.468.391 1.042.586 1.735.586.383 0 .785-.06 1.205-.18.419-.122.762-.285 1.027-.484.078-.06.144-.089.203-.089.066 0 .121.025.169.075.048.05.074.106.074.174 0 .067-.033.131-.099.195-.196.196-.542.38-1.043.551a4.734 4.734 0 01-1.536.256c-.88 0-1.613-.277-2.203-.835-.589-.558-.884-1.23-.884-2.022 0-.718.276-1.337.829-1.852.552-.515 1.238-.775 2.052-.775.84 0 1.528.263 2.074.793.537.533.803 1.215.795 2.058zm-.519-.502a2.143 2.143 0 00-.803-1.332c-.435-.342-.951-.512-1.551-.512s-1.116.17-1.547.508c-.431.338-.7.785-.807 1.34h4.708v-.004zm8.417-2.171v.75c.357-.349.681-.59.972-.725.291-.135.616-.2.98-.2.391 0 .748.082 1.068.242.229.118.435.313.623.587.184.273.28.554.28.842v3.12h.435c.121 0 .21.022.261.068a.234.234 0 01.081.181.222.222 0 01-.081.178c-.051.046-.14.071-.261.071h-1.378c-.125 0-.217-.025-.269-.071a.231.231 0 01-.081-.178c0-.074.026-.135.081-.181.052-.046.144-.068.269-.068h.427v-3.038c0-.349-.132-.647-.398-.889-.265-.241-.618-.362-1.064-.362-.339 0-.634.067-.881.199-.25.131-.604.458-1.064.98v3.11h.582c.121 0 .21.022.261.068a.234.234 0 01.081.181.219.219 0 01-.081.178c-.051.046-.14.071-.261.071h-1.676c-.122 0-.21-.025-.262-.071a.235.235 0 01-.081-.178c0-.074.026-.135.081-.181.052-.046.14-.068.262-.068h.582V41.2h-.435c-.121 0-.21-.025-.261-.072a.236.236 0 01-.081-.184c0-.072.025-.132.081-.178.051-.046.14-.071.261-.071h.947zm12.94 0h2.789c.121 0 .21.025.261.07a.233.233 0 01.081.182.22.22 0 01-.081.178c-.051.046-.14.07-.261.07h-2.789v3.3c0 .287.118.525.358.72.239.193.589.288 1.05.288.346 0 .722-.05 1.123-.149.405-.1.718-.213.943-.337a.42.42 0 01.203-.079c.066 0 .121.025.169.075.048.05.074.107.074.174a.22.22 0 01-.081.164c-.129.128-.446.27-.951.422a4.96 4.96 0 01-1.447.228c-.601 0-1.076-.135-1.43-.405-.353-.27-.53-.636-.53-1.098v-3.298h-.947c-.121 0-.21-.025-.261-.072a.236.236 0 01-.081-.184c0-.072.026-.132.081-.178.051-.046.14-.071.261-.071h.947v-1.465c0-.117.026-.202.074-.252a.248.248 0 01.184-.078.24.24 0 01.188.078c.048.05.073.135.073.253v1.464zm15.088.323c0-.114.026-.195.074-.248a.25.25 0 01.184-.079c.078 0 .14.025.188.079.048.053.074.138.074.259v.85c0 .117-.026.202-.074.252a.25.25 0 01-.188.078.24.24 0 01-.173-.064c-.048-.043-.073-.114-.081-.213-.026-.235-.151-.43-.379-.583-.335-.22-.777-.33-1.326-.33-.575 0-1.021.113-1.337.337-.24.17-.361.359-.361.565 0 .234.143.433.427.59.195.11.567.195 1.112.252.715.075 1.208.16 1.485.253.394.138.689.327.884.572.195.245.291.508.291.792 0 .42-.21.797-.63 1.123-.42.327-1.035.494-1.846.494-.81 0-1.477-.199-1.992-.597a.77.77 0 01-.026.26.21.21 0 01-.089.1.259.259 0 01-.143.042.24.24 0 01-.184-.078c-.048-.05-.074-.135-.074-.252v-1.02c0-.118.022-.203.07-.253a.25.25 0 01.188-.078.261.261 0 01.265.274c0 .18.048.334.14.455.144.188.368.344.681.469.314.124.693.184 1.146.184.667 0 1.164-.12 1.492-.358.328-.242.49-.494.49-.761 0-.306-.166-.555-.497-.74-.336-.184-.822-.309-1.459-.373-.637-.064-1.094-.145-1.374-.248a1.42 1.42 0 01-.649-.459 1.085 1.085 0 01-.232-.66c0-.427.218-.761.649-1.014.431-.248.946-.373 1.547-.373.707 0 1.282.167 1.727.501z" fill="#000"/></svg>