<svg width="1101" height="185" fill="none" xmlns="http://www.w3.org/2000/svg"><path d="M423.255 102.873H239.919V47.805h175.835V32.244c0-13.793-11.553-24.98-25.797-24.98H239.346V0h183.909v102.873zm-154.901-7.277H394.82c11.553 0 20.934-9.07 20.934-20.27v-20.27h-147.4c-11.552 0-20.933 9.07-20.933 20.27s9.381 20.27 20.933 20.27zm345.287-30.682v37.947H443.576V.103h7.702v75.752c0 10.8 9.034 19.548 20.187 19.548h118.457c8.848 0 16.017-6.942 16.017-15.51v-14.98h7.702zm28.008-37.805v18.98H791.26v7.444H641.649v22.322c0 10.8 9.048 19.548 20.201 19.548h156.007v7.458H633.948V.103h183.909v7.445H661.85c-11.153 0-20.201 8.761-20.201 19.56zM216.148 7.561L63.845 86.848c-4.157 2.168-2.572 8.284 2.159 8.284h149.198v7.741H30v-7.29l152.289-79.287c4.158-2.167 2.572-8.283-2.158-8.283H37.741V.27h178.407v7.29zM1032 102.873h-16.91l-80.001-46.282-.68-.387c-30.061 17.38-59.455 34.399-80.642 46.644h-17.002c3.517-2.039 67.503-39.044 89.129-51.573L837.431.116h16.896l80.255 46.411L1013.98.62h16.54c-22.89 13.251-55.244 31.947-87.65 50.695l.667.387L1032 102.873zm-994.66 47.33v4.969c2.562-2.313 4.476-3.797 5.742-4.453 1.281-.672 2.46-1.008 3.539-1.008 1.172 0 2.258.398 3.258 1.195 1.015.782 1.523 1.375 1.523 1.782 0 .296-.102.546-.305.75-.187.187-.43.281-.726.281a1.01 1.01 0 01-.399-.071c-.109-.062-.312-.242-.609-.539-.547-.546-1.023-.921-1.43-1.125a2.66 2.66 0 00-1.195-.304c-.86 0-1.898.343-3.117 1.031-1.203.687-3.297 2.367-6.281 5.039v10.781h8.718c.485 0 .828.094 1.032.282.203.171.304.406.304.703a.918.918 0 01-.304.703c-.204.187-.547.281-1.032.281H30.613c-.469 0-.805-.086-1.008-.258a.917.917 0 01-.305-.703.85.85 0 01.282-.656c.203-.188.547-.281 1.031-.281h4.758v-16.407h-3.633c-.469 0-.805-.093-1.008-.281a.943.943 0 01-.305-.726c0-.282.094-.516.282-.704.203-.187.547-.281 1.031-.281h5.602zm53.835 10.617H71.114c.344 2.547 1.406 4.602 3.188 6.164 1.796 1.547 4.015 2.321 6.656 2.321 1.469 0 3.008-.242 4.617-.727 1.61-.484 2.922-1.125 3.938-1.922.296-.234.554-.351.773-.351.25 0 .469.101.656.304a.927.927 0 01.281.68c0 .266-.125.524-.375.774-.75.781-2.085 1.515-4.007 2.203a17.568 17.568 0 01-5.883 1.007c-3.375 0-6.195-1.101-8.461-3.304-2.25-2.219-3.375-4.899-3.375-8.039 0-2.86 1.055-5.313 3.164-7.36 2.125-2.047 4.75-3.07 7.875-3.07 3.219 0 5.867 1.055 7.945 3.164 2.078 2.094 3.102 4.813 3.07 8.156zm-1.992-1.992c-.39-2.172-1.422-3.937-3.093-5.297-1.657-1.359-3.633-2.039-5.93-2.039-2.297 0-4.273.672-5.93 2.016-1.656 1.344-2.687 3.117-3.094 5.32h18.047zm37.828 11.672v-2.836c-2.859 2.406-5.914 3.609-9.164 3.609-2.359 0-4.203-.593-5.531-1.781-1.328-1.203-1.992-2.672-1.992-4.406 0-1.906.875-3.57 2.625-4.992 1.75-1.422 4.305-2.133 7.664-2.133.906 0 1.891.062 2.953.187 1.063.11 2.211.29 3.445.54V155.5c0-1.078-.5-2.016-1.5-2.812-1-.797-2.5-1.196-4.5-1.196-1.531 0-3.679.446-6.445 1.336-.5.156-.82.235-.961.235a.897.897 0 01-.656-.282 1 1 0 01-.258-.703c0-.265.078-.476.235-.633.218-.234 1.101-.554 2.648-.961 2.437-.656 4.281-.984 5.531-.984 2.485 0 4.422.617 5.813 1.852 1.39 1.218 2.086 2.601 2.086 4.148v13.031h2.625c.484 0 .828.094 1.031.282.203.171.305.406.305.703a.919.919 0 01-.305.703c-.203.187-.547.281-1.031.281h-4.618zm0-9.797a18.744 18.744 0 00-2.929-.586 27.087 27.087 0 00-3.258-.187c-2.859 0-5.094.617-6.703 1.851-1.219.922-1.828 2.024-1.828 3.305 0 1.187.461 2.187 1.383 3 .937.812 2.296 1.219 4.078 1.219 1.703 0 3.281-.336 4.734-1.008 1.469-.688 2.977-1.774 4.523-3.258v-4.336zm36.165-19.617v27.445h7.734c.484 0 .828.094 1.031.282.203.171.305.406.305.703a.919.919 0 01-.305.703c-.203.187-.547.281-1.031.281h-17.438c-.468 0-.804-.094-1.007-.281a.915.915 0 01-.305-.703c0-.297.101-.532.305-.703.203-.188.539-.282 1.007-.282h7.735v-25.453h-5.672c-.469 0-.813-.094-1.031-.281a.946.946 0 01-.305-.727c0-.281.102-.515.305-.703.203-.187.547-.281 1.031-.281h7.641zm91.312 19.734h-20.062c.343 2.547 1.406 4.602 3.187 6.164 1.797 1.547 4.016 2.321 6.656 2.321 1.469 0 3.008-.242 4.617-.727 1.61-.484 2.922-1.125 3.938-1.922.297-.234.555-.351.773-.351a.87.87 0 01.657.304.929.929 0 01.281.68c0 .266-.125.524-.375.774-.75.781-2.086 1.515-4.008 2.203a17.567 17.567 0 01-5.883 1.007c-3.375 0-6.195-1.101-8.461-3.304-2.25-2.219-3.375-4.899-3.375-8.039 0-2.86 1.055-5.313 3.164-7.36 2.125-2.047 4.75-3.07 7.875-3.07 3.219 0 5.868 1.055 7.946 3.164 2.078 2.094 3.101 4.813 3.07 8.156zm-1.992-1.992c-.391-2.172-1.422-3.937-3.094-5.297-1.656-1.359-3.633-2.039-5.93-2.039-2.296 0-4.273.672-5.929 2.016-1.657 1.344-2.688 3.117-3.094 5.32h18.047zm38.672-7.336c0-.453.093-.781.281-.984a.917.917 0 01.703-.305c.297 0 .539.102.727.305.187.203.281.547.281 1.031v3.375c0 .469-.094.805-.281 1.008a.946.946 0 01-.727.305.97.97 0 01-.68-.258c-.171-.172-.273-.453-.304-.844-.094-.937-.578-1.711-1.453-2.32-1.282-.875-2.977-1.313-5.086-1.313-2.203 0-3.914.446-5.133 1.336-.922.672-1.383 1.422-1.383 2.25 0 .938.547 1.719 1.641 2.344.75.437 2.172.773 4.265 1.008 2.735.297 4.633.633 5.696 1.008 1.515.546 2.64 1.304 3.375 2.273.75.969 1.125 2.016 1.125 3.141 0 1.671-.805 3.164-2.414 4.476-1.61 1.297-3.969 1.945-7.079 1.945-3.109 0-5.656-.789-7.64-2.367 0 .532-.031.875-.094 1.032a.848.848 0 01-.352.398.917.917 0 01-.539.164.919.919 0 01-.703-.305c-.187-.203-.281-.539-.281-1.007v-4.055c0-.469.086-.805.258-1.008a.944.944 0 01.726-.305.92.92 0 01.704.305c.203.188.304.445.304.773 0 .719.18 1.321.539 1.805.547.75 1.414 1.375 2.602 1.875 1.203.485 2.672.727 4.406.727 2.563 0 4.469-.477 5.719-1.43s1.875-1.961 1.875-3.023c0-1.219-.633-2.196-1.899-2.93-1.281-.734-3.148-1.227-5.601-1.477-2.438-.25-4.188-.578-5.25-.984-1.063-.406-1.891-1.016-2.485-1.828-.593-.813-.89-1.688-.89-2.625 0-1.688.828-3.024 2.484-4.008 1.656-1 3.633-1.5 5.93-1.5 2.719 0 4.93.664 6.633 1.992zm30.281-1.289h10.687c.469 0 .805.094 1.008.281.203.188.305.43.305.727a.917.917 0 01-.305.703c-.203.188-.539.281-1.008.281h-10.687v13.102c0 1.141.453 2.094 1.359 2.859.922.766 2.266 1.149 4.032 1.149 1.328 0 2.765-.196 4.312-.586 1.547-.406 2.75-.86 3.609-1.36.313-.203.571-.304.774-.304.25 0 .469.101.656.304a.925.925 0 01.281.68c0 .234-.101.453-.304.656-.5.516-1.719 1.078-3.657 1.688-1.921.594-3.765.89-5.531.89-2.297 0-4.125-.539-5.484-1.617-1.36-1.078-2.039-2.531-2.039-4.359v-13.102h-3.633c-.469 0-.805-.093-1.008-.281a.944.944 0 01-.305-.726.92.92 0 01.305-.704c.203-.187.539-.281 1.008-.281h3.633v-5.812c0-.469.094-.805.281-1.008a.919.919 0 01.703-.305c.297 0 .539.102.727.305.187.203.281.539.281 1.008v5.812zM371.98 170.5v-2.836c-2.859 2.406-5.914 3.609-9.164 3.609-2.359 0-4.203-.593-5.531-1.781-1.328-1.203-1.992-2.672-1.992-4.406 0-1.906.875-3.57 2.625-4.992 1.75-1.422 4.304-2.133 7.664-2.133.906 0 1.89.062 2.953.187 1.062.11 2.211.29 3.445.54V155.5c0-1.078-.5-2.016-1.5-2.812-1-.797-2.5-1.196-4.5-1.196-1.531 0-3.679.446-6.445 1.336-.5.156-.82.235-.961.235a.897.897 0 01-.656-.282 1 1 0 01-.258-.703c0-.265.078-.476.234-.633.219-.234 1.102-.554 2.649-.961 2.437-.656 4.281-.984 5.531-.984 2.484 0 4.422.617 5.812 1.852 1.391 1.218 2.086 2.601 2.086 4.148v13.031h2.625c.485 0 .829.094 1.032.282.203.171.304.406.304.703a.918.918 0 01-.304.703c-.203.187-.547.281-1.032.281h-4.617zm0-9.797a18.767 18.767 0 00-2.929-.586 27.112 27.112 0 00-3.258-.187c-2.86 0-5.094.617-6.703 1.851-1.219.922-1.829 2.024-1.829 3.305 0 1.187.461 2.187 1.383 3 .938.812 2.297 1.219 4.078 1.219 1.704 0 3.282-.336 4.735-1.008 1.469-.688 2.976-1.774 4.523-3.258v-4.336zm31.125-10.5h10.688c.468 0 .804.094 1.008.281.203.188.304.43.304.727a.916.916 0 01-.304.703c-.204.188-.54.281-1.008.281h-10.688v13.102c0 1.141.453 2.094 1.36 2.859.921.766 2.265 1.149 4.031 1.149 1.328 0 2.765-.196 4.312-.586 1.547-.406 2.75-.86 3.61-1.36.312-.203.57-.304.773-.304.25 0 .469.101.656.304a.926.926 0 01.282.68c0 .234-.102.453-.305.656-.5.516-1.719 1.078-3.656 1.688-1.922.594-3.766.89-5.532.89-2.296 0-4.125-.539-5.484-1.617-1.359-1.078-2.039-2.531-2.039-4.359v-13.102h-3.633c-.469 0-.804-.093-1.008-.281a.943.943 0 01-.304-.726c0-.282.101-.516.304-.704.204-.187.539-.281 1.008-.281h3.633v-5.812c0-.469.094-.805.281-1.008a.919.919 0 01.703-.305c.297 0 .539.102.727.305.187.203.281.539.281 1.008v5.812zm55.524 10.617h-20.063c.344 2.547 1.406 4.602 3.188 6.164 1.797 1.547 4.015 2.321 6.656 2.321 1.469 0 3.008-.242 4.617-.727 1.609-.484 2.922-1.125 3.938-1.922.296-.234.554-.351.773-.351.25 0 .469.101.656.304a.926.926 0 01.282.68c0 .266-.125.524-.375.774-.75.781-2.086 1.515-4.008 2.203a17.57 17.57 0 01-5.883 1.007c-3.375 0-6.195-1.101-8.461-3.304-2.25-2.219-3.375-4.899-3.375-8.039 0-2.86 1.055-5.313 3.164-7.36 2.125-2.047 4.75-3.07 7.875-3.07 3.219 0 5.867 1.055 7.945 3.164 2.078 2.094 3.102 4.813 3.071 8.156zm-1.993-1.992c-.39-2.172-1.421-3.937-3.093-5.297-1.657-1.359-3.633-2.039-5.93-2.039-2.297 0-4.273.672-5.93 2.016-1.656 1.344-2.687 3.117-3.093 5.32h18.046zm65.579-17.742v13.055c2.375-3.094 5.242-4.641 8.601-4.641 2.875 0 5.336 1.047 7.383 3.141 2.047 2.078 3.07 4.632 3.07 7.664 0 3.062-1.039 5.656-3.117 7.781-2.062 2.125-4.508 3.187-7.336 3.187-3.437 0-6.305-1.546-8.601-4.64v3.867h-4.618c-.468 0-.804-.094-1.007-.281a.915.915 0 01-.305-.703c0-.297.101-.532.305-.703.203-.188.539-.282 1.007-.282h2.649v-25.453h-2.649c-.468 0-.804-.094-1.007-.281a.943.943 0 01-.305-.727c0-.281.101-.515.305-.703.203-.187.539-.281 1.007-.281h4.618zm17.086 19.312c0-2.484-.852-4.585-2.555-6.304-1.703-1.735-3.695-2.602-5.977-2.602-2.281 0-4.273.867-5.976 2.602-1.703 1.719-2.555 3.82-2.555 6.304 0 2.485.852 4.594 2.555 6.329 1.703 1.718 3.695 2.578 5.976 2.578 2.282 0 4.274-.86 5.977-2.578 1.703-1.735 2.555-3.844 2.555-6.329zm28.804-10.195v4.969c2.563-2.313 4.477-3.797 5.742-4.453 1.282-.672 2.461-1.008 3.539-1.008 1.172 0 2.258.398 3.258 1.195 1.016.782 1.524 1.375 1.524 1.782 0 .296-.102.546-.305.75-.187.187-.43.281-.727.281-.156 0-.289-.024-.398-.071-.109-.062-.312-.242-.609-.539-.547-.546-1.024-.921-1.43-1.125a2.66 2.66 0 00-1.195-.304c-.86 0-1.899.343-3.118 1.031-1.203.687-3.296 2.367-6.281 5.039v10.781h8.719c.484 0 .828.094 1.031.282.203.171.305.406.305.703a.919.919 0 01-.305.703c-.203.187-.547.281-1.031.281h-15.445c-.469 0-.805-.086-1.008-.258a.917.917 0 01-.305-.703c0-.266.094-.484.281-.656.204-.188.547-.281 1.032-.281h4.757v-16.407h-3.632c-.469 0-.805-.093-1.008-.281a.944.944 0 01-.305-.726c0-.282.094-.516.281-.704.204-.187.547-.281 1.032-.281h5.601zm54.188 10.195c0 3-1.078 5.563-3.235 7.688-2.14 2.125-4.726 3.187-7.757 3.187-3.063 0-5.665-1.062-7.805-3.187-2.141-2.141-3.211-4.703-3.211-7.688 0-3 1.07-5.562 3.211-7.687 2.14-2.141 4.742-3.211 7.805-3.211 3.031 0 5.617 1.063 7.757 3.188 2.157 2.125 3.235 4.695 3.235 7.71zm-1.992 0c0-2.468-.883-4.57-2.649-6.304-1.75-1.735-3.875-2.602-6.375-2.602s-4.633.875-6.398 2.625c-1.75 1.735-2.625 3.828-2.625 6.281 0 2.438.875 4.532 2.625 6.282 1.765 1.75 3.898 2.625 6.398 2.625 2.5 0 4.625-.867 6.375-2.602 1.766-1.75 2.649-3.851 2.649-6.305zm27.82 1.336v8.766h-4.617c-.469 0-.805-.094-1.008-.281a.919.919 0 01-.305-.703c0-.297.102-.532.305-.703.203-.188.539-.282 1.008-.282h2.648v-25.453h-2.648c-.469 0-.805-.094-1.008-.281a.946.946 0 01-.305-.727c0-.281.102-.515.305-.703.203-.187.539-.281 1.008-.281h4.617v18.141l8.367-7.032h-1.008c-.469 0-.804-.093-1.008-.281a.916.916 0 01-.304-.703c0-.297.101-.539.304-.727.204-.187.539-.281 1.008-.281h6.305c.484 0 .828.094 1.031.281.203.188.305.43.305.727a.917.917 0 01-.305.703c-.203.188-.547.281-1.031.281h-2.274l-7.687 6.422 9.727 9.914h2.273c.484 0 .828.094 1.031.282.203.171.305.406.305.703a.919.919 0 01-.305.703c-.203.187-.547.281-1.031.281h-6.375c-.469 0-.805-.094-1.008-.281a.919.919 0 01-.305-.703c0-.297.102-.532.305-.703.203-.188.539-.282 1.008-.282h1.383l-8.461-8.695-2.25 1.898zm55.476-.914h-20.062c.344 2.547 1.406 4.602 3.187 6.164 1.797 1.547 4.016 2.321 6.657 2.321 1.468 0 3.007-.242 4.617-.727 1.609-.484 2.922-1.125 3.937-1.922.297-.234.555-.351.774-.351.25 0 .469.101.656.304a.925.925 0 01.281.68c0 .266-.125.524-.375.774-.75.781-2.086 1.515-4.008 2.203a17.565 17.565 0 01-5.882 1.007c-3.375 0-6.196-1.101-8.461-3.304-2.25-2.219-3.375-4.899-3.375-8.039 0-2.86 1.054-5.313 3.164-7.36 2.125-2.047 4.75-3.07 7.875-3.07 3.219 0 5.867 1.055 7.945 3.164 2.078 2.094 3.102 4.813 3.07 8.156zm-1.992-1.992c-.39-2.172-1.422-3.937-3.094-5.297-1.656-1.359-3.632-2.039-5.929-2.039s-4.274.672-5.93 2.016c-1.656 1.344-2.687 3.117-3.094 5.32h18.047zm29.813-8.625v4.969c2.562-2.313 4.476-3.797 5.742-4.453 1.281-.672 2.461-1.008 3.539-1.008 1.172 0 2.258.398 3.258 1.195 1.015.782 1.523 1.375 1.523 1.782 0 .296-.101.546-.304.75a.987.987 0 01-.727.281c-.156 0-.289-.024-.398-.071-.11-.062-.313-.242-.61-.539-.547-.546-1.023-.921-1.43-1.125a2.658 2.658 0 00-1.195-.304c-.859 0-1.898.343-3.117 1.031-1.203.687-3.297 2.367-6.281 5.039v10.781h8.718c.485 0 .829.094 1.032.282.203.171.304.406.304.703a.918.918 0 01-.304.703c-.203.187-.547.281-1.032.281h-15.445c-.469 0-.805-.086-1.008-.258a.916.916 0 01-.304-.703c0-.266.093-.484.281-.656.203-.188.547-.281 1.031-.281h4.758v-16.407h-3.633c-.469 0-.805-.093-1.008-.281a.943.943 0 01-.304-.726c0-.282.093-.516.281-.704.203-.187.547-.281 1.031-.281h5.602zm48.843 20.297v-2.836c-2.859 2.406-5.914 3.609-9.164 3.609-2.359 0-4.203-.593-5.531-1.781-1.328-1.203-1.992-2.672-1.992-4.406 0-1.906.875-3.57 2.625-4.992 1.75-1.422 4.305-2.133 7.664-2.133.906 0 1.891.062 2.953.187 1.063.11 2.211.29 3.445.54V155.5c0-1.078-.5-2.016-1.5-2.812-1-.797-2.5-1.196-4.5-1.196-1.531 0-3.679.446-6.445 1.336-.5.156-.82.235-.961.235a.897.897 0 01-.656-.282 1 1 0 01-.258-.703c0-.265.078-.476.235-.633.218-.234 1.101-.554 2.648-.961 2.437-.656 4.281-.984 5.531-.984 2.485 0 4.422.617 5.813 1.852 1.39 1.218 2.086 2.601 2.086 4.148v13.031h2.625c.484 0 .828.094 1.031.282.203.171.305.406.305.703a.919.919 0 01-.305.703c-.203.187-.547.281-1.031.281h-4.618zm0-9.797a18.744 18.744 0 00-2.929-.586 27.087 27.087 0 00-3.258-.187c-2.859 0-5.094.617-6.703 1.851-1.219.922-1.828 2.024-1.828 3.305 0 1.187.461 2.187 1.383 3 .937.812 2.296 1.219 4.078 1.219 1.703 0 3.281-.336 4.734-1.008 1.469-.688 2.977-1.774 4.523-3.258v-4.336zm41.79-6.89v-3.61h4.617c.468 0 .804.094 1.008.281.203.188.304.43.304.727a.916.916 0 01-.304.703c-.204.188-.54.281-1.008.281h-2.649v19.664c0 1.313-.281 2.485-.843 3.516-.375.688-1 1.398-1.875 2.133-.875.734-1.672 1.258-2.391 1.57-.719.313-1.68.469-2.883.469h-5.578c-.469 0-.805-.094-1.008-.281-.203-.172-.305-.407-.305-.703 0-.297.102-.54.305-.727.203-.188.539-.281 1.008-.281l5.648.023c1.157 0 2.196-.297 3.118-.89.937-.594 1.711-1.461 2.32-2.602.344-.656.516-1.492.516-2.508v-5.906c-2.11 2.891-4.829 4.336-8.157 4.336-2.703 0-5.039-1-7.008-3-1.953-2.016-2.929-4.438-2.929-7.266 0-2.828.976-5.242 2.929-7.242 1.969-2 4.305-3 7.008-3 3.328 0 6.047 1.438 8.157 4.313zm0 5.929c0-2.312-.797-4.265-2.391-5.859-1.578-1.594-3.469-2.391-5.672-2.391s-4.094.805-5.672 2.414c-1.578 1.594-2.367 3.539-2.367 5.836 0 2.313.789 4.274 2.367 5.883 1.578 1.594 3.469 2.391 5.672 2.391s4.094-.797 5.672-2.391c1.594-1.609 2.391-3.57 2.391-5.883zm44.859 1.078h-20.063c.344 2.547 1.407 4.602 3.188 6.164 1.797 1.547 4.016 2.321 6.656 2.321 1.469 0 3.008-.242 4.617-.727 1.61-.484 2.922-1.125 3.938-1.922.297-.234.555-.351.773-.351a.87.87 0 01.657.304.929.929 0 01.281.68c0 .266-.125.524-.375.774-.75.781-2.086 1.515-4.008 2.203a17.567 17.567 0 01-5.883 1.007c-3.375 0-6.195-1.101-8.461-3.304-2.25-2.219-3.375-4.899-3.375-8.039 0-2.86 1.055-5.313 3.164-7.36 2.125-2.047 4.75-3.07 7.875-3.07 3.219 0 5.867 1.055 7.946 3.164 2.078 2.094 3.101 4.813 3.07 8.156zm-1.992-1.992c-.391-2.172-1.422-3.937-3.094-5.297-1.656-1.359-3.633-2.039-5.93-2.039-2.297 0-4.273.672-5.929 2.016-1.657 1.344-2.688 3.117-3.094 5.32h18.047z" fill="#000"/></svg>