<svg width="65" height="55" fill="none" xmlns="http://www.w3.org/2000/svg"><path d="M11.266 49.305c.289.332.57.669.861.998l.91.958L9.297 55l-1.085-1.143c-.348-.392-.688-.796-1.03-1.193l4.084-3.36zm-3.999-6.622a26.77 26.77 0 001.09 2.28l-4.66 2.507a32.29 32.29 0 01-1.304-2.734l4.873-2.052zm-1.945-7.49c.085.803.217 1.602.37 2.394L.51 38.636a32.5 32.5 0 01-.445-2.863l5.257-.58zm.258-7.739l-.096.57-.048.287c-.015.096-.024.192-.037.286l-.07.575-.033.286c-.012.097-.024.193-.029.289L0 29.266c.007-.116.022-.229.034-.344l.04-.345.082-.688c.015-.115.027-.228.044-.344l.058-.342.115-.683 5.207.934zm2.445-7.341l-.246.493-.123.248c-.038.084-.074.168-.11.253l-.438 1.01-4.904-1.98c.171-.407.349-.809.525-1.213.045-.1.086-.202.132-.303l.147-.296.293-.592 4.724 2.38zm4.441-6.335l-.363.38c-.116.13-.229.265-.342.397l-.341.4c-.114.132-.232.261-.335.404L6.963 12.04c.125-.168.265-.322.4-.483l.409-.477c.137-.158.272-.317.411-.474l.431-.454 3.852 3.626zm6.052-4.829c-.147.077-.284.173-.426.257l-.421.265-.421.264-.407.284-2.998-4.357.489-.34.505-.317.505-.315c.171-.104.335-.215.51-.308l2.664 4.567zm7.172-2.895l-.909.245c-.151.044-.303.077-.452.126l-.448.144-1.605-5.039.537-.173c.178-.058.36-.1.541-.151l1.088-.292 1.249 5.14zm7.71-.734l-.888-.022-.443-.01-.442.013-.09-5.289.53-.012.53.012c.353.01.707.014 1.06.026L33.4 5.32zm7.601 1.48l-.792-.255-.397-.128c-.132-.043-.267-.075-.401-.11l1.434-5.092c.159.046.322.084.481.135l.474.151.948.308-1.747 4.99zm6.853 3.59l-.64-.445-.32-.224-.33-.207 2.849-4.456.395.247.382.267.765.535-3.101 4.283zm5.556 5.395l-.446-.573-.471-.549 4.006-3.455.563.66.532.685-4.184 3.232zm3.796 6.739c-.146-.423-.336-.828-.512-1.239l4.834-2.146c.212.49.435.98.613 1.484l-4.935 1.901zm1.714 7.546c-.02-.412-.08-.818-.128-1.227l5.248-.66c.058.489.125.977.151 1.468l-5.271.419zm-.496 7.728l.06-.274a3.64 3.64 0 00.055-.276l.094-.556 5.217.873-.113.664c-.017.11-.041.221-.065.33l-.072.33-5.176-1.09zm-2.669 7.26c.174-.291.316-.6.467-.905l4.74 2.344c-.18.363-.353.731-.558 1.082l-4.649-2.521zm-4.632 6.202l.629-.661 3.861 3.614-.75.787-3.74-3.74zm-34.306-6.513c.211.243.418.491.632.734l.667.703-2.743 2.743-.797-.838a57.863 57.863 0 01-.755-.876l2.996-2.466zm-2.933-4.855c.238.57.507 1.126.798 1.672L11.266 43.4a23.917 23.917 0 01-.958-2.005l3.576-1.504zm-1.427-5.494c.062.59.159 1.175.272 1.757l-3.802.77a23.912 23.912 0 01-.325-2.098l3.855-.428zm.19-5.673l-.07.419-.036.209c-.012.07-.017.14-.027.212-.031.281-.072.56-.096.844l-3.862-.354c.031-.336.077-.67.116-1.008.012-.084.019-.168.03-.252l.042-.25.084-.5 3.819.68zm1.793-5.383l-.181.363-.09.18c-.028.06-.052.123-.08.186l-.32.741-3.598-1.453c.125-.299.255-.592.385-.89.034-.075.063-.15.099-.222l.105-.216.215-.433 3.464 1.744zm3.258-4.646l-.268.279c-.084.096-.168.195-.25.291l-.25.291c-.082.099-.17.193-.245.296l-3.022-2.432c.091-.123.194-.236.293-.354l.3-.349c.102-.115.2-.233.302-.349l.315-.334 2.825 2.66zm4.436-3.542c-.108.055-.207.125-.313.19l-.31.192-.308.193-.298.21-2.2-3.196.36-.25.37-.234.37-.23c.125-.075.245-.16.373-.227l1.956 3.352zm5.263-2.124l-.667.18c-.11.031-.223.055-.332.091l-.327.106-1.177-3.696.393-.127c.13-.044.264-.075.397-.11l.799-.215.914 3.77zm5.652-.537l-.65-.015-.327-.01-.325.01-.065-3.878.39-.01.387.01.78.019-.19 3.874zm5.572 1.085l-.582-.188-.291-.094c-.097-.031-.198-.053-.294-.082l1.052-3.734c.117.034.235.063.35.099l.35.11.695.227-1.28 3.662zm5.027 2.632l-.47-.327-.233-.164-.243-.151 2.089-3.268.29.183.28.195.56.392-2.273 3.14zm4.074 3.958l-.325-.42-.347-.405 2.938-2.531.414.48.39.504-3.07 2.372zm2.783 4.94c-.108-.31-.248-.606-.375-.91l3.544-1.573c.157.361.32.717.45 1.088l-3.619 1.395zm1.256 5.534c-.014-.3-.057-.601-.091-.9l3.847-.483c.044.358.092.717.111 1.076l-3.867.307zm-.363 5.668c.026-.136.063-.268.084-.405l.068-.407 3.825.64-.081.486c-.027.164-.068.323-.101.484l-3.795-.799zm-1.956 5.324c.127-.214.23-.44.341-.662l3.477 1.72c-.132.268-.26.537-.409.795l-3.41-1.853zm-3.395 4.55l.46-.486 2.832 2.65-.55.577-2.742-2.741zm-24.755-5.108c.15.173.296.346.448.517l.471.496-1.939 1.94-.563-.593c-.18-.204-.356-.411-.534-.618l2.117-1.742zm-2.074-3.434c.168.404.358.796.565 1.181l-2.416 1.3a17.015 17.015 0 01-.676-1.418l2.527-1.063zM18.21 33.76c.043.417.113.831.192 1.242l-2.687.544c-.096-.49-.178-.986-.231-1.484l2.726-.301zm.135-4.013l-.05.296a4.23 4.23 0 00-.044.296c-.022.2-.05.397-.07.597l-2.73-.25c.02-.239.054-.474.081-.713a4.33 4.33 0 01.053-.353l.06-.354 2.7.481zm1.265-3.804l-.127.255-.063.128-.058.13-.226.524-2.543-1.027c.089-.21.18-.419.272-.628.024-.053.045-.106.07-.156l.074-.154.152-.308 2.45 1.236zm2.303-3.284l-.188.197-.178.207c-.115.14-.24.272-.351.416l-2.135-1.72c.133-.17.28-.332.42-.498.069-.082.139-.166.21-.245l.225-.236 1.997 1.879zm3.137-2.503c-.149.085-.29.18-.438.27l-.218.137-.212.147-1.555-2.26.253-.175.262-.164c.176-.108.347-.221.527-.322l1.381 2.367zm3.718-1.501l-.471.127c-.078.022-.16.041-.236.065l-.231.075-.833-2.613.28-.09c.09-.03.187-.052.28-.079l.564-.151.647 2.666zm3.997-.38l-.46-.01-.228-.007-.231.007-.046-2.743.274-.005.274.005.551.015-.134 2.738zm3.939.767l-.412-.132-.204-.067c-.068-.022-.14-.039-.207-.058l.743-2.64c.082.024.166.044.248.07l.246.08.49.158-.904 2.59zm3.553 1.86l-.332-.23-.166-.116-.17-.106 1.477-2.31.204.127.198.14.396.274-1.607 2.221zm2.881 2.798l-.231-.298-.246-.284 2.077-1.79.293.342.275.354-2.168 1.677zm1.965 3.492c-.077-.219-.175-.428-.267-.642l2.505-1.112c.11.255.227.508.318.77l-2.556.984zm.891 3.912c-.01-.214-.041-.423-.065-.637l2.721-.342c.029.253.065.505.08.76l-2.736.22zm-.258 4.006c.02-.096.046-.19.06-.286l.049-.289 2.704.453-.058.344c-.019.115-.048.228-.07.341l-2.685-.563zm-1.383 3.764c.089-.152.164-.31.243-.47l2.457 1.216c-.094.188-.183.38-.289.56l-2.411-1.306zm-2.401 3.214l.327-.341 2.002 1.872-.39.409-1.94-1.94z" fill="#F6F0E4"/></svg>