<svg width="65" height="55" viewBox="0 0 65 55" fill="none" xmlns="http://www.w3.org/2000/svg">
<path d="M11.2658 49.3046C11.5545 49.6366 11.8361 49.9735 12.1272 50.3031L13.0368 51.2607L9.29755 54.9999L8.21242 53.857C7.86358 53.4649 7.52428 53.0606 7.18262 52.6636L11.2658 49.3046Z" fill="#F6F0E4"/>
<path d="M7.26651 42.6828C7.59134 43.46 7.95949 44.2203 8.35646 44.9638L3.6982 47.4687C3.22413 46.5784 2.78384 45.6689 2.39404 44.7352L7.26651 42.6828Z" fill="#F6F0E4"/>
<path d="M5.32239 35.1927C5.40666 35.9963 5.53894 36.7952 5.69288 37.5868L0.51005 38.6359C0.322328 37.6879 0.168393 36.735 0.0649414 35.7726L5.32239 35.1927Z" fill="#F6F0E4"/>
<path d="M5.57992 27.454L5.48365 28.0242L5.43551 28.3105C5.42104 28.4068 5.41151 28.5031 5.39938 28.5969L5.32958 29.1719L5.29593 29.4583C5.28392 29.5546 5.27192 29.6508 5.26709 29.747L0 29.2657C0.00717723 29.1503 0.0216521 29.0372 0.0336554 28.9216L0.0746158 28.5775L0.156416 27.8893C0.170894 27.7739 0.182897 27.6608 0.199727 27.5452L0.257515 27.2035L0.37297 26.5202L5.57992 27.454Z" fill="#F6F0E4"/>
<path d="M8.02458 20.1128L7.7792 20.6061L7.65644 20.854C7.61795 20.9382 7.58183 21.0224 7.54582 21.1066L7.10789 22.1173L2.2041 20.137C2.37499 19.7303 2.55294 19.3285 2.72865 18.9243C2.77432 18.8232 2.81527 18.7222 2.86094 18.6211L3.0077 18.3251L3.30122 17.7332L8.02458 20.1128Z" fill="#F6F0E4"/>
<path d="M12.4662 13.7777L12.1029 14.1579C11.9874 14.2878 11.8743 14.4226 11.7612 14.5548L11.4196 14.9543C11.3065 15.0866 11.1885 15.2165 11.0851 15.3586L6.96338 12.0405C7.08849 11.872 7.22807 11.718 7.36283 11.5569L7.77194 11.0804C7.90905 10.9217 8.04381 10.7628 8.18339 10.6064L8.61415 10.1516L12.4662 13.7777Z" fill="#F6F0E4"/>
<path d="M18.5181 8.94859C18.3713 9.02556 18.2342 9.12184 18.0922 9.20611L17.671 9.4708L17.2499 9.7355L16.8433 10.0194L13.8452 5.6618L14.3336 5.32249L14.8389 5.00484L15.3441 4.68965C15.515 4.5862 15.6786 4.47545 15.8542 4.38165L18.5181 8.94859Z" fill="#F6F0E4"/>
<path d="M25.6907 6.05407L24.7812 6.29945C24.6296 6.34277 24.478 6.37643 24.3288 6.42457L23.8812 6.56898L22.2764 1.53044L22.8129 1.35719C22.991 1.2994 23.1739 1.25609 23.3543 1.2056L24.4419 0.914429L25.6907 6.05407Z" fill="#F6F0E4"/>
<path d="M33.4 5.32006L32.5121 5.2984L32.0693 5.28875L31.6266 5.30076L31.5376 0.0119999L32.067 0L32.5964 0.0119999C32.95 0.0216521 33.3038 0.0264859 33.6575 0.0384892L33.4 5.32006Z" fill="#F6F0E4"/>
<path d="M41.001 6.79965L40.2094 6.54461L39.8124 6.41703C39.6802 6.37372 39.5454 6.34241 39.4106 6.3064L40.8447 1.21503C41.0035 1.26069 41.1672 1.29929 41.326 1.34978L41.8 1.50137L42.748 1.80938L41.001 6.79965Z" fill="#F6F0E4"/>
<path d="M47.8536 10.3896L47.2136 9.94451L46.8936 9.72077L46.564 9.51375L49.4128 5.05756L49.8075 5.30542L50.1901 5.57246L50.9552 6.10667L47.8536 10.3896Z" fill="#F6F0E4"/>
<path d="M53.4095 15.7846L52.9643 15.2119L52.4927 14.6632L56.4989 11.208L57.062 11.8673L57.5938 12.5531L53.4095 15.7846Z" fill="#F6F0E4"/>
<path d="M57.2064 22.5242C57.0596 22.1007 56.8696 21.6964 56.6938 21.285L61.5278 19.1387C61.7396 19.6296 61.9633 20.1181 62.1414 20.6233L57.2064 22.5242Z" fill="#F6F0E4"/>
<path d="M58.9196 30.07C58.9003 29.6585 58.8401 29.2519 58.792 28.8428L64.0398 28.1835C64.0976 28.6719 64.1649 29.1603 64.1914 29.6512L58.9196 30.07Z" fill="#F6F0E4"/>
<path d="M58.4238 37.7985L58.484 37.5242C58.5056 37.4327 58.5249 37.3413 58.5393 37.2475L58.6331 36.6916L63.8497 37.565L63.7366 38.2291C63.7198 38.3398 63.6956 38.4505 63.6716 38.5588L63.5995 38.8884L58.4238 37.7985Z" fill="#F6F0E4"/>
<path d="M55.7554 45.0577C55.9286 44.7665 56.0705 44.4585 56.2221 44.153L60.9623 46.4966C60.7819 46.8599 60.6087 47.228 60.4041 47.5793L55.7554 45.0577Z" fill="#F6F0E4"/>
<path d="M51.1235 51.2605L51.7515 50.5988L55.6135 54.213L54.8627 54.9997L51.1235 51.2605Z" fill="#F6F0E4"/>
<path d="M16.8166 44.7471C17.0283 44.9901 17.2352 45.238 17.4494 45.481L18.1159 46.1836L15.3728 48.9267L14.5764 48.0893C14.3214 47.8006 14.0711 47.507 13.8208 47.2134L16.8166 44.7471Z" fill="#F6F0E4"/>
<path d="M13.8836 39.8915C14.1218 40.4618 14.3913 41.0176 14.6825 41.5638L11.2658 43.3997C10.9169 42.7452 10.5945 42.0787 10.3081 41.3954L13.8836 39.8915Z" fill="#F6F0E4"/>
<path d="M12.4567 34.3985C12.5193 34.988 12.6155 35.5727 12.7286 36.1549L8.92688 36.9249C8.78977 36.2296 8.67667 35.5293 8.60205 34.8267L12.4567 34.3985Z" fill="#F6F0E4"/>
<path d="M12.6467 28.7249L12.5769 29.1436L12.5408 29.3529C12.5287 29.4227 12.5239 29.4925 12.5143 29.5646C12.483 29.8462 12.4421 30.1253 12.418 30.4092L8.55615 30.0555C8.58746 29.7187 8.63312 29.3842 8.67161 29.0474C8.68361 28.9631 8.69092 28.879 8.70292 28.7947L8.74389 28.5445L8.82815 28.0441L12.6467 28.7249Z" fill="#F6F0E4"/>
<path d="M14.4393 23.342L14.2588 23.7053L14.1699 23.8857C14.141 23.9459 14.1169 24.0085 14.0881 24.071L13.7681 24.8121L10.1709 23.3588C10.296 23.0605 10.4259 22.7669 10.5559 22.4686C10.5895 22.394 10.6185 22.3193 10.6545 22.2472L10.7604 22.0306L10.9746 21.5975L14.4393 23.342Z" fill="#F6F0E4"/>
<path d="M17.6976 18.6956L17.4305 18.9748C17.3462 19.0711 17.2621 19.1697 17.1803 19.266L16.9301 19.5571C16.8483 19.6558 16.7592 19.7497 16.6847 19.8531L13.6626 17.4206C13.754 17.2978 13.8575 17.1847 13.9561 17.0669L14.2569 16.718C14.358 16.6026 14.4567 16.4847 14.5578 16.3692L14.8729 16.0347L17.6976 18.6956Z" fill="#F6F0E4"/>
<path d="M22.1343 15.1537C22.026 15.209 21.9274 15.2788 21.8215 15.3438L21.5111 15.5363L21.2031 15.7289L20.9048 15.9383L18.7056 12.7429L19.0641 12.4927L19.4346 12.2593L19.805 12.0283C19.9301 11.9537 20.0504 11.8695 20.178 11.8021L22.1343 15.1537Z" fill="#F6F0E4"/>
<path d="M27.3968 13.0294L26.7303 13.2099C26.6197 13.2412 26.5066 13.2652 26.3983 13.3013L26.0711 13.4072L24.8945 9.71133L25.2867 9.58374C25.4166 9.54043 25.5514 9.50913 25.6836 9.47312L26.4826 9.25891L27.3968 13.0294Z" fill="#F6F0E4"/>
<path d="M33.0489 12.4928L32.3992 12.4783L32.0719 12.4687L31.7471 12.4783L31.6821 8.59956L32.0719 8.59003L32.4594 8.59956L33.239 8.61886L33.0489 12.4928Z" fill="#F6F0E4"/>
<path d="M38.6212 13.5779L38.0388 13.3901L37.7476 13.2963C37.6513 13.265 37.5504 13.2434 37.4541 13.2145L38.5056 9.48016C38.6235 9.51382 38.7414 9.54278 38.8569 9.57879L39.2057 9.68941L39.901 9.91562L38.6212 13.5779Z" fill="#F6F0E4"/>
<path d="M43.6478 16.2102L43.1786 15.883L42.9452 15.7194L42.7021 15.5678L44.7907 12.3002L45.0818 12.4831L45.3609 12.678L45.9216 13.0702L43.6478 16.2102Z" fill="#F6F0E4"/>
<path d="M47.7216 20.1683L47.3968 19.7473L47.0503 19.343L49.9883 16.8117L50.4021 17.2929L50.7919 17.7959L47.7216 20.1683Z" fill="#F6F0E4"/>
<path d="M50.5052 25.1084C50.3969 24.798 50.2573 24.502 50.1299 24.1989L53.6742 22.6252C53.8306 22.9861 53.9942 23.3422 54.1241 23.7128L50.5052 25.1084Z" fill="#F6F0E4"/>
<path d="M51.7614 30.6425C51.7469 30.3417 51.7036 30.041 51.6699 29.7426L55.5174 29.259C55.5607 29.6175 55.6089 29.976 55.628 30.3346L51.7614 30.6425Z" fill="#F6F0E4"/>
<path d="M51.3979 36.3093C51.4244 36.1745 51.4606 36.0422 51.4822 35.905L51.5495 35.4984L55.3754 36.1384L55.2936 36.6244C55.2671 36.788 55.2263 36.9469 55.1925 37.108L51.3979 36.3093Z" fill="#F6F0E4"/>
<path d="M49.4419 41.6339C49.5695 41.4197 49.6729 41.1936 49.7835 40.9722L53.2604 42.6927C53.1281 42.9597 53.0006 43.2292 52.8513 43.4867L49.4419 41.6339Z" fill="#F6F0E4"/>
<path d="M46.0469 46.184L46.5065 45.6979L49.3385 48.3471L48.7898 48.9246L46.0469 46.184Z" fill="#F6F0E4"/>
<path d="M21.2922 41.0758C21.4414 41.249 21.5882 41.4223 21.7398 41.5932L22.2114 42.0889L20.2721 44.0282L19.709 43.4364C19.5286 43.2318 19.3529 43.0249 19.1748 42.818L21.2922 41.0758Z" fill="#F6F0E4"/>
<path d="M19.2179 37.6418C19.3863 38.0461 19.5764 38.4383 19.7833 38.8233L17.3675 40.1226C17.1222 39.6606 16.8935 39.189 16.6914 38.7053L19.2179 37.6418Z" fill="#F6F0E4"/>
<path d="M18.21 33.7609C18.2533 34.1772 18.3231 34.591 18.4025 35.0025L15.7149 35.5462C15.6186 35.0553 15.5368 34.5597 15.4839 34.0616L18.21 33.7609Z" fill="#F6F0E4"/>
<path d="M18.3447 29.7472L18.2942 30.0432C18.2774 30.1418 18.2606 30.2404 18.2509 30.3392C18.2293 30.5389 18.2004 30.7362 18.1811 30.9359L15.4502 30.6857C15.4719 30.4474 15.5055 30.2116 15.532 29.9734C15.544 29.8555 15.5633 29.7352 15.5849 29.6197L15.6451 29.2661L18.3447 29.7472Z" fill="#F6F0E4"/>
<path d="M19.6103 25.9434L19.4827 26.1984L19.4201 26.326C19.4008 26.3693 19.3816 26.4126 19.3623 26.4559L19.1361 26.9805L16.5928 25.953C16.6817 25.7437 16.7732 25.5344 16.8646 25.325C16.8886 25.2721 16.9103 25.2191 16.9344 25.1686L17.009 25.0147L17.1606 24.7067L19.6103 25.9434Z" fill="#F6F0E4"/>
<path d="M21.9129 22.659L21.7251 22.8562L21.5471 23.0631C21.4316 23.2027 21.3065 23.335 21.1958 23.4794L19.0615 21.759C19.1938 21.5881 19.3407 21.427 19.4802 21.2609C19.5499 21.1791 19.6197 21.0948 19.6919 21.0155L19.9156 20.7797L21.9129 22.659Z" fill="#F6F0E4"/>
<path d="M25.0504 20.1564C24.9011 20.2407 24.7592 20.3369 24.6124 20.4259L24.3935 20.5631L24.1818 20.7098L22.6274 18.4505L22.8801 18.2749L23.1424 18.1113C23.3179 18.003 23.4888 17.8899 23.6693 17.7888L25.0504 20.1564Z" fill="#F6F0E4"/>
<path d="M28.7681 18.6547L28.2965 18.7823C28.2195 18.8039 28.1378 18.8232 28.0607 18.8472L27.8296 18.9218L26.9971 16.3087L27.2762 16.2197C27.3677 16.1884 27.464 16.1668 27.5578 16.1403L28.1208 15.9887L28.7681 18.6547Z" fill="#F6F0E4"/>
<path d="M32.7646 18.2749L32.3051 18.2653L32.0765 18.258L31.8456 18.2653L31.7998 15.5222L32.0741 15.5174L32.3484 15.5222L32.8994 15.5367L32.7646 18.2749Z" fill="#F6F0E4"/>
<path d="M36.7038 19.0424L36.2923 18.9101L36.0878 18.8428C36.0205 18.8211 35.9482 18.8043 35.8809 18.785L36.6243 16.1454C36.7061 16.1694 36.7904 16.1887 36.8722 16.2152L37.1176 16.2946L37.6085 16.4534L36.7038 19.0424Z" fill="#F6F0E4"/>
<path d="M40.2572 20.9021L39.9252 20.6711L39.7591 20.5556L39.5884 20.4497L41.0658 18.1399L41.2702 18.2673L41.4676 18.4069L41.8645 18.6813L40.2572 20.9021Z" fill="#F6F0E4"/>
<path d="M43.1376 23.7008L42.9066 23.4024L42.6611 23.1184L44.7377 21.3283L45.0312 21.67L45.3056 22.0236L43.1376 23.7008Z" fill="#F6F0E4"/>
<path d="M45.1035 27.1923C45.0265 26.9734 44.9279 26.764 44.8364 26.5498L47.3413 25.4382C47.4519 25.6932 47.5675 25.9459 47.6589 26.2081L45.1035 27.1923Z" fill="#F6F0E4"/>
<path d="M45.9937 31.1042C45.984 30.89 45.9527 30.6807 45.9287 30.4665L48.6501 30.1249C48.679 30.3776 48.7151 30.6301 48.7296 30.8852L45.9937 31.1042Z" fill="#F6F0E4"/>
<path d="M45.7363 35.1104C45.7556 35.0141 45.782 34.9203 45.7965 34.824L45.8446 34.5353L48.5492 34.9877L48.4914 35.3319C48.4721 35.4473 48.4433 35.5604 48.4216 35.6735L45.7363 35.1104Z" fill="#F6F0E4"/>
<path d="M44.353 38.874C44.442 38.7225 44.5166 38.5637 44.5961 38.4048L47.0528 39.6198C46.959 39.8076 46.8699 40 46.7641 40.1805L44.353 38.874Z" fill="#F6F0E4"/>
<path d="M41.9517 42.0883L42.279 41.7466L44.2808 43.6187L43.891 44.0276L41.9517 42.0883Z" fill="#F6F0E4"/>
</svg>
