<svg width="277" height="46" viewBox="0 0 277 46" fill="none" xmlns="http://www.w3.org/2000/svg">
<path d="M108.714 28.3364H58.0316V13.1677H106.64V8.88155C106.64 5.08228 103.447 2.00093 99.509 2.00093H57.8732V0H108.714V28.3364ZM65.8924 26.3319H100.854C104.047 26.3319 106.64 23.8334 106.64 20.7485V15.1651H65.8924C62.6987 15.1651 60.1054 17.6636 60.1054 20.7485C60.1054 23.8334 62.6987 26.3319 65.8924 26.3319Z" fill="black"/>
<path d="M161.346 17.8804V28.3328H114.332V0.0284276H116.461V20.8942C116.461 23.869 118.958 26.2786 122.042 26.2786H154.789C157.235 26.2786 159.217 24.3665 159.217 22.0066V17.8804H161.346Z" fill="black"/>
<path d="M169.089 7.46705V12.695H210.448V14.7457H169.089V20.8942C169.089 23.869 171.59 26.2786 174.673 26.2786H217.801V28.3328H166.96V0.0284276H217.801V2.07912H174.673C171.59 2.07912 169.089 4.49232 169.089 7.46705Z" fill="black"/>
<path d="M51.46 2.08267L9.35637 23.9223C8.20708 24.5194 8.64543 26.204 9.95311 26.204H51.1985V28.3364H0V26.3284L42.1 4.48876C43.2493 3.89168 42.8109 2.20706 41.5032 2.20706H2.14018V0.0746319H51.46V2.08267Z" fill="black"/>
<path d="M277 28.3364H272.326L250.209 15.588L250.021 15.4814C241.711 20.2687 233.585 24.9565 227.728 28.3293H223.028C224 27.7678 241.689 17.5747 247.667 14.1238L223.212 0.0319851H227.883L250.069 12.8159L272.02 0.170598H276.591C270.263 3.8206 261.319 8.97042 252.36 14.1344L252.545 14.2411L277 28.3364Z" fill="black"/>
<path d="M2.09597 40.6938V41.9448C2.76271 41.362 3.26368 40.9888 3.59889 40.8218C3.93041 40.6547 4.23615 40.5694 4.51979 40.5694C4.82553 40.5694 5.10916 40.6689 5.37438 40.868C5.63592 41.067 5.76853 41.2163 5.76853 41.3193C5.76853 41.394 5.74274 41.4544 5.69117 41.5041C5.6396 41.5539 5.57699 41.5788 5.49963 41.5788C5.45911 41.5788 5.42228 41.5717 5.39649 41.5574C5.36702 41.5432 5.31545 41.5006 5.23809 41.4259C5.09443 41.2873 4.96919 41.1949 4.86605 41.1416C4.76291 41.0883 4.65608 41.0634 4.55294 41.0634C4.32824 41.0634 4.05934 41.1487 3.74255 41.3229C3.42576 41.497 2.88058 41.92 2.09966 42.5917V45.307H4.37244C4.49768 45.307 4.58978 45.3283 4.64135 45.3745C4.69292 45.4207 4.72239 45.4811 4.72239 45.5557C4.72239 45.6268 4.6966 45.6872 4.64135 45.7334C4.58978 45.7797 4.49768 45.8045 4.37244 45.8045H0.342579C0.221019 45.8045 0.13261 45.7832 0.0810398 45.737C0.0294693 45.6908 0 45.6339 0 45.5629C0 45.4953 0.0257877 45.4385 0.0773583 45.3958C0.128929 45.3496 0.217336 45.3283 0.342579 45.3283H1.58395V41.1985H0.637263C0.515704 41.1985 0.4273 41.1736 0.37573 41.1274C0.324159 41.0812 0.29469 41.0208 0.29469 40.9426C0.29469 40.8715 0.320478 40.8111 0.372048 40.7649C0.423619 40.7187 0.51202 40.6938 0.637263 40.6938H2.09597Z" fill="black"/>
<path d="M17.825 43.3665H12.5906C12.679 44.0062 12.9589 44.5251 13.4268 44.916C13.8946 45.307 14.4692 45.5024 15.1617 45.5024C15.5448 45.5024 15.9463 45.442 16.3663 45.3212C16.7862 45.2004 17.1288 45.0368 17.394 44.8378C17.4714 44.7774 17.5377 44.749 17.5966 44.749C17.6629 44.749 17.7182 44.7739 17.766 44.8236C17.8139 44.8734 17.8397 44.9302 17.8397 44.9978C17.8397 45.0653 17.8066 45.1293 17.7403 45.1932C17.545 45.3887 17.1988 45.5735 16.6978 45.7441C16.1968 45.9147 15.6848 46 15.1617 46C14.2814 46 13.5483 45.7228 12.9589 45.1648C12.3696 44.6068 12.0749 43.9351 12.0749 43.1426C12.0749 42.4246 12.3511 41.8062 12.9037 41.2909C13.4562 40.7756 14.1414 40.5161 14.9555 40.5161C15.7953 40.5161 16.4841 40.7791 17.0293 41.3087C17.5671 41.8418 17.8323 42.5242 17.825 43.3665ZM17.3056 42.8653C17.2025 42.318 16.9372 41.8738 16.5026 41.5326C16.0679 41.1914 15.5522 41.0208 14.9518 41.0208C14.3513 41.0208 13.8356 41.1914 13.4047 41.529C12.9737 41.8666 12.7048 42.3145 12.5979 42.8689H17.3056V42.8653Z" fill="black"/>
<path d="M28.8611 45.8045V45.0902C28.1133 45.6944 27.3176 46 26.4704 46C25.8552 46 25.3727 45.8507 25.0264 45.5486C24.6802 45.2465 24.507 44.8805 24.507 44.4433C24.507 43.9635 24.7354 43.5442 25.1922 43.1852C25.649 42.8262 26.3157 42.6485 27.1924 42.6485C27.4282 42.6485 27.686 42.6628 27.9623 42.6912C28.2385 42.7196 28.5406 42.7658 28.8611 42.8298V42.0266C28.8611 41.7565 28.7322 41.5184 28.4706 41.3193C28.2091 41.1203 27.8186 41.0172 27.2955 41.0172C26.8977 41.0172 26.3341 41.131 25.6121 41.3549C25.4832 41.394 25.3985 41.4153 25.3616 41.4153C25.2953 41.4153 25.2401 41.3904 25.1922 41.3442C25.1443 41.298 25.1222 41.2376 25.1222 41.1665C25.1222 41.099 25.1443 41.0457 25.1848 41.0066C25.2401 40.9462 25.4722 40.868 25.8774 40.7649C26.5146 40.6014 26.9935 40.5161 27.3213 40.5161C27.9696 40.5161 28.4743 40.6689 28.839 40.9781C29.2 41.2873 29.3841 41.6356 29.3841 42.0266V45.307H30.0693C30.1945 45.307 30.2866 45.3283 30.3382 45.3745C30.3898 45.4207 30.4192 45.4811 30.4192 45.5557C30.4192 45.6268 30.3935 45.6872 30.3382 45.7334C30.2866 45.7797 30.1945 45.8045 30.0693 45.8045H28.8611ZM28.8611 43.338C28.6216 43.2705 28.3675 43.2207 28.0986 43.1888C27.8297 43.1568 27.546 43.1426 27.2477 43.1426C26.4999 43.1426 25.9179 43.2989 25.4979 43.6081C25.1812 43.8391 25.0228 44.1164 25.0228 44.4398C25.0228 44.7383 25.1443 44.9906 25.3874 45.1932C25.6305 45.3994 25.9842 45.4989 26.4483 45.4989C26.894 45.4989 27.3066 45.4136 27.686 45.243C28.0654 45.0724 28.4596 44.7987 28.8648 44.4256V43.338H28.8611Z" fill="black"/>
<path d="M39.9782 38.3979V45.307H41.9968C42.1221 45.307 42.2142 45.3283 42.2657 45.3745C42.3173 45.4207 42.3468 45.4811 42.3468 45.5557C42.3468 45.6268 42.321 45.6872 42.2657 45.7334C42.2142 45.7797 42.1221 45.8045 41.9968 45.8045H37.4476C37.326 45.8045 37.2376 45.7797 37.186 45.7334C37.1345 45.6872 37.105 45.6268 37.105 45.5557C37.105 45.4811 37.1308 45.4207 37.186 45.3745C37.2376 45.3283 37.326 45.307 37.4476 45.307H39.4662V38.899H37.9854C37.8638 38.899 37.7754 38.8741 37.7201 38.8279C37.6649 38.7817 37.6391 38.7213 37.6391 38.6467C37.6391 38.5756 37.6649 38.5152 37.7201 38.469C37.7717 38.4228 37.8638 38.3979 37.9891 38.3979H39.9782Z" fill="black"/>
<path d="M67.1706 43.3665H61.9362C62.0246 44.0062 62.3046 44.5251 62.7724 44.916C63.2402 45.307 63.8148 45.5024 64.5074 45.5024C64.8904 45.5024 65.292 45.442 65.7119 45.3212C66.1318 45.2004 66.4744 45.0368 66.7396 44.8378C66.817 44.7774 66.8833 44.749 66.9422 44.749C67.0085 44.749 67.0638 44.7739 67.1117 44.8236C67.1596 44.8734 67.1853 44.9302 67.1853 44.9978C67.1853 45.0653 67.1522 45.1293 67.0859 45.1932C66.8906 45.3887 66.5444 45.5735 66.0434 45.7441C65.5425 45.9147 65.0304 46 64.5074 46C63.627 46 62.8939 45.7228 62.3046 45.1648C61.7152 44.6068 61.4205 43.9351 61.4205 43.1426C61.4205 42.4246 61.6968 41.8062 62.2493 41.2909C62.8018 40.7756 63.487 40.5161 64.3011 40.5161C65.1409 40.5161 65.8298 40.7791 66.3749 41.3087C66.9091 41.8418 67.178 42.5242 67.1706 43.3665ZM66.6512 42.8653C66.5481 42.318 66.2829 41.8738 65.8482 41.5326C65.4135 41.1914 64.8978 41.0208 64.2974 41.0208C63.697 41.0208 63.1813 41.1914 62.7503 41.529C62.3193 41.8666 62.0504 42.3145 61.9436 42.8689H66.6512V42.8653Z" fill="black"/>
<path d="M78.424 41.0172C78.424 40.9035 78.4498 40.8218 78.4977 40.7685C78.5456 40.7187 78.6082 40.6903 78.6819 40.6903C78.7592 40.6903 78.8219 40.7151 78.8698 40.7685C78.9176 40.8182 78.9434 40.9071 78.9434 41.0279V41.8773C78.9434 41.9946 78.9176 42.0799 78.8698 42.1296C78.8219 42.1794 78.7592 42.2078 78.6819 42.2078C78.6119 42.2078 78.553 42.1865 78.5088 42.1439C78.4609 42.1012 78.4351 42.0301 78.4277 41.9306C78.4019 41.696 78.2767 41.5006 78.0483 41.3478C77.7131 41.1274 77.2711 41.0172 76.7222 41.0172C76.1476 41.0172 75.7018 41.131 75.385 41.3549C75.1456 41.5255 75.0241 41.7138 75.0241 41.92C75.0241 42.1545 75.1677 42.3535 75.4514 42.5099C75.6466 42.6201 76.0186 42.7054 76.5638 42.7623C77.2784 42.8369 77.772 42.9222 78.0483 43.0146C78.4425 43.1532 78.7371 43.3416 78.9324 43.5868C79.1276 43.832 79.2234 44.095 79.2234 44.3794C79.2234 44.7987 79.0134 45.1755 78.5935 45.5024C78.1736 45.8294 77.5584 45.9964 76.748 45.9964C75.9376 45.9964 75.2709 45.7974 74.7552 45.3994C74.7552 45.5344 74.7478 45.6197 74.7294 45.6588C74.711 45.6979 74.6852 45.7335 74.641 45.7583C74.5968 45.7868 74.5489 45.801 74.4973 45.801C74.4236 45.801 74.3647 45.7761 74.3131 45.7228C74.2652 45.673 74.2395 45.5877 74.2395 45.4705V44.4504C74.2395 44.3332 74.2616 44.2479 74.3094 44.1981C74.3573 44.1483 74.4199 44.1199 74.4973 44.1199C74.571 44.1199 74.6336 44.1448 74.6852 44.1945C74.7367 44.2443 74.7625 44.3083 74.7625 44.3936C74.7625 44.5748 74.8104 44.7277 74.9025 44.8485C75.0462 45.0369 75.2709 45.1932 75.584 45.3176C75.8971 45.442 76.2765 45.5024 76.7296 45.5024C77.3963 45.5024 77.8936 45.3816 78.2214 45.1435C78.5493 44.9018 78.7113 44.6495 78.7113 44.3829C78.7113 44.0773 78.5456 43.8285 78.2141 43.6437C77.8789 43.4589 77.3926 43.3345 76.7554 43.2705C76.1181 43.2065 75.6613 43.1248 75.3814 43.0217C75.1051 42.9186 74.8878 42.7658 74.7331 42.5632C74.5783 42.3571 74.501 42.1368 74.501 41.9022C74.501 41.4757 74.7183 41.1416 75.1493 40.8893C75.5803 40.6405 76.096 40.5161 76.6964 40.5161C77.4 40.5161 77.9783 40.6831 78.424 41.0172Z" fill="black"/>
<path d="M88.0051 40.6938H90.7936C90.9152 40.6938 91.0036 40.7187 91.0551 40.7649C91.1067 40.8111 91.1362 40.8715 91.1362 40.9462C91.1362 41.0172 91.1104 41.0777 91.0551 41.1239C91.0036 41.1701 90.9152 41.1949 90.7936 41.1949H88.0051V44.4931C88.0051 44.781 88.123 45.0191 88.3624 45.2146C88.6018 45.4065 88.9518 45.5024 89.4122 45.5024C89.7585 45.5024 90.1342 45.4527 90.5357 45.3532C90.9409 45.2537 91.254 45.1399 91.4787 45.0155C91.5598 44.9658 91.6261 44.9373 91.6813 44.9373C91.7477 44.9373 91.8029 44.9622 91.8508 45.012C91.8987 45.0617 91.9245 45.1186 91.9245 45.1861C91.9245 45.243 91.8987 45.2998 91.8434 45.3496C91.7145 45.4776 91.3977 45.6197 90.893 45.7725C90.3884 45.9254 89.9095 46 89.4454 46C88.845 46 88.3698 45.8649 88.0162 45.5948C87.6625 45.3247 87.4857 44.9587 87.4857 44.4966V41.1985H86.539C86.4175 41.1985 86.3291 41.1736 86.2775 41.1274C86.2259 41.0812 86.1964 41.0208 86.1964 40.9426C86.1964 40.8715 86.2222 40.8111 86.2775 40.7649C86.3291 40.7187 86.4175 40.6938 86.539 40.6938H87.4857V39.2295C87.4857 39.1123 87.5115 39.027 87.5594 38.9772C87.6073 38.9274 87.6699 38.899 87.7436 38.899C87.8209 38.899 87.8835 38.9239 87.9314 38.9772C87.9793 39.027 88.0051 39.1123 88.0051 39.2295V40.6938Z" fill="black"/>
<path d="M102.872 45.8045V45.0902C102.124 45.6944 101.329 46 100.481 46C99.8663 46 99.3838 45.8507 99.0375 45.5486C98.6913 45.2465 98.5181 44.8805 98.5181 44.4433C98.5181 43.9635 98.7465 43.5442 99.2033 43.1852C99.66 42.8262 100.327 42.6485 101.203 42.6485C101.439 42.6485 101.697 42.6628 101.973 42.6912C102.25 42.7196 102.552 42.7658 102.872 42.8298V42.0266C102.872 41.7565 102.743 41.5184 102.482 41.3193C102.22 41.1203 101.83 41.0172 101.307 41.0172C100.909 41.0172 100.345 41.131 99.6232 41.3549C99.4943 41.394 99.4095 41.4153 99.3727 41.4153C99.3064 41.4153 99.2512 41.3904 99.2033 41.3442C99.1554 41.298 99.1333 41.2376 99.1333 41.1665C99.1333 41.099 99.1554 41.0457 99.1959 41.0066C99.2512 40.9462 99.4832 40.868 99.8884 40.7649C100.526 40.6014 101.005 40.5161 101.332 40.5161C101.981 40.5161 102.485 40.6689 102.85 40.9781C103.211 41.2873 103.395 41.6356 103.395 42.0266V45.307H104.08C104.206 45.307 104.298 45.3283 104.349 45.3745C104.401 45.4207 104.43 45.4811 104.43 45.5557C104.43 45.6268 104.405 45.6872 104.349 45.7334C104.298 45.7797 104.206 45.8045 104.08 45.8045H102.872ZM102.872 43.338C102.633 43.2705 102.379 43.2207 102.11 43.1888C101.841 43.1568 101.557 43.1426 101.259 43.1426C100.511 43.1426 99.9289 43.2989 99.509 43.6081C99.1922 43.8391 99.0338 44.1164 99.0338 44.4398C99.0338 44.7383 99.1554 44.9906 99.3985 45.1932C99.6416 45.3994 99.9952 45.4989 100.459 45.4989C100.905 45.4989 101.318 45.4136 101.697 45.243C102.076 45.0724 102.471 44.7987 102.876 44.4256V43.338H102.872Z" fill="black"/>
<path d="M112.678 40.6938H115.466C115.588 40.6938 115.676 40.7187 115.728 40.7649C115.78 40.8111 115.809 40.8715 115.809 40.9462C115.809 41.0172 115.783 41.0777 115.728 41.1239C115.676 41.1701 115.588 41.1949 115.466 41.1949H112.678V44.4931C112.678 44.781 112.796 45.0191 113.035 45.2146C113.275 45.4065 113.625 45.5024 114.085 45.5024C114.431 45.5024 114.807 45.4527 115.209 45.3532C115.614 45.2537 115.927 45.1399 116.152 45.0155C116.233 44.9658 116.299 44.9373 116.354 44.9373C116.42 44.9373 116.476 44.9622 116.524 45.012C116.571 45.0617 116.597 45.1186 116.597 45.1861C116.597 45.243 116.571 45.2998 116.516 45.3496C116.387 45.4776 116.071 45.6197 115.566 45.7725C115.061 45.9254 114.582 46 114.118 46C113.518 46 113.043 45.8649 112.689 45.5948C112.335 45.3247 112.159 44.9587 112.159 44.4966V41.1985H111.212C111.09 41.1985 111.002 41.1736 110.95 41.1274C110.899 41.0812 110.869 41.0208 110.869 40.9426C110.869 40.8715 110.895 40.8111 110.95 40.7649C111.002 40.7187 111.09 40.6938 111.212 40.6938H112.159V39.2295C112.159 39.1123 112.184 39.027 112.232 38.9772C112.28 38.9274 112.343 38.899 112.416 38.899C112.494 38.899 112.556 38.9239 112.604 38.9772C112.652 39.027 112.678 39.1123 112.678 39.2295V40.6938Z" fill="black"/>
<path d="M128.849 43.3665H123.615C123.703 44.0062 123.983 44.5251 124.451 44.916C124.919 45.307 125.493 45.5024 126.186 45.5024C126.569 45.5024 126.97 45.442 127.39 45.3212C127.81 45.2004 128.153 45.0368 128.418 44.8378C128.495 44.7774 128.562 44.749 128.621 44.749C128.687 44.749 128.742 44.7739 128.79 44.8236C128.838 44.8734 128.864 44.9302 128.864 44.9978C128.864 45.0653 128.831 45.1293 128.764 45.1932C128.569 45.3887 128.223 45.5735 127.722 45.7441C127.221 45.9147 126.709 46 126.186 46C125.305 46 124.572 45.7228 123.983 45.1648C123.394 44.6068 123.099 43.9351 123.099 43.1426C123.099 42.4246 123.375 41.8062 123.928 41.2909C124.48 40.7756 125.165 40.5161 125.979 40.5161C126.819 40.5161 127.508 40.7791 128.053 41.3087C128.587 41.8418 128.856 42.5242 128.849 43.3665ZM128.33 42.8653C128.226 42.318 127.961 41.8738 127.527 41.5326C127.092 41.1914 126.576 41.0208 125.976 41.0208C125.375 41.0208 124.86 41.1914 124.429 41.529C123.998 41.8666 123.729 42.3145 123.622 42.8689H128.33V42.8653Z" fill="black"/>
<path d="M151.013 40.6938V45.307H153.032C153.157 45.307 153.249 45.3283 153.301 45.3745C153.352 45.4207 153.382 45.4811 153.382 45.5557C153.382 45.6268 153.356 45.6872 153.301 45.7334C153.249 45.7797 153.157 45.8045 153.032 45.8045H148.483C148.361 45.8045 148.273 45.7797 148.221 45.7334C148.169 45.6872 148.14 45.6268 148.14 45.5557C148.14 45.4811 148.166 45.4207 148.221 45.3745C148.273 45.3283 148.361 45.307 148.483 45.307H150.501V41.1949H149.002C148.88 41.1949 148.792 41.1701 148.737 41.1239C148.682 41.0777 148.656 41.0172 148.656 40.9462C148.656 40.8715 148.682 40.8111 148.737 40.7649C148.788 40.7187 148.88 40.6938 149.006 40.6938H151.013ZM150.995 38.1527V39.4321H150.236V38.1527H150.995Z" fill="black"/>
<path d="M161.416 40.6938V41.4437C161.773 41.0954 162.097 40.8537 162.388 40.7187C162.679 40.5836 163.003 40.5197 163.368 40.5197C163.759 40.5197 164.116 40.6014 164.436 40.7613C164.665 40.8786 164.871 41.0741 165.059 41.3478C165.243 41.6214 165.339 41.9022 165.339 42.1901V45.3105H165.773C165.895 45.3105 165.983 45.3318 166.035 45.378C166.087 45.4242 166.116 45.4847 166.116 45.5593C166.116 45.6304 166.09 45.6908 166.035 45.737C165.983 45.7832 165.895 45.8081 165.773 45.8081H164.396C164.271 45.8081 164.178 45.7832 164.127 45.737C164.075 45.6908 164.046 45.6304 164.046 45.5593C164.046 45.4847 164.072 45.4242 164.127 45.378C164.178 45.3318 164.271 45.3105 164.396 45.3105H164.823V42.2718C164.823 41.9235 164.69 41.625 164.425 41.3833C164.16 41.1416 163.806 41.0208 163.361 41.0208C163.022 41.0208 162.727 41.0883 162.48 41.2198C162.234 41.3513 161.876 41.6783 161.416 42.2007V45.3105H161.998C162.119 45.3105 162.208 45.3318 162.259 45.378C162.311 45.4242 162.34 45.4847 162.34 45.5593C162.34 45.6304 162.315 45.6908 162.259 45.737C162.208 45.7832 162.119 45.8081 161.998 45.8081H160.322C160.2 45.8081 160.112 45.7832 160.06 45.737C160.009 45.6908 159.979 45.6304 159.979 45.5593C159.979 45.4847 160.005 45.4242 160.06 45.378C160.112 45.3318 160.2 45.3105 160.322 45.3105H160.904V41.1985H160.469C160.347 41.1985 160.259 41.1736 160.208 41.1274C160.156 41.0812 160.126 41.0208 160.126 40.9426C160.126 40.8715 160.152 40.8111 160.208 40.7649C160.259 40.7187 160.347 40.6938 160.469 40.6938H161.416Z" fill="black"/>
<path d="M175.863 45.8045H174.994L172.883 41.1985H172.356C172.234 41.1985 172.146 41.1736 172.095 41.1274C172.043 41.0812 172.013 41.0208 172.013 40.9426C172.013 40.8715 172.039 40.8111 172.095 40.7649C172.146 40.7187 172.234 40.6938 172.356 40.6938H174.283C174.404 40.6938 174.493 40.7187 174.544 40.7649C174.596 40.8111 174.625 40.8715 174.625 40.9462C174.625 41.0172 174.599 41.0777 174.544 41.1239C174.493 41.1701 174.404 41.1949 174.283 41.1949H173.432L175.314 45.307H175.539L177.384 41.1949H176.53C176.408 41.1949 176.32 41.1701 176.268 41.1239C176.216 41.0777 176.187 41.0172 176.187 40.939C176.187 40.868 176.213 40.8075 176.268 40.7613C176.32 40.7151 176.408 40.6903 176.53 40.6903H178.463C178.589 40.6903 178.677 40.7151 178.729 40.7613C178.78 40.8075 178.806 40.868 178.806 40.9426C178.806 41.0137 178.78 41.0741 178.729 41.1203C178.677 41.1665 178.589 41.1914 178.463 41.1914H177.944L175.863 45.8045Z" fill="black"/>
<path d="M190.527 43.3665H185.293C185.381 44.0062 185.661 44.5251 186.129 44.916C186.597 45.307 187.172 45.5024 187.864 45.5024C188.247 45.5024 188.649 45.442 189.069 45.3212C189.489 45.2004 189.831 45.0368 190.096 44.8378C190.174 44.7774 190.24 44.749 190.299 44.749C190.365 44.749 190.42 44.7739 190.468 44.8236C190.516 44.8734 190.542 44.9302 190.542 44.9978C190.542 45.0653 190.509 45.1293 190.443 45.1932C190.247 45.3887 189.901 45.5735 189.4 45.7441C188.899 45.9147 188.387 46 187.864 46C186.984 46 186.251 45.7228 185.661 45.1648C185.072 44.6068 184.777 43.9351 184.777 43.1426C184.777 42.4246 185.053 41.8062 185.606 41.2909C186.159 40.7756 186.844 40.5161 187.658 40.5161C188.498 40.5161 189.186 40.7791 189.732 41.3087C190.269 41.8418 190.535 42.5242 190.527 43.3665ZM190.008 42.8653C189.905 42.318 189.64 41.8738 189.205 41.5326C188.77 41.1914 188.255 41.0208 187.654 41.0208C187.054 41.0208 186.538 41.1914 186.107 41.529C185.676 41.8666 185.407 42.3145 185.3 42.8689H190.008V42.8653Z" fill="black"/>
<path d="M201.781 41.0172C201.781 40.9035 201.807 40.8218 201.854 40.7685C201.902 40.7187 201.965 40.6903 202.039 40.6903C202.116 40.6903 202.179 40.7151 202.226 40.7685C202.274 40.8218 202.3 40.9071 202.3 41.0279V41.8773C202.3 41.9946 202.274 42.0799 202.226 42.1296C202.179 42.1794 202.116 42.2078 202.039 42.2078C201.969 42.2078 201.91 42.1865 201.865 42.1439C201.818 42.1012 201.792 42.0301 201.784 41.9306C201.759 41.696 201.633 41.5006 201.405 41.3478C201.07 41.1274 200.628 41.0172 200.079 41.0172C199.504 41.0172 199.059 41.131 198.742 41.3549C198.502 41.5255 198.381 41.7138 198.381 41.92C198.381 42.1545 198.524 42.3535 198.808 42.5099C199.003 42.6201 199.375 42.7054 199.92 42.7623C200.635 42.8369 201.129 42.9222 201.405 43.0146C201.799 43.1532 202.094 43.3416 202.289 43.5868C202.484 43.832 202.58 44.095 202.58 44.3794C202.58 44.7987 202.37 45.1755 201.95 45.5024C201.53 45.8294 200.915 45.9964 200.105 45.9964C199.294 45.9964 198.628 45.7974 198.112 45.3994C198.112 45.5344 198.104 45.6197 198.086 45.6588C198.068 45.6979 198.042 45.7335 197.998 45.7583C197.953 45.7868 197.906 45.801 197.854 45.801C197.78 45.801 197.721 45.7761 197.67 45.7228C197.618 45.6695 197.596 45.5877 197.596 45.4705V44.4504C197.596 44.3332 197.618 44.2479 197.666 44.1981C197.714 44.1483 197.777 44.1199 197.854 44.1199C197.928 44.1199 197.99 44.1448 198.042 44.1945C198.093 44.2443 198.119 44.3083 198.119 44.3936C198.119 44.5748 198.167 44.7277 198.259 44.8485C198.403 45.0369 198.628 45.1932 198.941 45.3176C199.254 45.442 199.633 45.5024 200.086 45.5024C200.753 45.5024 201.25 45.3816 201.578 45.1435C201.906 44.9018 202.068 44.6495 202.068 44.3829C202.068 44.0773 201.902 43.8285 201.571 43.6437C201.236 43.4589 200.749 43.3345 200.112 43.2705C199.475 43.2065 199.018 43.1248 198.738 43.0217C198.462 42.9186 198.244 42.7658 198.09 42.5632C197.935 42.3571 197.858 42.1368 197.858 41.9022C197.858 41.4757 198.075 41.1416 198.506 40.8893C198.937 40.6405 199.453 40.5161 200.053 40.5161C200.76 40.5161 201.335 40.6831 201.781 41.0172Z" fill="black"/>
<path d="M211.365 40.6938H214.154C214.276 40.6938 214.364 40.7187 214.416 40.7649C214.467 40.8111 214.497 40.8715 214.497 40.9462C214.497 41.0172 214.471 41.0777 214.416 41.1239C214.364 41.1701 214.276 41.1949 214.154 41.1949H211.365V44.4931C211.365 44.781 211.483 45.0191 211.723 45.2146C211.962 45.4065 212.312 45.5024 212.773 45.5024C213.119 45.5024 213.495 45.4527 213.896 45.3532C214.301 45.2537 214.614 45.1399 214.839 45.0155C214.92 44.9658 214.986 44.9373 215.042 44.9373C215.108 44.9373 215.163 44.9622 215.211 45.012C215.259 45.0617 215.285 45.1186 215.285 45.1861C215.285 45.243 215.259 45.2998 215.204 45.3496C215.075 45.4776 214.758 45.6197 214.253 45.7725C213.749 45.9254 213.27 46 212.806 46C212.205 46 211.73 45.8649 211.377 45.5948C211.023 45.3247 210.846 44.9587 210.846 44.4966V41.1985H209.899C209.778 41.1985 209.689 41.1736 209.638 41.1274C209.586 41.0812 209.557 41.0208 209.557 40.9426C209.557 40.8715 209.583 40.8111 209.638 40.7649C209.689 40.7187 209.778 40.6938 209.899 40.6938H210.846V39.2295C210.846 39.1123 210.872 39.027 210.92 38.9772C210.968 38.9274 211.03 38.899 211.104 38.899C211.181 38.899 211.244 38.9239 211.292 38.9772C211.34 39.0305 211.365 39.1123 211.365 39.2295V40.6938Z" fill="black"/>
<path d="M222.416 41.1949C222.851 40.7436 223.289 40.5161 223.731 40.5161C223.997 40.5161 224.229 40.5836 224.428 40.7187C224.626 40.8537 224.796 41.0599 224.929 41.3371C225.157 41.0634 225.389 40.8573 225.621 40.7187C225.857 40.5836 226.093 40.5161 226.328 40.5161C226.7 40.5161 226.995 40.6334 227.216 40.8644C227.507 41.1629 227.651 41.4899 227.651 41.8418V45.3034H228.085C228.207 45.3034 228.295 45.3247 228.347 45.3709C228.398 45.4171 228.428 45.4776 228.428 45.5522C228.428 45.6233 228.402 45.6837 228.347 45.7299C228.295 45.7761 228.207 45.801 228.085 45.801H227.139V41.888C227.139 41.6356 227.058 41.4295 226.899 41.2625C226.741 41.099 226.557 41.0137 226.35 41.0137C226.163 41.0137 225.964 41.0812 225.757 41.2162C225.551 41.3513 225.312 41.6179 225.046 42.0159V45.3034H225.474C225.595 45.3034 225.684 45.3247 225.735 45.3709C225.787 45.4171 225.816 45.4776 225.816 45.5522C225.816 45.6233 225.79 45.6837 225.735 45.7299C225.684 45.7761 225.595 45.801 225.474 45.801H224.527V41.9235C224.527 41.6605 224.446 41.4437 224.288 41.2696C224.125 41.099 223.945 41.0137 223.746 41.0137C223.562 41.0137 223.381 41.0705 223.201 41.1843C222.95 41.3442 222.693 41.6214 222.42 42.0159V45.3034H222.855C222.976 45.3034 223.065 45.3247 223.116 45.3709C223.168 45.4171 223.197 45.4776 223.197 45.5522C223.197 45.6233 223.171 45.6837 223.116 45.7299C223.065 45.7761 222.976 45.801 222.855 45.801H221.473C221.352 45.801 221.263 45.7761 221.212 45.7299C221.16 45.6837 221.131 45.6233 221.131 45.5522C221.131 45.4776 221.157 45.4171 221.212 45.3709C221.263 45.3247 221.352 45.3034 221.473 45.3034H221.908V41.1914H221.473C221.352 41.1914 221.263 41.1665 221.212 41.1203C221.16 41.0741 221.131 41.0137 221.131 40.9355C221.131 40.8644 221.157 40.804 221.212 40.7578C221.263 40.7116 221.352 40.6867 221.473 40.6867H222.416V41.1949Z" fill="black"/>
<path d="M239.869 43.3665H234.635C234.723 44.0062 235.003 44.5251 235.471 44.916C235.939 45.307 236.513 45.5024 237.206 45.5024C237.589 45.5024 237.991 45.442 238.411 45.3212C238.83 45.2004 239.173 45.0368 239.438 44.8378C239.516 44.7774 239.582 44.749 239.641 44.749C239.707 44.749 239.762 44.7739 239.81 44.8236C239.858 44.8734 239.884 44.9302 239.884 44.9978C239.884 45.0653 239.851 45.1293 239.785 45.1932C239.589 45.3887 239.243 45.5735 238.742 45.7441C238.241 45.9147 237.729 46 237.206 46C236.326 46 235.593 45.7228 235.003 45.1648C234.414 44.6068 234.119 43.9351 234.119 43.1426C234.119 42.4246 234.395 41.8062 234.948 41.2909C235.5 40.7756 236.186 40.5161 237 40.5161C237.84 40.5161 238.528 40.7791 239.074 41.3087C239.611 41.8418 239.877 42.5242 239.869 43.3665ZM239.35 42.8653C239.247 42.318 238.981 41.8738 238.547 41.5326C238.112 41.1914 237.596 41.0208 236.996 41.0208C236.396 41.0208 235.88 41.1914 235.449 41.529C235.018 41.8666 234.749 42.3145 234.642 42.8689H239.35V42.8653Z" fill="black"/>
<path d="M247.767 40.6938V41.4437C248.124 41.0954 248.448 40.8537 248.739 40.7187C249.03 40.5836 249.355 40.5197 249.719 40.5197C250.11 40.5197 250.467 40.6014 250.787 40.7613C251.016 40.8786 251.222 41.0741 251.41 41.3478C251.594 41.6214 251.69 41.9022 251.69 42.1901V45.3105H252.125C252.246 45.3105 252.335 45.3318 252.386 45.378C252.438 45.4242 252.467 45.4847 252.467 45.5593C252.467 45.6304 252.441 45.6908 252.386 45.737C252.335 45.7832 252.246 45.8081 252.125 45.8081H250.747C250.622 45.8081 250.53 45.7832 250.478 45.737C250.426 45.6908 250.397 45.6304 250.397 45.5593C250.397 45.4847 250.423 45.4242 250.478 45.378C250.53 45.3318 250.622 45.3105 250.747 45.3105H251.174V42.2718C251.174 41.9235 251.042 41.625 250.776 41.3833C250.511 41.1416 250.158 41.0208 249.712 41.0208C249.373 41.0208 249.078 41.0883 248.831 41.2198C248.581 41.3513 248.227 41.6783 247.767 42.2007V45.3105H248.349C248.47 45.3105 248.559 45.3318 248.61 45.378C248.662 45.4242 248.691 45.4847 248.691 45.5593C248.691 45.6304 248.666 45.6908 248.61 45.737C248.559 45.7832 248.47 45.8081 248.349 45.8081H246.673C246.551 45.8081 246.463 45.7832 246.411 45.737C246.36 45.6908 246.33 45.6304 246.33 45.5593C246.33 45.4847 246.356 45.4242 246.411 45.378C246.463 45.3318 246.551 45.3105 246.673 45.3105H247.255V41.1985H246.82C246.699 41.1985 246.61 41.1736 246.559 41.1274C246.507 41.0812 246.478 41.0208 246.478 40.9426C246.478 40.8715 246.503 40.8111 246.559 40.7649C246.61 40.7187 246.699 40.6938 246.82 40.6938H247.767Z" fill="black"/>
<path d="M260.707 40.6938H263.496C263.617 40.6938 263.706 40.7187 263.757 40.7649C263.809 40.8111 263.838 40.8715 263.838 40.9462C263.838 41.0172 263.813 41.0777 263.757 41.1239C263.706 41.1701 263.617 41.1949 263.496 41.1949H260.707V44.4931C260.707 44.781 260.825 45.0191 261.065 45.2146C261.304 45.4065 261.654 45.5024 262.115 45.5024C262.461 45.5024 262.837 45.4527 263.238 45.3532C263.643 45.2537 263.956 45.1399 264.181 45.0155C264.262 44.9658 264.328 44.9373 264.384 44.9373C264.45 44.9373 264.505 44.9622 264.553 45.012C264.601 45.0617 264.627 45.1186 264.627 45.1861C264.627 45.243 264.601 45.2998 264.546 45.3496C264.417 45.4776 264.1 45.6197 263.595 45.7725C263.091 45.9254 262.612 46 262.148 46C261.547 46 261.072 45.8649 260.718 45.5948C260.365 45.3247 260.188 44.9587 260.188 44.4966V41.1985H259.241C259.12 41.1985 259.031 41.1736 258.98 41.1274C258.928 41.0812 258.899 41.0208 258.899 40.9426C258.899 40.8715 258.925 40.8111 258.98 40.7649C259.031 40.7187 259.12 40.6938 259.241 40.6938H260.188V39.2295C260.188 39.1123 260.214 39.027 260.262 38.9772C260.31 38.9274 260.372 38.899 260.446 38.899C260.523 38.899 260.586 38.9239 260.634 38.9772C260.682 39.027 260.707 39.1123 260.707 39.2295V40.6938Z" fill="black"/>
<path d="M275.795 41.0172C275.795 40.9035 275.821 40.8218 275.869 40.7685C275.917 40.7187 275.98 40.6903 276.053 40.6903C276.131 40.6903 276.193 40.7151 276.241 40.7685C276.289 40.8218 276.315 40.9071 276.315 41.0279V41.8773C276.315 41.9946 276.289 42.0799 276.241 42.1296C276.193 42.1794 276.131 42.2078 276.053 42.2078C275.983 42.2078 275.924 42.1865 275.88 42.1439C275.832 42.1012 275.807 42.0301 275.799 41.9306C275.773 41.696 275.648 41.5006 275.42 41.3478C275.085 41.1274 274.643 41.0172 274.094 41.0172C273.519 41.0172 273.073 41.131 272.757 41.3549C272.517 41.5255 272.396 41.7138 272.396 41.92C272.396 42.1545 272.539 42.3535 272.823 42.5099C273.018 42.6201 273.39 42.7054 273.935 42.7623C274.65 42.8369 275.143 42.9222 275.42 43.0146C275.814 43.1532 276.109 43.3416 276.304 43.5868C276.499 43.832 276.595 44.095 276.595 44.3794C276.595 44.7987 276.385 45.1755 275.965 45.5024C275.545 45.8294 274.93 45.9964 274.119 45.9964C273.309 45.9964 272.642 45.7974 272.127 45.3994C272.127 45.5344 272.119 45.6197 272.101 45.6588C272.082 45.6979 272.057 45.7335 272.012 45.7583C271.968 45.7868 271.92 45.801 271.869 45.801C271.795 45.801 271.736 45.7761 271.685 45.7228C271.637 45.673 271.611 45.5877 271.611 45.4705V44.4504C271.611 44.3332 271.633 44.2479 271.681 44.1981C271.729 44.1483 271.791 44.1199 271.869 44.1199C271.942 44.1199 272.005 44.1448 272.057 44.1945C272.108 44.2443 272.134 44.3083 272.134 44.3936C272.134 44.5748 272.182 44.7277 272.274 44.8485C272.418 45.0369 272.642 45.1932 272.955 45.3176C273.269 45.442 273.648 45.5024 274.101 45.5024C274.768 45.5024 275.265 45.3816 275.593 45.1435C275.921 44.9018 276.083 44.6495 276.083 44.3829C276.083 44.0773 275.917 43.8285 275.586 43.6437C275.25 43.4589 274.764 43.3345 274.127 43.2705C273.49 43.2065 273.033 43.1248 272.753 43.0217C272.477 42.9186 272.259 42.7658 272.104 42.5632C271.95 42.3571 271.872 42.1368 271.872 41.9022C271.872 41.4757 272.09 41.1416 272.521 40.8893C272.952 40.6405 273.467 40.5161 274.068 40.5161C274.775 40.5161 275.35 40.6831 275.795 41.0172Z" fill="black"/>
</svg>
