<svg width="1101" height="185" viewBox="0 0 1101 185" fill="none" xmlns="http://www.w3.org/2000/svg">
<path d="M423.255 102.873H239.919V47.8046H415.754V32.2439C415.754 18.4509 404.201 7.26424 389.957 7.26424H239.346V0H423.255V102.873ZM268.354 95.5964H394.82C406.373 95.5964 415.754 86.5257 415.754 75.3261V55.0559H268.354C256.802 55.0559 247.421 64.1266 247.421 75.3261C247.421 86.5257 256.802 95.5964 268.354 95.5964Z" fill="black"/>
<path d="M613.641 64.9136V102.861H443.576V0.103205H451.278V75.8551C451.278 86.6547 460.312 95.4028 471.465 95.4028H589.922C598.77 95.4028 605.939 88.4611 605.939 79.8937V64.9136H613.641Z" fill="black"/>
<path d="M641.649 27.1086V46.0885H791.26V53.5334H641.649V75.8551C641.649 86.6547 650.697 95.4028 661.85 95.4028H817.857V102.861H633.948V0.103205H817.857V7.5481H661.85C650.697 7.5481 641.649 16.3091 641.649 27.1086Z" fill="black"/>
<path d="M216.148 7.56098L63.8451 86.8483C59.6877 89.0159 61.2734 95.1318 66.0037 95.1318H215.202V102.873H30V95.5834L182.289 16.2962C186.447 14.1285 184.861 8.01258 180.131 8.01258H37.7417V0.270946H216.148V7.56098Z" fill="black"/>
<path d="M1032 102.873H1015.09L935.089 56.5913L934.409 56.2043C904.348 73.5843 874.954 90.603 853.767 102.848H836.765C840.282 100.809 904.268 63.804 925.894 51.2754L837.431 0.11612H854.327L934.582 46.5272L1013.98 0.619345H1030.52C1007.63 13.8704 975.276 32.5665 942.87 51.3142L943.537 51.7012L1032 102.873Z" fill="black"/>
<path d="M37.3396 150.203V155.172C39.9021 152.859 41.8162 151.375 43.0818 150.719C44.363 150.047 45.5427 149.711 46.6208 149.711C47.7927 149.711 48.8787 150.109 49.8787 150.906C50.8943 151.688 51.4021 152.281 51.4021 152.688C51.4021 152.984 51.3005 153.234 51.0974 153.438C50.9099 153.625 50.6677 153.719 50.3708 153.719C50.2146 153.719 50.0818 153.695 49.9724 153.648C49.863 153.586 49.6599 153.406 49.363 153.109C48.8162 152.563 48.3396 152.188 47.9333 151.984C47.5271 151.781 47.1287 151.68 46.738 151.68C45.8787 151.68 44.8396 152.023 43.6208 152.711C42.4177 153.398 40.324 155.078 37.3396 157.75V168.531H46.0583C46.5427 168.531 46.8865 168.625 47.0896 168.813C47.2927 168.984 47.3943 169.219 47.3943 169.516C47.3943 169.797 47.2927 170.031 47.0896 170.219C46.8865 170.406 46.5427 170.5 46.0583 170.5H30.613C30.1443 170.5 29.8083 170.414 29.6052 170.242C29.4021 170.055 29.3005 169.82 29.3005 169.539C29.3005 169.273 29.3943 169.055 29.5818 168.883C29.7849 168.695 30.1287 168.602 30.613 168.602H35.3708V152.195H31.738C31.2693 152.195 30.9333 152.102 30.7302 151.914C30.5271 151.727 30.4255 151.484 30.4255 151.188C30.4255 150.906 30.5193 150.672 30.7068 150.484C30.9099 150.297 31.2537 150.203 31.738 150.203H37.3396ZM91.1755 160.82H71.113C71.4568 163.367 72.5193 165.422 74.3005 166.984C76.0974 168.531 78.3162 169.305 80.9568 169.305C82.4255 169.305 83.9646 169.063 85.574 168.578C87.1833 168.094 88.4958 167.453 89.5115 166.656C89.8083 166.422 90.0662 166.305 90.2849 166.305C90.5349 166.305 90.7537 166.406 90.9412 166.609C91.1287 166.797 91.2224 167.023 91.2224 167.289C91.2224 167.555 91.0974 167.813 90.8474 168.063C90.0974 168.844 88.7615 169.578 86.8396 170.266C84.9333 170.938 82.9724 171.273 80.9568 171.273C77.5818 171.273 74.7615 170.172 72.4958 167.969C70.2458 165.75 69.1208 163.07 69.1208 159.93C69.1208 157.07 70.1755 154.617 72.2849 152.57C74.4099 150.523 77.0349 149.5 80.1599 149.5C83.3787 149.5 86.0271 150.555 88.1052 152.664C90.1833 154.758 91.2068 157.477 91.1755 160.82ZM89.1833 158.828C88.7927 156.656 87.7615 154.891 86.0896 153.531C84.4333 152.172 82.4568 151.492 80.1599 151.492C77.863 151.492 75.8865 152.164 74.2302 153.508C72.574 154.852 71.5427 156.625 71.1365 158.828H89.1833ZM127.011 170.5V167.664C124.152 170.07 121.097 171.273 117.847 171.273C115.488 171.273 113.644 170.68 112.316 169.492C110.988 168.289 110.324 166.82 110.324 165.086C110.324 163.18 111.199 161.516 112.949 160.094C114.699 158.672 117.254 157.961 120.613 157.961C121.519 157.961 122.504 158.023 123.566 158.148C124.629 158.258 125.777 158.438 127.011 158.688V155.5C127.011 154.422 126.511 153.484 125.511 152.688C124.511 151.891 123.011 151.492 121.011 151.492C119.48 151.492 117.332 151.938 114.566 152.828C114.066 152.984 113.746 153.063 113.605 153.063C113.355 153.063 113.136 152.969 112.949 152.781C112.777 152.594 112.691 152.359 112.691 152.078C112.691 151.813 112.769 151.602 112.926 151.445C113.144 151.211 114.027 150.891 115.574 150.484C118.011 149.828 119.855 149.5 121.105 149.5C123.59 149.5 125.527 150.117 126.918 151.352C128.308 152.57 129.004 153.953 129.004 155.5V168.531H131.629C132.113 168.531 132.457 168.625 132.66 168.813C132.863 168.984 132.965 169.219 132.965 169.516C132.965 169.797 132.863 170.031 132.66 170.219C132.457 170.406 132.113 170.5 131.629 170.5H127.011ZM127.011 160.703C126.09 160.438 125.113 160.242 124.082 160.117C123.051 159.992 121.965 159.93 120.824 159.93C117.965 159.93 115.73 160.547 114.121 161.781C112.902 162.703 112.293 163.805 112.293 165.086C112.293 166.273 112.754 167.273 113.676 168.086C114.613 168.898 115.972 169.305 117.754 169.305C119.457 169.305 121.035 168.969 122.488 168.297C123.957 167.609 125.465 166.523 127.011 165.039L127.011 160.703ZM163.176 141.086V168.531H170.91C171.394 168.531 171.738 168.625 171.941 168.813C172.144 168.984 172.246 169.219 172.246 169.516C172.246 169.797 172.144 170.031 171.941 170.219C171.738 170.406 171.394 170.5 170.91 170.5H153.472C153.004 170.5 152.668 170.406 152.465 170.219C152.261 170.031 152.16 169.797 152.16 169.516C152.16 169.219 152.261 168.984 152.465 168.813C152.668 168.625 153.004 168.531 153.472 168.531H161.207V143.078H155.535C155.066 143.078 154.722 142.984 154.504 142.797C154.301 142.609 154.199 142.367 154.199 142.07C154.199 141.789 154.301 141.555 154.504 141.367C154.707 141.18 155.051 141.086 155.535 141.086H163.176ZM254.488 160.82L234.426 160.82C234.769 163.367 235.832 165.422 237.613 166.984C239.41 168.531 241.629 169.305 244.269 169.305C245.738 169.305 247.277 169.063 248.886 168.578C250.496 168.094 251.808 167.453 252.824 166.656C253.121 166.422 253.379 166.305 253.597 166.305C253.847 166.305 254.066 166.406 254.254 166.609C254.441 166.797 254.535 167.023 254.535 167.289C254.535 167.555 254.41 167.813 254.16 168.063C253.41 168.844 252.074 169.578 250.152 170.266C248.246 170.938 246.285 171.273 244.269 171.273C240.894 171.273 238.074 170.172 235.808 167.969C233.558 165.75 232.433 163.07 232.433 159.93C232.433 157.07 233.488 154.617 235.597 152.57C237.722 150.523 240.347 149.5 243.472 149.5C246.691 149.5 249.34 150.555 251.418 152.664C253.496 154.758 254.519 157.477 254.488 160.82ZM252.496 158.828C252.105 156.656 251.074 154.891 249.402 153.531C247.746 152.172 245.769 151.492 243.472 151.492C241.176 151.492 239.199 152.164 237.543 153.508C235.886 154.852 234.855 156.625 234.449 158.828L252.496 158.828ZM291.168 151.492C291.168 151.039 291.261 150.711 291.449 150.508C291.636 150.305 291.871 150.203 292.152 150.203C292.449 150.203 292.691 150.305 292.879 150.508C293.066 150.711 293.16 151.055 293.16 151.539V154.914C293.16 155.383 293.066 155.719 292.879 155.922C292.691 156.125 292.449 156.227 292.152 156.227C291.886 156.227 291.66 156.141 291.472 155.969C291.301 155.797 291.199 155.516 291.168 155.125C291.074 154.188 290.59 153.414 289.715 152.805C288.433 151.93 286.738 151.492 284.629 151.492C282.426 151.492 280.715 151.938 279.496 152.828C278.574 153.5 278.113 154.25 278.113 155.078C278.113 156.016 278.66 156.797 279.754 157.422C280.504 157.859 281.926 158.195 284.019 158.43C286.754 158.727 288.652 159.063 289.715 159.438C291.23 159.984 292.355 160.742 293.09 161.711C293.84 162.68 294.215 163.727 294.215 164.852C294.215 166.523 293.41 168.016 291.801 169.328C290.191 170.625 287.832 171.273 284.722 171.273C281.613 171.273 279.066 170.484 277.082 168.906C277.082 169.438 277.051 169.781 276.988 169.938C276.926 170.094 276.808 170.227 276.636 170.336C276.48 170.445 276.301 170.5 276.097 170.5C275.816 170.5 275.582 170.398 275.394 170.195C275.207 169.992 275.113 169.656 275.113 169.188V165.133C275.113 164.664 275.199 164.328 275.371 164.125C275.558 163.922 275.801 163.82 276.097 163.82C276.379 163.82 276.613 163.922 276.801 164.125C277.004 164.313 277.105 164.57 277.105 164.898C277.105 165.617 277.285 166.219 277.644 166.703C278.191 167.453 279.058 168.078 280.246 168.578C281.449 169.063 282.918 169.305 284.652 169.305C287.215 169.305 289.121 168.828 290.371 167.875C291.621 166.922 292.246 165.914 292.246 164.852C292.246 163.633 291.613 162.656 290.347 161.922C289.066 161.188 287.199 160.695 284.746 160.445C282.308 160.195 280.558 159.867 279.496 159.461C278.433 159.055 277.605 158.445 277.011 157.633C276.418 156.82 276.121 155.945 276.121 155.008C276.121 153.32 276.949 151.984 278.605 151C280.261 150 282.238 149.5 284.535 149.5C287.254 149.5 289.465 150.164 291.168 151.492ZM321.449 150.203H332.136C332.605 150.203 332.941 150.297 333.144 150.484C333.347 150.672 333.449 150.914 333.449 151.211C333.449 151.492 333.347 151.727 333.144 151.914C332.941 152.102 332.605 152.195 332.136 152.195H321.449V165.297C321.449 166.438 321.902 167.391 322.808 168.156C323.73 168.922 325.074 169.305 326.84 169.305C328.168 169.305 329.605 169.109 331.152 168.719C332.699 168.313 333.902 167.859 334.761 167.359C335.074 167.156 335.332 167.055 335.535 167.055C335.785 167.055 336.004 167.156 336.191 167.359C336.379 167.547 336.472 167.773 336.472 168.039C336.472 168.273 336.371 168.492 336.168 168.695C335.668 169.211 334.449 169.773 332.511 170.383C330.59 170.977 328.746 171.273 326.98 171.273C324.683 171.273 322.855 170.734 321.496 169.656C320.136 168.578 319.457 167.125 319.457 165.297V152.195H315.824C315.355 152.195 315.019 152.102 314.816 151.914C314.613 151.727 314.511 151.484 314.511 151.188C314.511 150.906 314.613 150.672 314.816 150.484C315.019 150.297 315.355 150.203 315.824 150.203H319.457V144.391C319.457 143.922 319.551 143.586 319.738 143.383C319.926 143.18 320.16 143.078 320.441 143.078C320.738 143.078 320.98 143.18 321.168 143.383C321.355 143.586 321.449 143.922 321.449 144.391V150.203ZM371.98 170.5V167.664C369.121 170.07 366.066 171.273 362.816 171.273C360.457 171.273 358.613 170.68 357.285 169.492C355.957 168.289 355.293 166.82 355.293 165.086C355.293 163.18 356.168 161.516 357.918 160.094C359.668 158.672 362.222 157.961 365.582 157.961C366.488 157.961 367.472 158.023 368.535 158.148C369.597 158.258 370.746 158.438 371.98 158.688V155.5C371.98 154.422 371.48 153.484 370.48 152.688C369.48 151.891 367.98 151.492 365.98 151.492C364.449 151.492 362.301 151.938 359.535 152.828C359.035 152.984 358.715 153.063 358.574 153.063C358.324 153.063 358.105 152.969 357.918 152.781C357.746 152.594 357.66 152.359 357.66 152.078C357.66 151.813 357.738 151.602 357.894 151.445C358.113 151.211 358.996 150.891 360.543 150.484C362.98 149.828 364.824 149.5 366.074 149.5C368.558 149.5 370.496 150.117 371.886 151.352C373.277 152.57 373.972 153.953 373.972 155.5V168.531H376.597C377.082 168.531 377.426 168.625 377.629 168.813C377.832 168.984 377.933 169.219 377.933 169.516C377.933 169.797 377.832 170.031 377.629 170.219C377.426 170.406 377.082 170.5 376.597 170.5H371.98ZM371.98 160.703C371.058 160.438 370.082 160.242 369.051 160.117C368.019 159.992 366.933 159.93 365.793 159.93C362.933 159.93 360.699 160.547 359.09 161.781C357.871 162.703 357.261 163.805 357.261 165.086C357.261 166.273 357.722 167.273 358.644 168.086C359.582 168.898 360.941 169.305 362.722 169.305C364.426 169.305 366.004 168.969 367.457 168.297C368.926 167.609 370.433 166.523 371.98 165.039V160.703ZM403.105 150.203H413.793C414.261 150.203 414.597 150.297 414.801 150.484C415.004 150.672 415.105 150.914 415.105 151.211C415.105 151.492 415.004 151.727 414.801 151.914C414.597 152.102 414.261 152.195 413.793 152.195H403.105V165.297C403.105 166.438 403.558 167.391 404.465 168.156C405.386 168.922 406.73 169.305 408.496 169.305C409.824 169.305 411.261 169.109 412.808 168.719C414.355 168.313 415.558 167.859 416.418 167.359C416.73 167.156 416.988 167.055 417.191 167.055C417.441 167.055 417.66 167.156 417.847 167.359C418.035 167.547 418.129 167.773 418.129 168.039C418.129 168.273 418.027 168.492 417.824 168.695C417.324 169.211 416.105 169.773 414.168 170.383C412.246 170.977 410.402 171.273 408.636 171.273C406.34 171.273 404.511 170.734 403.152 169.656C401.793 168.578 401.113 167.125 401.113 165.297V152.195H397.48C397.011 152.195 396.676 152.102 396.472 151.914C396.269 151.727 396.168 151.484 396.168 151.188C396.168 150.906 396.269 150.672 396.472 150.484C396.676 150.297 397.011 150.203 397.48 150.203H401.113V144.391C401.113 143.922 401.207 143.586 401.394 143.383C401.582 143.18 401.816 143.078 402.097 143.078C402.394 143.078 402.636 143.18 402.824 143.383C403.011 143.586 403.105 143.922 403.105 144.391V150.203ZM458.629 160.82H438.566C438.91 163.367 439.972 165.422 441.754 166.984C443.551 168.531 445.769 169.305 448.41 169.305C449.879 169.305 451.418 169.063 453.027 168.578C454.636 168.094 455.949 167.453 456.965 166.656C457.261 166.422 457.519 166.305 457.738 166.305C457.988 166.305 458.207 166.406 458.394 166.609C458.582 166.797 458.676 167.023 458.676 167.289C458.676 167.555 458.551 167.813 458.301 168.063C457.551 168.844 456.215 169.578 454.293 170.266C452.386 170.938 450.426 171.273 448.41 171.273C445.035 171.273 442.215 170.172 439.949 167.969C437.699 165.75 436.574 163.07 436.574 159.93C436.574 157.07 437.629 154.617 439.738 152.57C441.863 150.523 444.488 149.5 447.613 149.5C450.832 149.5 453.48 150.555 455.558 152.664C457.636 154.758 458.66 157.477 458.629 160.82ZM456.636 158.828C456.246 156.656 455.215 154.891 453.543 153.531C451.886 152.172 449.91 151.492 447.613 151.492C445.316 151.492 443.34 152.164 441.683 153.508C440.027 154.852 438.996 156.625 438.59 158.828H456.636ZM522.215 141.086V154.141C524.59 151.047 527.457 149.5 530.816 149.5C533.691 149.5 536.152 150.547 538.199 152.641C540.246 154.719 541.269 157.273 541.269 160.305C541.269 163.367 540.23 165.961 538.152 168.086C536.09 170.211 533.644 171.273 530.816 171.273C527.379 171.273 524.511 169.727 522.215 166.633V170.5H517.597C517.129 170.5 516.793 170.406 516.59 170.219C516.386 170.031 516.285 169.797 516.285 169.516C516.285 169.219 516.386 168.984 516.59 168.813C516.793 168.625 517.129 168.531 517.597 168.531H520.246V143.078H517.597C517.129 143.078 516.793 142.984 516.59 142.797C516.386 142.609 516.285 142.367 516.285 142.07C516.285 141.789 516.386 141.555 516.59 141.367C516.793 141.18 517.129 141.086 517.597 141.086H522.215ZM539.301 160.398C539.301 157.914 538.449 155.813 536.746 154.094C535.043 152.359 533.051 151.492 530.769 151.492C528.488 151.492 526.496 152.359 524.793 154.094C523.09 155.813 522.238 157.914 522.238 160.398C522.238 162.883 523.09 164.992 524.793 166.727C526.496 168.445 528.488 169.305 530.769 169.305C533.051 169.305 535.043 168.445 536.746 166.727C538.449 164.992 539.301 162.883 539.301 160.398ZM568.105 150.203V155.172C570.668 152.859 572.582 151.375 573.847 150.719C575.129 150.047 576.308 149.711 577.386 149.711C578.558 149.711 579.644 150.109 580.644 150.906C581.66 151.688 582.168 152.281 582.168 152.688C582.168 152.984 582.066 153.234 581.863 153.438C581.676 153.625 581.433 153.719 581.136 153.719C580.98 153.719 580.847 153.695 580.738 153.648C580.629 153.586 580.426 153.406 580.129 153.109C579.582 152.563 579.105 152.188 578.699 151.984C578.293 151.781 577.894 151.68 577.504 151.68C576.644 151.68 575.605 152.023 574.386 152.711C573.183 153.398 571.09 155.078 568.105 157.75V168.531H576.824C577.308 168.531 577.652 168.625 577.855 168.813C578.058 168.984 578.16 169.219 578.16 169.516C578.16 169.797 578.058 170.031 577.855 170.219C577.652 170.406 577.308 170.5 576.824 170.5H561.379C560.91 170.5 560.574 170.414 560.371 170.242C560.168 170.055 560.066 169.82 560.066 169.539C560.066 169.273 560.16 169.055 560.347 168.883C560.551 168.695 560.894 168.602 561.379 168.602H566.136V152.195H562.504C562.035 152.195 561.699 152.102 561.496 151.914C561.293 151.727 561.191 151.484 561.191 151.188C561.191 150.906 561.285 150.672 561.472 150.484C561.676 150.297 562.019 150.203 562.504 150.203H568.105ZM622.293 160.398C622.293 163.398 621.215 165.961 619.058 168.086C616.918 170.211 614.332 171.273 611.301 171.273C608.238 171.273 605.636 170.211 603.496 168.086C601.355 165.945 600.285 163.383 600.285 160.398C600.285 157.398 601.355 154.836 603.496 152.711C605.636 150.57 608.238 149.5 611.301 149.5C614.332 149.5 616.918 150.563 619.058 152.688C621.215 154.813 622.293 157.383 622.293 160.398ZM620.301 160.398C620.301 157.93 619.418 155.828 617.652 154.094C615.902 152.359 613.777 151.492 611.277 151.492C608.777 151.492 606.644 152.367 604.879 154.117C603.129 155.852 602.254 157.945 602.254 160.398C602.254 162.836 603.129 164.93 604.879 166.68C606.644 168.43 608.777 169.305 611.277 169.305C613.777 169.305 615.902 168.438 617.652 166.703C619.418 164.953 620.301 162.852 620.301 160.398ZM648.121 161.734V170.5H643.504C643.035 170.5 642.699 170.406 642.496 170.219C642.293 170.031 642.191 169.797 642.191 169.516C642.191 169.219 642.293 168.984 642.496 168.813C642.699 168.625 643.035 168.531 643.504 168.531H646.152V143.078H643.504C643.035 143.078 642.699 142.984 642.496 142.797C642.293 142.609 642.191 142.367 642.191 142.07C642.191 141.789 642.293 141.555 642.496 141.367C642.699 141.18 643.035 141.086 643.504 141.086H648.121V159.227L656.488 152.195H655.48C655.011 152.195 654.676 152.102 654.472 151.914C654.269 151.727 654.168 151.492 654.168 151.211C654.168 150.914 654.269 150.672 654.472 150.484C654.676 150.297 655.011 150.203 655.48 150.203H661.785C662.269 150.203 662.613 150.297 662.816 150.484C663.019 150.672 663.121 150.914 663.121 151.211C663.121 151.492 663.019 151.727 662.816 151.914C662.613 152.102 662.269 152.195 661.785 152.195H659.511L651.824 158.617L661.551 168.531H663.824C664.308 168.531 664.652 168.625 664.855 168.813C665.058 168.984 665.16 169.219 665.16 169.516C665.16 169.797 665.058 170.031 664.855 170.219C664.652 170.406 664.308 170.5 663.824 170.5H657.449C656.98 170.5 656.644 170.406 656.441 170.219C656.238 170.031 656.136 169.797 656.136 169.516C656.136 169.219 656.238 168.984 656.441 168.813C656.644 168.625 656.98 168.531 657.449 168.531H658.832L650.371 159.836L648.121 161.734ZM703.597 160.82H683.535C683.879 163.367 684.941 165.422 686.722 166.984C688.519 168.531 690.738 169.305 693.379 169.305C694.847 169.305 696.386 169.063 697.996 168.578C699.605 168.094 700.918 167.453 701.933 166.656C702.23 166.422 702.488 166.305 702.707 166.305C702.957 166.305 703.176 166.406 703.363 166.609C703.551 166.797 703.644 167.023 703.644 167.289C703.644 167.555 703.519 167.813 703.269 168.063C702.519 168.844 701.183 169.578 699.261 170.266C697.355 170.938 695.394 171.273 693.379 171.273C690.004 171.273 687.183 170.172 684.918 167.969C682.668 165.75 681.543 163.07 681.543 159.93C681.543 157.07 682.597 154.617 684.707 152.57C686.832 150.523 689.457 149.5 692.582 149.5C695.801 149.5 698.449 150.555 700.527 152.664C702.605 154.758 703.629 157.477 703.597 160.82ZM701.605 158.828C701.215 156.656 700.183 154.891 698.511 153.531C696.855 152.172 694.879 151.492 692.582 151.492C690.285 151.492 688.308 152.164 686.652 153.508C684.996 154.852 683.965 156.625 683.558 158.828H701.605ZM731.418 150.203V155.172C733.98 152.859 735.894 151.375 737.16 150.719C738.441 150.047 739.621 149.711 740.699 149.711C741.871 149.711 742.957 150.109 743.957 150.906C744.972 151.688 745.48 152.281 745.48 152.688C745.48 152.984 745.379 153.234 745.176 153.438C744.988 153.625 744.746 153.719 744.449 153.719C744.293 153.719 744.16 153.695 744.051 153.648C743.941 153.586 743.738 153.406 743.441 153.109C742.894 152.563 742.418 152.188 742.011 151.984C741.605 151.781 741.207 151.68 740.816 151.68C739.957 151.68 738.918 152.023 737.699 152.711C736.496 153.398 734.402 155.078 731.418 157.75V168.531H740.136C740.621 168.531 740.965 168.625 741.168 168.813C741.371 168.984 741.472 169.219 741.472 169.516C741.472 169.797 741.371 170.031 741.168 170.219C740.965 170.406 740.621 170.5 740.136 170.5H724.691C724.222 170.5 723.886 170.414 723.683 170.242C723.48 170.055 723.379 169.82 723.379 169.539C723.379 169.273 723.472 169.055 723.66 168.883C723.863 168.695 724.207 168.602 724.691 168.602H729.449V152.195H725.816C725.347 152.195 725.011 152.102 724.808 151.914C724.605 151.727 724.504 151.484 724.504 151.188C724.504 150.906 724.597 150.672 724.785 150.484C724.988 150.297 725.332 150.203 725.816 150.203H731.418ZM780.261 170.5V167.664C777.402 170.07 774.347 171.273 771.097 171.273C768.738 171.273 766.894 170.68 765.566 169.492C764.238 168.289 763.574 166.82 763.574 165.086C763.574 163.18 764.449 161.516 766.199 160.094C767.949 158.672 770.504 157.961 773.863 157.961C774.769 157.961 775.754 158.023 776.816 158.148C777.879 158.258 779.027 158.438 780.261 158.688V155.5C780.261 154.422 779.761 153.484 778.761 152.688C777.761 151.891 776.261 151.492 774.261 151.492C772.73 151.492 770.582 151.938 767.816 152.828C767.316 152.984 766.996 153.063 766.855 153.063C766.605 153.063 766.386 152.969 766.199 152.781C766.027 152.594 765.941 152.359 765.941 152.078C765.941 151.813 766.019 151.602 766.176 151.445C766.394 151.211 767.277 150.891 768.824 150.484C771.261 149.828 773.105 149.5 774.355 149.5C776.84 149.5 778.777 150.117 780.168 151.352C781.558 152.57 782.254 153.953 782.254 155.5V168.531H784.879C785.363 168.531 785.707 168.625 785.91 168.813C786.113 168.984 786.215 169.219 786.215 169.516C786.215 169.797 786.113 170.031 785.91 170.219C785.707 170.406 785.363 170.5 784.879 170.5H780.261ZM780.261 160.703C779.34 160.438 778.363 160.242 777.332 160.117C776.301 159.992 775.215 159.93 774.074 159.93C771.215 159.93 768.98 160.547 767.371 161.781C766.152 162.703 765.543 163.805 765.543 165.086C765.543 166.273 766.004 167.273 766.926 168.086C767.863 168.898 769.222 169.305 771.004 169.305C772.707 169.305 774.285 168.969 775.738 168.297C777.207 167.609 778.715 166.523 780.261 165.039V160.703ZM822.051 153.813V150.203H826.668C827.136 150.203 827.472 150.297 827.676 150.484C827.879 150.672 827.98 150.914 827.98 151.211C827.98 151.492 827.879 151.727 827.676 151.914C827.472 152.102 827.136 152.195 826.668 152.195H824.019V171.859C824.019 173.172 823.738 174.344 823.176 175.375C822.801 176.063 822.176 176.773 821.301 177.508C820.426 178.242 819.629 178.766 818.91 179.078C818.191 179.391 817.23 179.547 816.027 179.547H810.449C809.98 179.547 809.644 179.453 809.441 179.266C809.238 179.094 809.136 178.859 809.136 178.563C809.136 178.266 809.238 178.023 809.441 177.836C809.644 177.648 809.98 177.555 810.449 177.555L816.097 177.578C817.254 177.578 818.293 177.281 819.215 176.688C820.152 176.094 820.926 175.227 821.535 174.086C821.879 173.43 822.051 172.594 822.051 171.578V165.672C819.941 168.563 817.222 170.008 813.894 170.008C811.191 170.008 808.855 169.008 806.886 167.008C804.933 164.992 803.957 162.57 803.957 159.742C803.957 156.914 804.933 154.5 806.886 152.5C808.855 150.5 811.191 149.5 813.894 149.5C817.222 149.5 819.941 150.938 822.051 153.813ZM822.051 159.742C822.051 157.43 821.254 155.477 819.66 153.883C818.082 152.289 816.191 151.492 813.988 151.492C811.785 151.492 809.894 152.297 808.316 153.906C806.738 155.5 805.949 157.445 805.949 159.742C805.949 162.055 806.738 164.016 808.316 165.625C809.894 167.219 811.785 168.016 813.988 168.016C816.191 168.016 818.082 167.219 819.66 165.625C821.254 164.016 822.051 162.055 822.051 159.742ZM866.91 160.82H846.847C847.191 163.367 848.254 165.422 850.035 166.984C851.832 168.531 854.051 169.305 856.691 169.305C858.16 169.305 859.699 169.063 861.308 168.578C862.918 168.094 864.23 167.453 865.246 166.656C865.543 166.422 865.801 166.305 866.019 166.305C866.269 166.305 866.488 166.406 866.676 166.609C866.863 166.797 866.957 167.023 866.957 167.289C866.957 167.555 866.832 167.813 866.582 168.063C865.832 168.844 864.496 169.578 862.574 170.266C860.668 170.938 858.707 171.273 856.691 171.273C853.316 171.273 850.496 170.172 848.23 167.969C845.98 165.75 844.855 163.07 844.855 159.93C844.855 157.07 845.91 154.617 848.019 152.57C850.144 150.523 852.769 149.5 855.894 149.5C859.113 149.5 861.761 150.555 863.84 152.664C865.918 154.758 866.941 157.477 866.91 160.82ZM864.918 158.828C864.527 156.656 863.496 154.891 861.824 153.531C860.168 152.172 858.191 151.492 855.894 151.492C853.597 151.492 851.621 152.164 849.965 153.508C848.308 154.852 847.277 156.625 846.871 158.828H864.918Z" fill="black"/>
</svg>
