<svg width="1002" height="167" viewBox="0 0 1002 167" fill="none" xmlns="http://www.w3.org/2000/svg">
<path d="M393.255 102.873H209.919V47.8046H385.754V32.2439C385.754 18.4509 374.201 7.26424 359.957 7.26424H209.346V0H393.255V102.873ZM238.354 95.5964H364.82C376.373 95.5964 385.754 86.5257 385.754 75.3261V55.0559H238.354C226.802 55.0559 217.421 64.1266 217.421 75.3261C217.421 86.5257 226.802 95.5964 238.354 95.5964Z" fill="#F6F0E4"/>
<path d="M583.641 64.9136V102.861H413.576V0.103205H421.278V75.8551C421.278 86.6547 430.312 95.4028 441.465 95.4028H559.922C568.77 95.4028 575.939 88.4611 575.939 79.8937V64.9136H583.641Z" fill="#F6F0E4"/>
<path d="M611.649 27.1086V46.0885H761.26V53.5334H611.649V75.8551C611.649 86.6547 620.697 95.4028 631.85 95.4028H787.857V102.861H603.948V0.103205H787.857V7.5481H631.85C620.697 7.5481 611.649 16.3091 611.649 27.1086Z" fill="#F6F0E4"/>
<path d="M186.148 7.56098L33.8451 86.8483C29.6877 89.0159 31.2734 95.1318 36.0037 95.1318H185.202V102.873H0V95.5834L152.289 16.2962C156.447 14.1285 154.861 8.01258 150.131 8.01258H7.74172V0.270946H186.148V7.56098Z" fill="#F6F0E4"/>
<path d="M1002 102.873H985.091L905.089 56.5913L904.409 56.2043C874.348 73.5843 844.954 90.603 823.767 102.848H806.765C810.282 100.809 874.268 63.804 895.894 51.2754L807.431 0.11612H824.327L904.582 46.5272L983.985 0.619345H1000.52C977.629 13.8704 945.276 32.5665 912.87 51.3142L913.537 51.7012L1002 102.873Z" fill="#F6F0E4"/>
<path d="M7.58183 147.736V152.278C9.99362 150.162 11.8058 148.807 13.0184 148.201C14.2176 147.594 15.3236 147.285 16.3496 147.285C17.4555 147.285 18.4815 147.646 19.4409 148.368C20.387 149.091 20.8667 149.633 20.8667 150.007C20.8667 150.278 20.7734 150.497 20.5868 150.678C20.4003 150.859 20.1738 150.949 19.894 150.949C19.7474 150.949 19.6142 150.923 19.5209 150.872C19.4143 150.82 19.2277 150.665 18.9479 150.394C18.4282 149.891 17.9752 149.556 17.6021 149.362C17.229 149.168 16.8426 149.078 16.4695 149.078C15.6567 149.078 14.684 149.388 13.538 150.02C12.3921 150.652 10.42 152.188 7.59514 154.626V164.484H15.8166C16.2696 164.484 16.6027 164.561 16.7893 164.729C16.9758 164.897 17.0824 165.116 17.0824 165.387C17.0824 165.645 16.9892 165.865 16.7893 166.032C16.6027 166.2 16.2696 166.29 15.8166 166.29H1.23922C0.7995 166.29 0.479695 166.213 0.293148 166.045C0.1066 165.877 0 165.671 0 165.413C0 165.168 0.0932827 164.961 0.27983 164.807C0.466378 164.639 0.786175 164.561 1.23922 164.561H5.72968V149.568H2.30519C1.86547 149.568 1.54569 149.478 1.35914 149.31C1.17259 149.143 1.06599 148.923 1.06599 148.639C1.06599 148.381 1.15927 148.162 1.34582 147.994C1.53237 147.827 1.85214 147.736 2.30519 147.736H7.58183Z" fill="#F6F0E4"/>
<path d="M64.4788 157.439H45.5443C45.8641 159.762 46.8767 161.645 48.569 163.065C50.2612 164.484 52.3399 165.194 54.845 165.194C56.2308 165.194 57.6832 164.974 59.2022 164.536C60.7212 164.097 61.9604 163.503 62.9198 162.781C63.1996 162.561 63.4395 162.458 63.6527 162.458C63.8925 162.458 64.0924 162.549 64.2656 162.729C64.4388 162.91 64.5321 163.116 64.5321 163.361C64.5321 163.607 64.4122 163.839 64.1723 164.071C63.4661 164.781 62.2136 165.452 60.4014 166.071C58.5892 166.69 56.7371 167 54.845 167C51.6603 167 49.0087 165.994 46.8767 163.968C44.7448 161.942 43.6788 159.504 43.6788 156.626C43.6788 154.02 44.6781 151.775 46.6768 149.904C48.6756 148.033 51.154 147.091 54.0988 147.091C57.1368 147.091 59.6286 148.046 61.6007 149.968C63.5461 151.904 64.5055 154.381 64.4788 157.439ZM62.6 155.62C62.2269 153.633 61.2675 152.02 59.6952 150.781C58.1229 149.543 56.2574 148.923 54.0854 148.923C51.9135 148.923 50.048 149.543 48.489 150.768C46.93 151.994 45.9573 153.62 45.5709 155.633H62.6V155.62Z" fill="#F6F0E4"/>
<path d="M104.4 166.29V163.697C101.695 165.89 98.8169 167 95.7522 167C93.5269 167 91.7814 166.458 90.5288 165.361C89.2763 164.265 88.65 162.936 88.65 161.349C88.65 159.607 89.4762 158.084 91.1285 156.781C92.7807 155.478 95.1925 154.833 98.3638 154.833C99.2166 154.833 100.149 154.884 101.149 154.988C102.148 155.091 103.241 155.259 104.4 155.491V152.575C104.4 151.594 103.934 150.73 102.988 150.007C102.042 149.285 100.629 148.91 98.7369 148.91C97.2979 148.91 95.2592 149.323 92.6475 150.136C92.1811 150.278 91.8747 150.356 91.7414 150.356C91.5016 150.356 91.3017 150.265 91.1285 150.097C90.9552 149.93 90.8753 149.71 90.8753 149.452C90.8753 149.207 90.9552 149.014 91.1018 148.872C91.3017 148.652 92.1412 148.368 93.6069 147.994C95.9121 147.401 97.6443 147.091 98.8302 147.091C101.175 147.091 103.001 147.646 104.32 148.768C105.626 149.891 106.292 151.155 106.292 152.575V164.484H108.771C109.224 164.484 109.557 164.561 109.743 164.729C109.93 164.897 110.036 165.116 110.036 165.387C110.036 165.645 109.943 165.865 109.743 166.032C109.557 166.2 109.224 166.29 108.771 166.29H104.4ZM104.4 157.336C103.534 157.091 102.614 156.91 101.642 156.794C100.669 156.678 99.643 156.626 98.5637 156.626C95.8588 156.626 93.7535 157.194 92.2344 158.316C91.0885 159.155 90.5155 160.162 90.5155 161.336C90.5155 162.42 90.9552 163.336 91.8347 164.071C92.7141 164.819 93.9933 165.181 95.6722 165.181C97.2845 165.181 98.7769 164.871 100.149 164.252C101.522 163.632 102.948 162.639 104.413 161.284V157.336H104.4Z" fill="#F6F0E4"/>
<path d="M144.614 139.401V164.484H151.916C152.369 164.484 152.702 164.561 152.889 164.729C153.076 164.897 153.182 165.116 153.182 165.387C153.182 165.645 153.089 165.865 152.889 166.032C152.702 166.2 152.369 166.29 151.916 166.29H135.46C135.02 166.29 134.701 166.2 134.514 166.032C134.328 165.865 134.221 165.645 134.221 165.387C134.221 165.116 134.314 164.897 134.514 164.729C134.701 164.561 135.02 164.484 135.46 164.484H142.762V141.22H137.406C136.966 141.22 136.646 141.13 136.446 140.962C136.246 140.795 136.153 140.575 136.153 140.304C136.153 140.046 136.246 139.827 136.446 139.659C136.633 139.491 136.966 139.401 137.419 139.401H144.614Z" fill="#F6F0E4"/>
<path d="M242.978 157.439H224.044C224.363 159.762 225.376 161.645 227.068 163.065C228.761 164.484 230.839 165.194 233.344 165.194C234.73 165.194 236.182 164.974 237.702 164.536C239.221 164.097 240.46 163.503 241.419 162.781C241.699 162.561 241.939 162.458 242.152 162.458C242.392 162.458 242.592 162.549 242.765 162.729C242.938 162.91 243.031 163.116 243.031 163.361C243.031 163.607 242.912 163.839 242.672 164.071C241.965 164.781 240.713 165.452 238.901 166.071C237.089 166.69 235.236 167 233.344 167C230.16 167 227.508 165.994 225.376 163.968C223.244 161.942 222.178 159.504 222.178 156.626C222.178 154.02 223.177 151.775 225.176 149.904C227.175 148.033 229.653 147.091 232.598 147.091C235.636 147.091 238.128 148.046 240.1 149.968C242.032 151.904 243.005 154.381 242.978 157.439ZM241.099 155.62C240.726 153.633 239.767 152.02 238.195 150.781C236.622 149.543 234.757 148.923 232.585 148.923C230.413 148.923 228.547 149.543 226.988 150.768C225.429 151.994 224.457 153.62 224.07 155.633H241.099V155.62Z" fill="#F6F0E4"/>
<path d="M283.685 148.91C283.685 148.497 283.779 148.201 283.952 148.007C284.125 147.827 284.352 147.723 284.618 147.723C284.898 147.723 285.125 147.814 285.298 148.007C285.471 148.188 285.564 148.51 285.564 148.949V152.033C285.564 152.459 285.471 152.768 285.298 152.949C285.125 153.13 284.898 153.233 284.618 153.233C284.365 153.233 284.152 153.155 283.992 153.001C283.819 152.846 283.725 152.588 283.699 152.226C283.606 151.375 283.152 150.665 282.326 150.11C281.114 149.31 279.515 148.91 277.529 148.91C275.451 148.91 273.838 149.323 272.692 150.136C271.826 150.755 271.387 151.439 271.387 152.188C271.387 153.039 271.906 153.762 272.932 154.33C273.639 154.729 274.984 155.039 276.956 155.246C279.541 155.517 281.327 155.826 282.326 156.162C283.752 156.665 284.818 157.349 285.524 158.239C286.231 159.129 286.577 160.084 286.577 161.116C286.577 162.639 285.817 164.007 284.298 165.194C282.779 166.381 280.554 166.987 277.623 166.987C274.691 166.987 272.279 166.265 270.414 164.819C270.414 165.31 270.387 165.619 270.321 165.761C270.254 165.903 270.161 166.032 270.001 166.123C269.841 166.226 269.668 166.277 269.481 166.277C269.215 166.277 269.001 166.187 268.815 165.994C268.642 165.813 268.548 165.503 268.548 165.078V161.374C268.548 160.949 268.628 160.639 268.802 160.458C268.975 160.278 269.201 160.174 269.481 160.174C269.748 160.174 269.974 160.265 270.161 160.445C270.347 160.626 270.441 160.858 270.441 161.168C270.441 161.826 270.614 162.381 270.947 162.82C271.467 163.503 272.279 164.071 273.412 164.523C274.545 164.974 275.917 165.194 277.556 165.194C279.968 165.194 281.767 164.755 282.953 163.89C284.139 163.013 284.725 162.097 284.725 161.129C284.725 160.02 284.125 159.116 282.926 158.445C281.713 157.775 279.955 157.323 277.649 157.091C275.344 156.858 273.692 156.562 272.679 156.188C271.68 155.813 270.894 155.259 270.334 154.523C269.774 153.775 269.495 152.975 269.495 152.123C269.495 150.575 270.281 149.362 271.84 148.446C273.399 147.543 275.264 147.091 277.436 147.091C279.981 147.091 282.073 147.697 283.685 148.91Z" fill="#F6F0E4"/>
<path d="M318.343 147.736H328.43C328.87 147.736 329.19 147.827 329.376 147.994C329.563 148.162 329.669 148.381 329.669 148.652C329.669 148.91 329.576 149.13 329.376 149.298C329.19 149.465 328.87 149.555 328.43 149.555H318.343V161.529C318.343 162.574 318.77 163.439 319.636 164.148C320.502 164.845 321.768 165.194 323.433 165.194C324.686 165.194 326.045 165.013 327.497 164.652C328.963 164.29 330.096 163.878 330.909 163.426C331.202 163.245 331.442 163.142 331.642 163.142C331.881 163.142 332.081 163.232 332.254 163.413C332.428 163.594 332.521 163.8 332.521 164.045C332.521 164.252 332.428 164.458 332.228 164.639C331.761 165.103 330.615 165.619 328.79 166.174C326.964 166.729 325.232 167 323.553 167C321.381 167 319.663 166.51 318.383 165.529C317.104 164.548 316.465 163.22 316.465 161.542V149.568H313.04C312.6 149.568 312.281 149.478 312.094 149.31C311.907 149.143 311.801 148.923 311.801 148.639C311.801 148.381 311.894 148.162 312.094 147.994C312.281 147.827 312.6 147.736 313.04 147.736H316.465V142.42C316.465 141.995 316.558 141.685 316.731 141.504C316.904 141.324 317.131 141.22 317.397 141.22C317.677 141.22 317.904 141.311 318.077 141.504C318.25 141.685 318.343 141.995 318.343 142.42V147.736Z" fill="#F6F0E4"/>
<path d="M372.122 166.29V163.697C369.417 165.89 366.539 167 363.474 167C361.249 167 359.504 166.458 358.251 165.361C356.999 164.265 356.372 162.936 356.372 161.349C356.372 159.607 357.199 158.084 358.851 156.781C360.503 155.478 362.915 154.833 366.086 154.833C366.939 154.833 367.872 154.884 368.871 154.988C369.87 155.091 370.963 155.259 372.122 155.491V152.575C372.122 151.594 371.656 150.73 370.71 150.007C369.764 149.285 368.351 148.91 366.459 148.91C365.02 148.91 362.982 149.323 360.37 150.136C359.903 150.278 359.597 150.356 359.464 150.356C359.224 150.356 359.024 150.265 358.851 150.097C358.678 149.93 358.598 149.71 358.598 149.452C358.598 149.207 358.678 149.014 358.824 148.872C359.024 148.652 359.863 148.368 361.329 147.994C363.634 147.401 365.367 147.091 366.553 147.091C368.898 147.091 370.723 147.646 372.042 148.768C373.348 149.891 374.014 151.155 374.014 152.575V164.484H376.493C376.946 164.484 377.279 164.561 377.466 164.729C377.652 164.897 377.759 165.116 377.759 165.387C377.759 165.645 377.665 165.865 377.466 166.032C377.279 166.2 376.946 166.29 376.493 166.29H372.122ZM372.122 157.336C371.256 157.091 370.337 156.91 369.364 156.794C368.391 156.678 367.365 156.626 366.286 156.626C363.581 156.626 361.476 157.194 359.957 158.316C358.811 159.155 358.238 160.162 358.238 161.336C358.238 162.42 358.678 163.336 359.557 164.071C360.436 164.819 361.716 165.181 363.395 165.181C365.007 165.181 366.499 164.871 367.872 164.252C369.244 163.632 370.67 162.639 372.136 161.284V157.336H372.122Z" fill="#F6F0E4"/>
<path d="M407.593 147.736H417.68C418.12 147.736 418.439 147.827 418.626 147.994C418.813 148.162 418.919 148.381 418.919 148.652C418.919 148.91 418.826 149.13 418.626 149.298C418.439 149.465 418.12 149.555 417.68 149.555H407.593V161.529C407.593 162.574 408.019 163.439 408.886 164.148C409.752 164.845 411.017 165.194 412.683 165.194C413.936 165.194 415.295 165.013 416.747 164.652C418.213 164.29 419.346 163.878 420.158 163.426C420.451 163.245 420.691 163.142 420.891 163.142C421.131 163.142 421.331 163.232 421.504 163.413C421.677 163.594 421.771 163.8 421.771 164.045C421.771 164.252 421.677 164.458 421.477 164.639C421.011 165.103 419.865 165.619 418.04 166.174C416.214 166.729 414.482 167 412.803 167C410.631 167 408.912 166.51 407.633 165.529C406.354 164.548 405.714 163.22 405.714 161.542V149.568H402.29C401.85 149.568 401.53 149.478 401.344 149.31C401.157 149.143 401.051 148.923 401.051 148.639C401.051 148.381 401.144 148.162 401.344 147.994C401.53 147.827 401.85 147.736 402.29 147.736H405.714V142.42C405.714 141.995 405.807 141.685 405.981 141.504C406.154 141.324 406.38 141.22 406.647 141.22C406.927 141.22 407.153 141.311 407.327 141.504C407.5 141.685 407.593 141.995 407.593 142.42V147.736Z" fill="#F6F0E4"/>
<path d="M466.089 157.439H447.154C447.474 159.762 448.487 161.645 450.179 163.065C451.871 164.484 453.95 165.194 456.455 165.194C457.841 165.194 459.293 164.974 460.812 164.536C462.331 164.097 463.571 163.503 464.53 162.781C464.81 162.561 465.05 162.458 465.263 162.458C465.503 162.458 465.703 162.549 465.876 162.729C466.049 162.91 466.142 163.116 466.142 163.361C466.142 163.607 466.022 163.839 465.783 164.071C465.076 164.781 463.824 165.452 462.012 166.071C460.199 166.69 458.347 167 456.455 167C453.27 167 450.619 165.994 448.487 163.968C446.355 161.942 445.289 159.504 445.289 156.626C445.289 154.02 446.288 151.775 448.287 149.904C450.286 148.033 452.764 147.091 455.709 147.091C458.747 147.091 461.239 148.046 463.211 149.968C465.143 151.904 466.116 154.381 466.089 157.439ZM464.21 155.62C463.837 153.633 462.878 152.02 461.305 150.781C459.733 149.543 457.868 148.923 455.696 148.923C453.524 148.923 451.658 149.543 450.099 150.768C448.54 151.994 447.567 153.62 447.181 155.633H464.21V155.62Z" fill="#F6F0E4"/>
<path d="M546.264 147.736V164.484H553.566C554.019 164.484 554.353 164.561 554.539 164.729C554.726 164.897 554.832 165.116 554.832 165.387C554.832 165.645 554.739 165.865 554.539 166.032C554.353 166.2 554.019 166.29 553.566 166.29H537.11C536.671 166.29 536.351 166.2 536.164 166.032C535.978 165.865 535.871 165.645 535.871 165.387C535.871 165.116 535.964 164.897 536.164 164.729C536.351 164.561 536.671 164.484 537.11 164.484H544.412V149.555H538.989C538.549 149.555 538.23 149.465 538.03 149.298C537.83 149.13 537.737 148.91 537.737 148.652C537.737 148.381 537.83 148.162 538.03 147.994C538.216 147.827 538.549 147.736 539.002 147.736H546.264ZM546.198 138.511V143.156H543.453V138.511H546.198Z" fill="#F6F0E4"/>
<path d="M583.894 147.736V150.459C585.186 149.194 586.359 148.317 587.411 147.827C588.464 147.336 589.637 147.104 590.956 147.104C592.368 147.104 593.661 147.401 594.82 147.981C595.646 148.407 596.392 149.117 597.072 150.11C597.738 151.104 598.085 152.123 598.085 153.168V164.497H599.657C600.097 164.497 600.417 164.574 600.603 164.742C600.79 164.91 600.896 165.129 600.896 165.4C600.896 165.658 600.803 165.877 600.603 166.045C600.417 166.213 600.097 166.303 599.657 166.303H594.673C594.22 166.303 593.887 166.213 593.701 166.045C593.514 165.877 593.408 165.658 593.408 165.4C593.408 165.129 593.501 164.91 593.701 164.742C593.887 164.574 594.22 164.497 594.673 164.497H596.219V153.465C596.219 152.201 595.74 151.117 594.78 150.239C593.821 149.362 592.542 148.923 590.929 148.923C589.703 148.923 588.637 149.168 587.745 149.646C586.852 150.123 585.559 151.31 583.894 153.207V164.497H585.999C586.439 164.497 586.759 164.574 586.945 164.742C587.132 164.91 587.238 165.129 587.238 165.4C587.238 165.658 587.145 165.877 586.945 166.045C586.759 166.213 586.439 166.303 585.999 166.303H579.936C579.497 166.303 579.177 166.213 578.99 166.045C578.804 165.877 578.697 165.658 578.697 165.4C578.697 165.129 578.79 164.91 578.99 164.742C579.177 164.574 579.497 164.497 579.936 164.497H582.042V149.568H580.469C580.03 149.568 579.71 149.478 579.523 149.31C579.337 149.143 579.23 148.923 579.23 148.639C579.23 148.381 579.323 148.162 579.523 147.994C579.71 147.827 580.03 147.736 580.469 147.736H583.894Z" fill="#F6F0E4"/>
<path d="M636.154 166.29H633.009L625.374 149.568H623.468C623.029 149.568 622.709 149.478 622.522 149.31C622.336 149.143 622.229 148.923 622.229 148.639C622.229 148.381 622.323 148.162 622.522 147.994C622.709 147.827 623.029 147.736 623.468 147.736H630.437C630.877 147.736 631.197 147.827 631.383 147.994C631.57 148.162 631.677 148.381 631.677 148.652C631.677 148.91 631.583 149.13 631.383 149.298C631.197 149.465 630.877 149.555 630.437 149.555H627.359L634.168 164.484H634.981L641.657 149.555H638.565C638.126 149.555 637.806 149.465 637.619 149.298C637.433 149.13 637.326 148.91 637.326 148.627C637.326 148.368 637.42 148.149 637.619 147.981C637.806 147.814 638.126 147.723 638.565 147.723H645.561C646.014 147.723 646.334 147.814 646.52 147.981C646.707 148.149 646.8 148.368 646.8 148.639C646.8 148.898 646.707 149.117 646.52 149.285C646.334 149.452 646.014 149.543 645.561 149.543H643.682L636.154 166.29Z" fill="#F6F0E4"/>
<path d="M689.2 157.439H670.265C670.585 159.762 671.598 161.645 673.29 163.065C674.982 164.484 677.061 165.194 679.566 165.194C680.952 165.194 682.404 164.974 683.923 164.536C685.442 164.097 686.681 163.503 687.641 162.781C687.921 162.561 688.16 162.458 688.374 162.458C688.613 162.458 688.813 162.549 688.987 162.729C689.16 162.91 689.253 163.116 689.253 163.361C689.253 163.607 689.133 163.839 688.893 164.071C688.187 164.781 686.935 165.452 685.122 166.071C683.31 166.69 681.458 167 679.566 167C676.381 167 673.73 165.994 671.598 163.968C669.466 161.942 668.4 159.504 668.4 156.626C668.4 154.02 669.399 151.775 671.398 149.904C673.397 148.033 675.875 147.091 678.82 147.091C681.858 147.091 684.35 148.046 686.322 149.968C688.267 151.904 689.226 154.381 689.2 157.439ZM687.321 155.62C686.948 153.633 685.989 152.02 684.416 150.781C682.844 149.543 680.978 148.923 678.806 148.923C676.634 148.923 674.769 149.543 673.21 150.768C671.651 151.994 670.678 153.62 670.292 155.633H687.321V155.62Z" fill="#F6F0E4"/>
<path d="M729.907 148.91C729.907 148.497 730 148.201 730.174 148.007C730.347 147.827 730.573 147.723 730.84 147.723C731.12 147.723 731.346 147.814 731.519 148.007C731.693 148.201 731.786 148.51 731.786 148.949V152.033C731.786 152.459 731.693 152.768 731.519 152.949C731.346 153.13 731.12 153.233 730.84 153.233C730.587 153.233 730.374 153.155 730.214 153.001C730.04 152.846 729.947 152.588 729.92 152.226C729.827 151.375 729.374 150.665 728.548 150.11C727.335 149.31 725.736 148.91 723.751 148.91C721.672 148.91 720.06 149.323 718.914 150.136C718.048 150.755 717.608 151.439 717.608 152.188C717.608 153.039 718.128 153.762 719.154 154.33C719.86 154.729 721.206 155.039 723.178 155.246C725.763 155.517 727.549 155.826 728.548 156.162C729.974 156.665 731.04 157.349 731.746 158.239C732.452 159.129 732.799 160.084 732.799 161.116C732.799 162.639 732.039 164.007 730.52 165.194C729.001 166.381 726.776 166.987 723.844 166.987C720.913 166.987 718.501 166.265 716.636 164.819C716.636 165.31 716.609 165.619 716.542 165.761C716.476 165.903 716.382 166.032 716.223 166.123C716.063 166.226 715.889 166.277 715.703 166.277C715.436 166.277 715.223 166.187 715.037 165.994C714.85 165.8 714.77 165.503 714.77 165.078V161.374C714.77 160.949 714.85 160.639 715.023 160.458C715.196 160.278 715.423 160.174 715.703 160.174C715.969 160.174 716.196 160.265 716.382 160.445C716.569 160.626 716.662 160.858 716.662 161.168C716.662 161.826 716.836 162.381 717.169 162.82C717.688 163.503 718.501 164.071 719.634 164.523C720.766 164.974 722.139 165.194 723.778 165.194C726.19 165.194 727.988 164.755 729.174 163.89C730.36 163.013 730.946 162.097 730.946 161.129C730.946 160.02 730.347 159.116 729.148 158.445C727.935 157.775 726.176 157.323 723.871 157.091C721.566 156.858 719.914 156.562 718.901 156.188C717.901 155.813 717.115 155.259 716.556 154.523C715.996 153.775 715.716 152.975 715.716 152.123C715.716 150.575 716.502 149.362 718.061 148.446C719.62 147.543 721.486 147.091 723.658 147.091C726.216 147.091 728.295 147.697 729.907 148.91Z" fill="#F6F0E4"/>
<path d="M764.578 147.736H774.665C775.105 147.736 775.425 147.827 775.611 147.994C775.798 148.162 775.904 148.381 775.904 148.652C775.904 148.91 775.811 149.13 775.611 149.298C775.425 149.465 775.105 149.555 774.665 149.555H764.578V161.529C764.578 162.574 765.005 163.439 765.871 164.148C766.737 164.845 768.003 165.194 769.668 165.194C770.921 165.194 772.28 165.013 773.732 164.652C775.198 164.29 776.331 163.878 777.144 163.426C777.437 163.245 777.677 163.142 777.877 163.142C778.116 163.142 778.316 163.232 778.489 163.413C778.663 163.594 778.756 163.8 778.756 164.045C778.756 164.252 778.663 164.458 778.463 164.639C777.996 165.103 776.85 165.619 775.025 166.174C773.199 166.729 771.467 167 769.788 167C767.616 167 765.897 166.51 764.618 165.529C763.339 164.548 762.7 163.22 762.7 161.542V149.568H759.275C758.835 149.568 758.516 149.478 758.329 149.31C758.142 149.143 758.036 148.923 758.036 148.639C758.036 148.381 758.129 148.162 758.329 147.994C758.516 147.827 758.835 147.736 759.275 147.736H762.7V142.42C762.7 141.995 762.793 141.685 762.966 141.504C763.139 141.324 763.366 141.22 763.632 141.22C763.912 141.22 764.139 141.311 764.312 141.504C764.485 141.698 764.578 141.995 764.578 142.42V147.736Z" fill="#F6F0E4"/>
<path d="M804.553 149.555C806.125 147.917 807.711 147.091 809.31 147.091C810.269 147.091 811.109 147.336 811.828 147.827C812.548 148.317 813.161 149.065 813.64 150.072C814.466 149.078 815.306 148.33 816.145 147.827C816.998 147.336 817.851 147.091 818.704 147.091C820.05 147.091 821.116 147.517 821.915 148.356C822.968 149.439 823.487 150.626 823.487 151.904V164.471H825.06C825.499 164.471 825.819 164.548 826.006 164.716C826.192 164.884 826.299 165.103 826.299 165.374C826.299 165.632 826.206 165.852 826.006 166.019C825.819 166.187 825.499 166.277 825.06 166.277H821.635V152.072C821.635 151.155 821.342 150.407 820.769 149.801C820.196 149.207 819.53 148.898 818.784 148.898C818.104 148.898 817.385 149.143 816.638 149.633C815.892 150.123 815.026 151.091 814.067 152.536V164.471H815.612C816.052 164.471 816.372 164.548 816.558 164.716C816.745 164.884 816.852 165.103 816.852 165.374C816.852 165.632 816.758 165.852 816.558 166.019C816.372 166.187 816.052 166.277 815.612 166.277H812.188V152.201C812.188 151.246 811.895 150.459 811.322 149.826C810.735 149.207 810.083 148.898 809.363 148.898C808.697 148.898 808.044 149.104 807.391 149.517C806.485 150.097 805.552 151.104 804.566 152.536V164.471H806.138C806.578 164.471 806.898 164.548 807.085 164.716C807.271 164.884 807.378 165.103 807.378 165.374C807.378 165.632 807.284 165.852 807.085 166.019C806.898 166.187 806.578 166.277 806.138 166.277H801.142C800.702 166.277 800.382 166.187 800.196 166.019C800.009 165.852 799.902 165.632 799.902 165.374C799.902 165.103 799.996 164.884 800.196 164.716C800.382 164.548 800.702 164.471 801.142 164.471H802.714V149.543H801.142C800.702 149.543 800.382 149.452 800.196 149.285C800.009 149.117 799.902 148.897 799.902 148.614C799.902 148.356 799.996 148.136 800.196 147.968C800.382 147.801 800.702 147.71 801.142 147.71H804.553V149.555Z" fill="#F6F0E4"/>
<path d="M867.686 157.439H848.751C849.071 159.762 850.084 161.645 851.776 163.065C853.468 164.484 855.547 165.194 858.052 165.194C859.438 165.194 860.89 164.974 862.409 164.536C863.928 164.097 865.167 163.503 866.127 162.781C866.407 162.561 866.646 162.458 866.86 162.458C867.099 162.458 867.299 162.549 867.473 162.729C867.646 162.91 867.739 163.116 867.739 163.361C867.739 163.607 867.619 163.839 867.379 164.071C866.673 164.781 865.421 165.452 863.608 166.071C861.796 166.69 859.944 167 858.052 167C854.867 167 852.216 165.994 850.084 163.968C847.952 161.942 846.886 159.504 846.886 156.626C846.886 154.02 847.885 151.775 849.884 149.904C851.883 148.033 854.361 147.091 857.306 147.091C860.344 147.091 862.836 148.046 864.808 149.968C866.753 151.904 867.712 154.381 867.686 157.439ZM865.807 155.62C865.434 153.633 864.475 152.02 862.902 150.781C861.33 149.543 859.464 148.923 857.292 148.923C855.12 148.923 853.255 149.543 851.696 150.768C850.137 151.994 849.164 153.62 848.778 155.633H865.807V155.62Z" fill="#F6F0E4"/>
<path d="M896.254 147.736V150.459C897.547 149.194 898.719 148.317 899.772 147.827C900.825 147.336 901.997 147.104 903.316 147.104C904.729 147.104 906.021 147.401 907.181 147.981C908.007 148.407 908.753 149.117 909.432 150.11C910.099 151.104 910.445 152.123 910.445 153.168V164.497H912.018C912.457 164.497 912.777 164.574 912.964 164.742C913.15 164.91 913.257 165.129 913.257 165.4C913.257 165.658 913.163 165.877 912.964 166.045C912.777 166.213 912.457 166.303 912.018 166.303H907.034C906.581 166.303 906.248 166.213 906.061 166.045C905.875 165.877 905.768 165.658 905.768 165.4C905.768 165.129 905.861 164.91 906.061 164.742C906.248 164.574 906.581 164.497 907.034 164.497H908.58V153.465C908.58 152.201 908.1 151.117 907.141 150.239C906.181 149.362 904.902 148.923 903.29 148.923C902.064 148.923 900.998 149.168 900.105 149.646C899.199 150.123 897.92 151.31 896.254 153.207V164.497H898.36C898.799 164.497 899.119 164.574 899.306 164.742C899.492 164.91 899.599 165.129 899.599 165.4C899.599 165.658 899.505 165.877 899.306 166.045C899.119 166.213 898.799 166.303 898.36 166.303H892.297C891.857 166.303 891.537 166.213 891.351 166.045C891.164 165.877 891.058 165.658 891.058 165.4C891.058 165.129 891.151 164.91 891.351 164.742C891.537 164.574 891.857 164.497 892.297 164.497H894.402V149.568H892.83C892.39 149.568 892.07 149.478 891.884 149.31C891.697 149.143 891.591 148.923 891.591 148.639C891.591 148.381 891.684 148.162 891.884 147.994C892.07 147.827 892.39 147.736 892.83 147.736H896.254Z" fill="#F6F0E4"/>
<path d="M943.064 147.736H953.151C953.591 147.736 953.911 147.827 954.097 147.994C954.284 148.162 954.39 148.381 954.39 148.652C954.39 148.91 954.297 149.13 954.097 149.298C953.911 149.465 953.591 149.555 953.151 149.555H943.064V161.529C943.064 162.574 943.491 163.439 944.357 164.148C945.223 164.845 946.489 165.194 948.154 165.194C949.407 165.194 950.766 165.013 952.218 164.652C953.684 164.29 954.817 163.878 955.63 163.426C955.923 163.245 956.163 163.142 956.362 163.142C956.602 163.142 956.802 163.232 956.975 163.413C957.149 163.594 957.242 163.8 957.242 164.045C957.242 164.252 957.149 164.458 956.949 164.639C956.482 165.103 955.336 165.619 953.511 166.174C951.685 166.729 949.953 167 948.274 167C946.102 167 944.383 166.51 943.104 165.529C941.825 164.548 941.186 163.22 941.186 161.542V149.568H937.761C937.321 149.568 937.001 149.478 936.815 149.31C936.628 149.143 936.522 148.923 936.522 148.639C936.522 148.381 936.615 148.162 936.815 147.994C937.001 147.827 937.321 147.736 937.761 147.736H941.186V142.42C941.186 141.995 941.279 141.685 941.452 141.504C941.625 141.324 941.852 141.22 942.118 141.22C942.398 141.22 942.625 141.311 942.798 141.504C942.971 141.685 943.064 141.995 943.064 142.42V147.736Z" fill="#F6F0E4"/>
<path d="M997.643 148.91C997.643 148.497 997.736 148.201 997.909 148.007C998.082 147.827 998.309 147.723 998.576 147.723C998.855 147.723 999.082 147.814 999.255 148.007C999.428 148.201 999.522 148.51 999.522 148.949V152.033C999.522 152.459 999.428 152.768 999.255 152.949C999.082 153.13 998.855 153.233 998.576 153.233C998.322 153.233 998.109 153.155 997.949 153.001C997.776 152.846 997.683 152.588 997.656 152.226C997.563 151.375 997.11 150.665 996.284 150.11C995.071 149.31 993.472 148.91 991.487 148.91C989.408 148.91 987.796 149.323 986.65 150.136C985.784 150.755 985.344 151.439 985.344 152.188C985.344 153.039 985.864 153.762 986.89 154.33C987.596 154.729 988.942 155.039 990.914 155.246C993.499 155.517 995.284 155.826 996.284 156.162C997.709 156.665 998.775 157.349 999.482 158.239C1000.19 159.129 1000.53 160.084 1000.53 161.116C1000.53 162.639 999.775 164.007 998.256 165.194C996.737 166.381 994.511 166.987 991.58 166.987C988.648 166.987 986.237 166.265 984.371 164.819C984.371 165.31 984.345 165.619 984.278 165.761C984.211 165.903 984.118 166.032 983.958 166.123C983.798 166.226 983.625 166.277 983.439 166.277C983.172 166.277 982.959 166.187 982.772 165.994C982.599 165.813 982.506 165.503 982.506 165.078V161.374C982.506 160.949 982.586 160.639 982.759 160.458C982.932 160.278 983.159 160.174 983.439 160.174C983.705 160.174 983.932 160.265 984.118 160.445C984.305 160.626 984.398 160.858 984.398 161.168C984.398 161.826 984.571 162.381 984.904 162.82C985.424 163.503 986.237 164.071 987.369 164.523C988.502 164.974 989.874 165.194 991.513 165.194C993.925 165.194 995.724 164.755 996.91 163.89C998.096 163.013 998.682 162.097 998.682 161.129C998.682 160.02 998.083 159.116 996.883 158.445C995.671 157.775 993.912 157.323 991.607 157.091C989.301 156.858 987.649 156.562 986.636 156.188C985.637 155.813 984.851 155.259 984.291 154.523C983.732 153.775 983.452 152.975 983.452 152.123C983.452 150.575 984.238 149.362 985.797 148.446C987.356 147.543 989.222 147.091 991.393 147.091C993.952 147.091 996.031 147.697 997.643 148.91Z" fill="#F6F0E4"/>
</svg>
