<svg width="1002" height="167" fill="none" xmlns="http://www.w3.org/2000/svg"><path d="M393.255 102.873H209.919V47.805h175.835V32.244c0-13.793-11.553-24.98-25.797-24.98H209.346V0h183.909v102.873zm-154.901-7.277H364.82c11.553 0 20.934-9.07 20.934-20.27v-20.27h-147.4c-11.552 0-20.933 9.07-20.933 20.27s9.381 20.27 20.933 20.27zm345.287-30.682v37.947H413.576V.103h7.702v75.752c0 10.8 9.034 19.548 20.187 19.548h118.457c8.848 0 16.017-6.942 16.017-15.51v-14.98h7.702zm28.008-37.805v18.98H761.26v7.444H611.649v22.322c0 10.8 9.048 19.548 20.201 19.548h156.007v7.458H603.948V.103h183.909v7.445H631.85c-11.153 0-20.201 8.761-20.201 19.56zM186.148 7.561L33.845 86.848c-4.157 2.168-2.572 8.284 2.159 8.284h149.198v7.741H0v-7.29l152.289-79.287c4.158-2.167 2.572-8.283-2.158-8.283H7.741V.27h178.407v7.29zM1002 102.873h-16.909l-80.002-46.282-.68-.387c-30.061 17.38-59.455 34.399-80.642 46.644h-17.002c3.517-2.039 67.503-39.044 89.129-51.573L807.431.116h16.896l80.255 46.411L983.985.62h16.535c-22.891 13.251-55.244 31.947-87.65 50.695l.667.387L1002 102.873zM7.582 147.736v4.542c2.412-2.116 4.224-3.471 5.436-4.077 1.2-.607 2.306-.916 3.332-.916 1.105 0 2.131.361 3.09 1.083.947.723 1.427 1.265 1.427 1.639a.89.89 0 01-.28.671.948.948 0 01-.693.271.803.803 0 01-.373-.077c-.107-.052-.293-.207-.573-.478-.52-.503-.973-.838-1.346-1.032a2.448 2.448 0 00-1.133-.284c-.812 0-1.785.31-2.931.942-1.146.632-3.118 2.168-5.943 4.606v9.858h8.222c.453 0 .786.077.972.245a.854.854 0 01.293.658.803.803 0 01-.293.645c-.186.168-.52.258-.972.258H1.239c-.44 0-.76-.077-.946-.245a.82.82 0 01-.293-.632c0-.245.093-.452.28-.606.186-.168.506-.246.96-.246h4.49v-14.993H2.305c-.44 0-.76-.09-.946-.258a.86.86 0 01-.293-.671c0-.258.093-.477.28-.645.186-.167.506-.258.96-.258h5.276zm56.897 9.703H45.544c.32 2.323 1.333 4.206 3.025 5.626 1.692 1.419 3.77 2.129 6.276 2.129 1.386 0 2.838-.22 4.357-.658 1.52-.439 2.758-1.033 3.718-1.755.28-.22.52-.323.733-.323.24 0 .44.091.613.271a.885.885 0 01.266.632c0 .246-.12.478-.36.71-.706.71-1.958 1.381-3.77 2a17.078 17.078 0 01-5.557.929c-3.185 0-5.836-1.006-7.968-3.032-2.132-2.026-3.198-4.464-3.198-7.342 0-2.606 1-4.851 2.998-6.722 1.999-1.871 4.477-2.813 7.422-2.813 3.038 0 5.53.955 7.502 2.877 1.945 1.936 2.904 4.413 2.878 7.471zM62.6 155.62c-.373-1.987-1.333-3.6-2.905-4.839-1.572-1.238-3.438-1.858-5.61-1.858s-4.037.62-5.596 1.845c-1.559 1.226-2.532 2.852-2.918 4.865H62.6v-.013zm41.8 10.67v-2.593c-2.705 2.193-5.583 3.303-8.648 3.303-2.225 0-3.97-.542-5.223-1.639-1.253-1.096-1.879-2.425-1.879-4.012 0-1.742.826-3.265 2.478-4.568 1.653-1.303 4.064-1.948 7.236-1.948.853 0 1.785.051 2.785.155.999.103 2.092.271 3.251.503v-2.916c0-.981-.466-1.845-1.412-2.568-.946-.722-2.359-1.097-4.251-1.097-1.44 0-3.478.413-6.09 1.226-.466.142-.772.22-.906.22a.85.85 0 01-.612-.259c-.174-.167-.254-.387-.254-.645 0-.245.08-.438.227-.58.2-.22 1.04-.504 2.505-.878 2.305-.593 4.037-.903 5.223-.903 2.345 0 4.171.555 5.49 1.677 1.306 1.123 1.972 2.387 1.972 3.807v11.909h2.479c.453 0 .786.077.972.245a.853.853 0 01.293.658.803.803 0 01-.293.645c-.186.168-.519.258-.972.258H104.4zm0-8.954a17.932 17.932 0 00-2.758-.542 26.056 26.056 0 00-3.078-.168c-2.705 0-4.81.568-6.33 1.69-1.145.839-1.718 1.846-1.718 3.02 0 1.084.44 2 1.319 2.735.88.748 2.158 1.11 3.837 1.11 1.612 0 3.105-.31 4.477-.929 1.373-.62 2.799-1.613 4.264-2.968v-3.948h-.013zm40.214-17.935v25.083h7.302c.453 0 .786.077.973.245a.853.853 0 01.293.658.803.803 0 01-.293.645c-.187.168-.52.258-.973.258H135.46c-.44 0-.759-.09-.946-.258a.847.847 0 01-.293-.645c0-.271.093-.49.293-.658.187-.168.506-.245.946-.245h7.302V141.22h-5.356c-.44 0-.76-.09-.96-.258a.81.81 0 01-.293-.658c0-.258.093-.477.293-.645.187-.168.52-.258.973-.258h7.195zm98.364 18.038h-18.934c.319 2.323 1.332 4.206 3.024 5.626 1.693 1.419 3.771 2.129 6.276 2.129 1.386 0 2.838-.22 4.358-.658 1.519-.439 2.758-1.033 3.717-1.755.28-.22.52-.323.733-.323.24 0 .44.091.613.271a.885.885 0 01.266.632c0 .246-.119.478-.359.71-.707.71-1.959 1.381-3.771 2a17.081 17.081 0 01-5.557.929c-3.184 0-5.836-1.006-7.968-3.032-2.132-2.026-3.198-4.464-3.198-7.342 0-2.606.999-4.851 2.998-6.722 1.999-1.871 4.477-2.813 7.422-2.813 3.038 0 5.53.955 7.502 2.877 1.932 1.936 2.905 4.413 2.878 7.471zm-1.879-1.819c-.373-1.987-1.332-3.6-2.904-4.839-1.573-1.238-3.438-1.858-5.61-1.858s-4.038.62-5.597 1.845c-1.559 1.226-2.531 2.852-2.918 4.865h17.029v-.013zm42.586-6.71c0-.413.094-.709.267-.903.173-.18.4-.284.666-.284.28 0 .507.091.68.284.173.181.266.503.266.942v3.084c0 .426-.093.735-.266.916a.908.908 0 01-.68.284.873.873 0 01-.626-.232c-.173-.155-.267-.413-.293-.775-.093-.851-.547-1.561-1.373-2.116-1.212-.8-2.811-1.2-4.797-1.2-2.078 0-3.691.413-4.837 1.226-.866.619-1.305 1.303-1.305 2.052 0 .851.519 1.574 1.545 2.142.707.399 2.052.709 4.024.916 2.585.271 4.371.58 5.37.916 1.426.503 2.492 1.187 3.198 2.077.707.89 1.053 1.845 1.053 2.877 0 1.523-.76 2.891-2.279 4.078-1.519 1.187-3.744 1.793-6.675 1.793-2.932 0-5.344-.722-7.209-2.168 0 .491-.027.8-.093.942a.77.77 0 01-.32.362.941.941 0 01-.52.154.875.875 0 01-.666-.283c-.173-.181-.267-.491-.267-.916v-3.704c0-.425.08-.735.254-.916a.909.909 0 01.679-.284c.267 0 .493.091.68.271.186.181.28.413.28.723 0 .658.173 1.213.506 1.652.52.683 1.332 1.251 2.465 1.703 1.133.451 2.505.671 4.144.671 2.412 0 4.211-.439 5.397-1.304 1.186-.877 1.772-1.793 1.772-2.761 0-1.109-.6-2.013-1.799-2.684-1.213-.67-2.971-1.122-5.277-1.354-2.305-.233-3.957-.529-4.97-.903-.999-.375-1.785-.929-2.345-1.665-.56-.748-.839-1.548-.839-2.4 0-1.548.786-2.761 2.345-3.677 1.559-.903 3.424-1.355 5.596-1.355 2.545 0 4.637.606 6.249 1.819zm34.658-1.174h10.087c.44 0 .76.091.946.258a.853.853 0 01.293.658.806.806 0 01-.293.646c-.186.167-.506.257-.946.257h-10.087v11.974c0 1.045.427 1.91 1.293 2.619.866.697 2.132 1.046 3.797 1.046 1.253 0 2.612-.181 4.064-.542 1.466-.362 2.599-.774 3.412-1.226.293-.181.533-.284.733-.284.239 0 .439.09.612.271a.882.882 0 01.267.632c0 .207-.093.413-.293.594-.467.464-1.613.98-3.438 1.535-1.826.555-3.558.826-5.237.826-2.172 0-3.89-.49-5.17-1.471-1.279-.981-1.918-2.309-1.918-3.987v-11.974h-3.425c-.44 0-.759-.09-.946-.258a.86.86 0 01-.293-.671c0-.258.093-.477.293-.645.187-.167.506-.258.946-.258h3.425v-5.316c0-.425.093-.735.266-.916.173-.18.4-.284.666-.284.28 0 .507.091.68.284.173.181.266.491.266.916v5.316zm53.779 18.554v-2.593c-2.705 2.193-5.583 3.303-8.648 3.303-2.225 0-3.97-.542-5.223-1.639-1.252-1.096-1.879-2.425-1.879-4.012 0-1.742.827-3.265 2.479-4.568 1.652-1.303 4.064-1.948 7.235-1.948.853 0 1.786.051 2.785.155.999.103 2.092.271 3.251.503v-2.916c0-.981-.466-1.845-1.412-2.568-.946-.722-2.359-1.097-4.251-1.097-1.439 0-3.477.413-6.089 1.226-.467.142-.773.22-.906.22a.85.85 0 01-.613-.259c-.173-.167-.253-.387-.253-.645 0-.245.08-.438.226-.58.2-.22 1.039-.504 2.505-.878 2.305-.593 4.038-.903 5.224-.903 2.345 0 4.17.555 5.489 1.677 1.306 1.123 1.972 2.387 1.972 3.807v11.909h2.479c.453 0 .786.077.973.245a.856.856 0 01.293.658.806.806 0 01-.293.645c-.187.168-.52.258-.973.258h-4.371zm0-8.954a17.908 17.908 0 00-2.758-.542 26.055 26.055 0 00-3.078-.168c-2.705 0-4.81.568-6.329 1.69-1.146.839-1.719 1.846-1.719 3.02 0 1.084.44 2 1.319 2.735.879.748 2.159 1.11 3.838 1.11 1.612 0 3.104-.31 4.477-.929 1.372-.62 2.798-1.613 4.264-2.968v-3.948h-.014zm35.471-9.6h10.087c.44 0 .759.091.946.258a.853.853 0 01.293.658.806.806 0 01-.293.646c-.187.167-.506.257-.946.257h-10.087v11.974c0 1.045.426 1.91 1.293 2.619.866.697 2.131 1.046 3.797 1.046 1.253 0 2.612-.181 4.064-.542 1.466-.362 2.599-.774 3.411-1.226.293-.181.533-.284.733-.284.24 0 .44.09.613.271a.886.886 0 01.267.632c0 .207-.094.413-.294.594-.466.464-1.612.98-3.437 1.535-1.826.555-3.558.826-5.237.826-2.172 0-3.891-.49-5.17-1.471-1.279-.981-1.919-2.309-1.919-3.987v-11.974h-3.424c-.44 0-.76-.09-.946-.258a.86.86 0 01-.293-.671c0-.258.093-.477.293-.645.186-.167.506-.258.946-.258h3.424v-5.316c0-.425.093-.735.267-.916a.9.9 0 01.666-.284c.28 0 .506.091.68.284.173.181.266.491.266.916v5.316zm58.496 9.703h-18.935c.32 2.323 1.333 4.206 3.025 5.626 1.692 1.419 3.771 2.129 6.276 2.129 1.386 0 2.838-.22 4.357-.658 1.519-.439 2.759-1.033 3.718-1.755.28-.22.52-.323.733-.323.24 0 .44.091.613.271a.885.885 0 01.266.632c0 .246-.12.478-.359.71-.707.71-1.959 1.381-3.771 2a17.086 17.086 0 01-5.557.929c-3.185 0-5.836-1.006-7.968-3.032-2.132-2.026-3.198-4.464-3.198-7.342 0-2.606.999-4.851 2.998-6.722 1.999-1.871 4.477-2.813 7.422-2.813 3.038 0 5.53.955 7.502 2.877 1.932 1.936 2.905 4.413 2.878 7.471zm-1.879-1.819c-.373-1.987-1.332-3.6-2.905-4.839-1.572-1.238-3.437-1.858-5.609-1.858s-4.038.62-5.597 1.845c-1.559 1.226-2.532 2.852-2.918 4.865h17.029v-.013zm82.054-7.884v16.748h7.302c.453 0 .787.077.973.245a.853.853 0 01.293.658.803.803 0 01-.293.645c-.186.168-.52.258-.973.258H537.11c-.439 0-.759-.09-.946-.258a.847.847 0 01-.293-.645c0-.271.093-.49.293-.658.187-.168.507-.245.946-.245h7.302v-14.929h-5.423c-.44 0-.759-.09-.959-.257a.806.806 0 01-.293-.646c0-.271.093-.49.293-.658.186-.167.519-.258.972-.258h7.262zm-.066-9.225v4.645h-2.745v-4.645h2.745zm37.696 9.225v2.723c1.292-1.265 2.465-2.142 3.517-2.632 1.053-.491 2.226-.723 3.545-.723 1.412 0 2.705.297 3.864.877.826.426 1.572 1.136 2.252 2.129.666.994 1.013 2.013 1.013 3.058v11.329h1.572c.44 0 .76.077.946.245a.853.853 0 01.293.658.804.804 0 01-.293.645c-.186.168-.506.258-.946.258h-4.984c-.453 0-.786-.09-.972-.258a.845.845 0 01-.293-.645c0-.271.093-.49.293-.658.186-.168.519-.245.972-.245h1.546v-11.032c0-1.264-.479-2.348-1.439-3.226-.959-.877-2.238-1.316-3.851-1.316-1.226 0-2.292.245-3.184.723-.893.477-2.186 1.664-3.851 3.561v11.29h2.105c.44 0 .76.077.946.245a.853.853 0 01.293.658.804.804 0 01-.293.645c-.186.168-.506.258-.946.258h-6.063c-.439 0-.759-.09-.946-.258a.849.849 0 01-.293-.645c0-.271.093-.49.293-.658.187-.168.507-.245.946-.245h2.106v-14.929h-1.573c-.439 0-.759-.09-.946-.258a.862.862 0 01-.293-.671c0-.258.093-.477.293-.645.187-.167.507-.258.946-.258h3.425zm52.26 18.554h-3.145l-7.635-16.722h-1.906c-.439 0-.759-.09-.946-.258a.862.862 0 01-.293-.671c0-.258.094-.477.293-.645.187-.167.507-.258.946-.258h6.969c.44 0 .76.091.946.258a.853.853 0 01.294.658.807.807 0 01-.294.646c-.186.167-.506.257-.946.257h-3.078l6.809 14.929h.813l6.676-14.929h-3.092c-.439 0-.759-.09-.946-.257a.865.865 0 01-.293-.671c0-.259.094-.478.293-.646.187-.167.507-.258.946-.258h6.996c.453 0 .773.091.959.258.187.168.28.387.28.658a.834.834 0 01-.28.646c-.186.167-.506.258-.959.258h-1.879l-7.528 16.747zm53.046-8.851h-18.935c.32 2.323 1.333 4.206 3.025 5.626 1.692 1.419 3.771 2.129 6.276 2.129 1.386 0 2.838-.22 4.357-.658 1.519-.439 2.758-1.033 3.718-1.755.28-.22.519-.323.733-.323a.82.82 0 01.613.271.885.885 0 01.266.632c0 .246-.12.478-.36.71-.706.71-1.958 1.381-3.771 2a17.075 17.075 0 01-5.556.929c-3.185 0-5.836-1.006-7.968-3.032-2.132-2.026-3.198-4.464-3.198-7.342 0-2.606.999-4.851 2.998-6.722 1.999-1.871 4.477-2.813 7.422-2.813 3.038 0 5.53.955 7.502 2.877 1.945 1.936 2.904 4.413 2.878 7.471zm-1.879-1.819c-.373-1.987-1.332-3.6-2.905-4.839-1.572-1.238-3.438-1.858-5.61-1.858s-4.037.62-5.596 1.845c-1.559 1.226-2.532 2.852-2.918 4.865h17.029v-.013zm42.586-6.71c0-.413.093-.709.267-.903a.9.9 0 01.666-.284c.28 0 .506.091.679.284.174.194.267.503.267.942v3.084c0 .426-.093.735-.267.916a.905.905 0 01-.679.284.873.873 0 01-.626-.232c-.174-.155-.267-.413-.294-.775-.093-.851-.546-1.561-1.372-2.116-1.213-.8-2.812-1.2-4.797-1.2-2.079 0-3.691.413-4.837 1.226-.866.619-1.306 1.303-1.306 2.052 0 .851.52 1.574 1.546 2.142.706.399 2.052.709 4.024.916 2.585.271 4.371.58 5.37.916 1.426.503 2.492 1.187 3.198 2.077.706.89 1.053 1.845 1.053 2.877 0 1.523-.76 2.891-2.279 4.078-1.519 1.187-3.744 1.793-6.676 1.793-2.931 0-5.343-.722-7.208-2.168 0 .491-.027.8-.094.942a.768.768 0 01-.319.362.944.944 0 01-.52.154.873.873 0 01-.666-.283c-.187-.194-.267-.491-.267-.916v-3.704c0-.425.08-.735.253-.916.173-.18.4-.284.68-.284.266 0 .493.091.679.271.187.181.28.413.28.723 0 .658.174 1.213.507 1.652.519.683 1.332 1.251 2.465 1.703 1.132.451 2.505.671 4.144.671 2.412 0 4.21-.439 5.396-1.304 1.186-.877 1.772-1.793 1.772-2.761 0-1.109-.599-2.013-1.798-2.684-1.213-.67-2.972-1.122-5.277-1.354-2.305-.233-3.957-.529-4.97-.903-1-.375-1.786-.929-2.345-1.665-.56-.748-.84-1.548-.84-2.4 0-1.548.786-2.761 2.345-3.677 1.559-.903 3.425-1.355 5.597-1.355 2.558 0 4.637.606 6.249 1.819zm34.671-1.174h10.087c.44 0 .76.091.946.258a.853.853 0 01.293.658.806.806 0 01-.293.646c-.186.167-.506.257-.946.257h-10.087v11.974c0 1.045.427 1.91 1.293 2.619.866.697 2.132 1.046 3.797 1.046 1.253 0 2.612-.181 4.064-.542 1.466-.362 2.599-.774 3.412-1.226.293-.181.533-.284.733-.284.239 0 .439.09.612.271a.882.882 0 01.267.632c0 .207-.093.413-.293.594-.467.464-1.613.98-3.438 1.535-1.826.555-3.558.826-5.237.826-2.172 0-3.891-.49-5.17-1.471-1.279-.981-1.918-2.309-1.918-3.987v-11.974h-3.425c-.44 0-.759-.09-.946-.258a.86.86 0 01-.293-.671c0-.258.093-.477.293-.645.187-.167.506-.258.946-.258h3.425v-5.316c0-.425.093-.735.266-.916.173-.18.4-.284.666-.284.28 0 .507.091.68.284.173.194.266.491.266.916v5.316zm39.975 1.819c1.572-1.638 3.158-2.464 4.757-2.464.959 0 1.799.245 2.518.736.72.49 1.333 1.238 1.812 2.245.826-.994 1.666-1.742 2.505-2.245.853-.491 1.706-.736 2.559-.736 1.346 0 2.412.426 3.211 1.265 1.053 1.083 1.572 2.27 1.572 3.548v12.567h1.573c.439 0 .759.077.946.245a.856.856 0 01.293.658.803.803 0 01-.293.645c-.187.168-.507.258-.946.258h-3.425v-14.205c0-.917-.293-1.665-.866-2.271-.573-.594-1.239-.903-1.985-.903-.68 0-1.399.245-2.146.735-.746.49-1.612 1.458-2.571 2.903v11.935h1.545c.44 0 .76.077.946.245a.853.853 0 01.294.658.803.803 0 01-.294.645c-.186.168-.506.258-.946.258h-3.424v-14.076c0-.955-.293-1.742-.866-2.375-.587-.619-1.239-.928-1.959-.928-.666 0-1.319.206-1.972.619-.906.58-1.839 1.587-2.825 3.019v11.935h1.572c.44 0 .76.077.947.245a.856.856 0 01.293.658.806.806 0 01-.293.645c-.187.168-.507.258-.947.258h-4.996c-.44 0-.76-.09-.946-.258a.845.845 0 01-.294-.645c0-.271.094-.49.294-.658.186-.168.506-.245.946-.245h1.572v-14.928h-1.572c-.44 0-.76-.091-.946-.258a.863.863 0 01-.294-.671c0-.258.094-.478.294-.646.186-.167.506-.258.946-.258h3.411v1.845zm63.133 7.884h-18.935c.32 2.323 1.333 4.206 3.025 5.626 1.692 1.419 3.771 2.129 6.276 2.129 1.386 0 2.838-.22 4.357-.658 1.519-.439 2.758-1.033 3.718-1.755.28-.22.519-.323.733-.323a.82.82 0 01.613.271.885.885 0 01.266.632c0 .246-.12.478-.36.71-.706.71-1.958 1.381-3.771 2a17.075 17.075 0 01-5.556.929c-3.185 0-5.836-1.006-7.968-3.032-2.132-2.026-3.198-4.464-3.198-7.342 0-2.606.999-4.851 2.998-6.722 1.999-1.871 4.477-2.813 7.422-2.813 3.038 0 5.53.955 7.502 2.877 1.945 1.936 2.904 4.413 2.878 7.471zm-1.879-1.819c-.373-1.987-1.332-3.6-2.905-4.839-1.572-1.238-3.438-1.858-5.61-1.858s-4.037.62-5.596 1.845c-1.559 1.226-2.532 2.852-2.918 4.865h17.029v-.013zm30.447-7.884v2.723c1.293-1.265 2.465-2.142 3.518-2.632 1.053-.491 2.225-.723 3.544-.723 1.413 0 2.705.297 3.865.877.826.426 1.572 1.136 2.251 2.129.667.994 1.013 2.013 1.013 3.058v11.329h1.573c.439 0 .759.077.946.245a.856.856 0 01.293.658.807.807 0 01-.293.645c-.187.168-.507.258-.946.258h-4.984c-.453 0-.786-.09-.973-.258a.849.849 0 01-.293-.645c0-.271.093-.49.293-.658.187-.168.52-.245.973-.245h1.546v-11.032c0-1.264-.48-2.348-1.439-3.226-.96-.877-2.239-1.316-3.851-1.316-1.226 0-2.292.245-3.185.723-.906.477-2.185 1.664-3.851 3.561v11.29h2.106c.439 0 .759.077.946.245a.856.856 0 01.293.658.807.807 0 01-.293.645c-.187.168-.507.258-.946.258h-6.063c-.44 0-.76-.09-.946-.258a.845.845 0 01-.293-.645c0-.271.093-.49.293-.658.186-.168.506-.245.946-.245h2.105v-14.929h-1.572c-.44 0-.76-.09-.946-.258a.86.86 0 01-.293-.671c0-.258.093-.477.293-.645.186-.167.506-.258.946-.258h3.424zm46.81 0h10.087c.44 0 .76.091.946.258a.853.853 0 01.293.658.806.806 0 01-.293.646c-.186.167-.506.257-.946.257h-10.087v11.974c0 1.045.427 1.91 1.293 2.619.866.697 2.132 1.046 3.797 1.046 1.253 0 2.612-.181 4.064-.542 1.466-.362 2.599-.774 3.412-1.226.293-.181.533-.284.732-.284.24 0 .44.09.613.271a.882.882 0 01.267.632c0 .207-.093.413-.293.594-.467.464-1.613.98-3.438 1.535-1.826.555-3.558.826-5.237.826-2.172 0-3.891-.49-5.17-1.471-1.279-.981-1.918-2.309-1.918-3.987v-11.974h-3.425c-.44 0-.76-.09-.946-.258a.86.86 0 01-.293-.671c0-.258.093-.477.293-.645.186-.167.506-.258.946-.258h3.425v-5.316c0-.425.093-.735.266-.916.173-.18.4-.284.666-.284.28 0 .507.091.68.284.173.181.266.491.266.916v5.316zm54.579 1.174c0-.413.093-.709.266-.903.173-.18.4-.284.667-.284.279 0 .506.091.679.284.173.194.267.503.267.942v3.084c0 .426-.094.735-.267.916a.907.907 0 01-.679.284.873.873 0 01-.627-.232c-.173-.155-.266-.413-.293-.775-.093-.851-.546-1.561-1.372-2.116-1.213-.8-2.812-1.2-4.797-1.2-2.079 0-3.691.413-4.837 1.226-.866.619-1.306 1.303-1.306 2.052 0 .851.52 1.574 1.546 2.142.706.399 2.052.709 4.024.916 2.585.271 4.37.58 5.37.916 1.425.503 2.491 1.187 3.198 2.077.708.89 1.048 1.845 1.048 2.877 0 1.523-.755 2.891-2.274 4.078-1.519 1.187-3.745 1.793-6.676 1.793-2.932 0-5.343-.722-7.209-2.168 0 .491-.026.8-.093.942a.77.77 0 01-.32.362.94.94 0 01-.519.154.877.877 0 01-.667-.283c-.173-.181-.266-.491-.266-.916v-3.704c0-.425.08-.735.253-.916.173-.18.4-.284.68-.284.266 0 .493.091.679.271.187.181.28.413.28.723 0 .658.173 1.213.506 1.652.52.683 1.333 1.251 2.465 1.703 1.133.451 2.505.671 4.144.671 2.412 0 4.211-.439 5.397-1.304 1.186-.877 1.772-1.793 1.772-2.761 0-1.109-.599-2.013-1.799-2.684-1.212-.67-2.971-1.122-5.276-1.354-2.306-.233-3.958-.529-4.971-.903-.999-.375-1.785-.929-2.345-1.665-.559-.748-.839-1.548-.839-2.4 0-1.548.786-2.761 2.345-3.677 1.559-.903 3.425-1.355 5.596-1.355 2.559 0 4.638.606 6.25 1.819z" fill="#F6F0E4"/></svg>